<svg xmlns="http://www.w3.org/2000/svg" xmlns:xlink="http://www.w3.org/1999/xlink" width="135" zoomAndPan="magnify" viewBox="0 0 101.25 101.249999" height="135" preserveAspectRatio="xMidYMid meet" version="1.0"><defs><clipPath id="e638e5a9f8"><path d="M 0 0 L 99.761719 0 L 99.761719 99.761719 L 0 99.761719 Z M 0 0 " clip-rule="nonzero"/></clipPath></defs><g clip-path="url(#e638e5a9f8)"><path fill="#000000" d="M 10.0625 0 L 89.574219 0 C 95.164062 0 99.761719 4.597656 99.761719 10.0625 L 99.761719 89.574219 C 99.761719 95.164062 95.164062 99.761719 89.574219 99.761719 L 10.0625 99.761719 C 4.597656 99.761719 0 95.164062 0 89.574219 L 0 10.0625 C 0 4.597656 4.597656 0 10.0625 0 Z M 49.820312 38.265625 L 67.707031 12.921875 L 83.859375 12.921875 L 57.894531 49.820312 L 83.859375 86.839844 L 67.707031 86.839844 L 49.820312 61.371094 L 32.050781 86.839844 L 15.902344 86.839844 L 41.742188 49.820312 L 15.902344 12.921875 L 32.050781 12.921875 Z M 49.820312 38.265625 " fill-opacity="1" fill-rule="evenodd"/></g></svg>