<svg xmlns="http://www.w3.org/2000/svg" xmlns:xlink="http://www.w3.org/1999/xlink" width="135" zoomAndPan="magnify" viewBox="0 0 101.25 101.249999" height="135" preserveAspectRatio="xMidYMid meet" version="1.0"><defs><clipPath id="63b0b07f53"><path d="M 0 0 L 99.761719 0 L 99.761719 99.761719 L 0 99.761719 Z M 0 0 " clip-rule="nonzero"/></clipPath></defs><g clip-path="url(#63b0b07f53)"><path fill="#000000" d="M 0 0 L 99.777344 0 L 99.777344 99.777344 L 0 99.777344 Z M 0 0 " fill-opacity="1" fill-rule="nonzero"/></g><path fill="#25f4ee" d="M 43.265625 42.757812 L 43.265625 40.050781 C 42.359375 39.925781 41.4375 39.851562 40.496094 39.851562 C 29.171875 39.851562 19.957031 49.066406 19.957031 60.394531 C 19.957031 67.34375 23.429688 73.492188 28.726562 77.214844 C 25.308594 73.539062 23.277344 68.625 23.277344 63.222656 C 23.277344 52.058594 32.164062 43.015625 43.265625 42.757812 Z M 43.265625 42.757812 " fill-opacity="1" fill-rule="nonzero"/><path fill="#25f4ee" d="M 43.75 72.664062 C 48.804688 72.664062 52.984375 68.582031 53.171875 63.578125 L 53.214844 18.910156 L 61.3125 18.910156 C 61.3125 18.910156 61.300781 18.847656 61.300781 18.847656 C 61.132812 17.933594 61.039062 16.984375 61.039062 16.019531 L 49.878906 16.019531 L 49.863281 60.746094 C 49.675781 65.757812 45.550781 69.773438 40.496094 69.773438 C 38.925781 69.773438 37.449219 69.382812 36.148438 68.699219 C 37.851562 71.058594 40.621094 72.667969 43.753906 72.667969 Z M 43.75 72.664062 " fill-opacity="1" fill-rule="nonzero"/><path fill="#25f4ee" d="M 76.570312 34.160156 L 76.570312 31.535156 C 73.453125 31.535156 70.550781 30.609375 68.113281 29.019531 C 70.28125 31.511719 73.226562 33.441406 76.570312 34.15625 Z M 76.570312 34.160156 " fill-opacity="1" fill-rule="nonzero"/><path fill="#fe2c55" d="M 68.113281 29.023438 C 65.738281 26.296875 64.296875 22.738281 64.296875 18.84375 L 61.257812 18.84375 C 62.046875 23.097656 64.617188 26.746094 68.113281 29.023438 Z M 68.113281 29.023438 " fill-opacity="1" fill-rule="nonzero"/><path fill="#fe2c55" d="M 40.496094 50.921875 C 35.324219 50.921875 31.054688 55.214844 31.054688 60.386719 C 31.054688 63.988281 33.15625 67.121094 36.144531 68.695312 C 35.03125 67.152344 34.367188 65.265625 34.367188 63.222656 C 34.367188 58.050781 38.574219 53.839844 43.75 53.839844 C 44.714844 53.839844 45.640625 54 46.519531 54.273438 L 46.519531 42.882812 C 45.609375 42.757812 44.6875 42.683594 43.75 42.683594 C 43.585938 42.683594 43.425781 42.691406 43.265625 42.695312 L 43.222656 42.695312 C 43.222656 42.695312 43.191406 51.320312 43.191406 51.320312 C 42.3125 51.046875 41.464844 50.925781 40.496094 50.925781 Z M 40.496094 50.921875 " fill-opacity="1" fill-rule="nonzero"/><path fill="#fe2c55" d="M 76.570312 34.027344 L 76.515625 34.015625 L 76.515625 42.632812 C 70.726562 42.632812 65.351562 40.726562 60.972656 37.585938 L 60.972656 60.386719 C 60.972656 71.714844 51.824219 80.871094 40.496094 80.871094 C 36.121094 80.871094 32.0625 79.546875 28.722656 77.203125 C 32.476562 81.230469 37.824219 83.761719 43.75 83.761719 C 55.078125 83.761719 64.289062 74.546875 64.289062 63.21875 L 64.289062 40.539062 C 68.667969 43.679688 74.03125 45.53125 79.816406 45.53125 L 79.816406 34.371094 C 78.703125 34.371094 77.617188 34.25 76.566406 34.027344 Z M 76.570312 34.027344 " fill-opacity="1" fill-rule="nonzero"/><path fill="#ffffff" d="M 61.039062 60.386719 L 61.039062 37.707031 C 65.417969 40.847656 70.78125 42.699219 76.566406 42.699219 L 76.566406 34.027344 C 73.222656 33.308594 70.28125 31.515625 68.109375 29.023438 C 64.613281 26.742188 62.089844 23.097656 61.300781 18.84375 L 53.128906 18.84375 L 53.109375 63.574219 C 52.925781 68.582031 48.800781 72.601562 43.746094 72.601562 C 40.613281 72.601562 37.84375 71.054688 36.140625 68.691406 C 33.152344 67.117188 31.109375 63.988281 31.109375 60.382812 C 31.109375 55.210938 35.320312 51 40.492188 51 C 41.460938 51 42.386719 51.160156 43.261719 51.433594 L 43.261719 42.6875 C 32.15625 42.949219 23.203125 52.050781 23.203125 63.21875 C 23.203125 68.617188 25.304688 73.535156 28.71875 77.207031 C 32.054688 79.550781 36.113281 80.929688 40.492188 80.929688 C 51.820312 80.929688 61.035156 71.714844 61.035156 60.386719 Z M 61.039062 60.386719 " fill-opacity="1" fill-rule="nonzero"/></svg>