<svg xmlns="http://www.w3.org/2000/svg" xmlns:xlink="http://www.w3.org/1999/xlink" width="230" zoomAndPan="magnify" viewBox="0 0 172.5 30.750001" height="41" preserveAspectRatio="xMidYMid meet" version="1.0"><defs><g/><clipPath id="02310233b1"><path d="M 0.449219 0 L 171.554688 0 L 171.554688 30.503906 L 0.449219 30.503906 Z M 0.449219 0 " clip-rule="nonzero"/></clipPath><clipPath id="2171b1f641"><path d="M 0.449219 0 L 171.140625 0 L 171.140625 30.03125 L 0.449219 30.03125 Z M 0.449219 0 " clip-rule="nonzero"/></clipPath><clipPath id="a78e2505c7"><path d="M 7.144531 0 L 164.429688 0 C 166.207031 0 167.910156 0.707031 169.164062 1.960938 C 170.421875 3.214844 171.125 4.917969 171.125 6.695312 L 171.125 23.335938 C 171.125 25.113281 170.421875 26.816406 169.164062 28.070312 C 167.910156 29.328125 166.207031 30.03125 164.429688 30.03125 L 7.144531 30.03125 C 5.367188 30.03125 3.664062 29.328125 2.410156 28.070312 C 1.152344 26.816406 0.449219 25.113281 0.449219 23.335938 L 0.449219 6.695312 C 0.449219 4.917969 1.152344 3.214844 2.410156 1.960938 C 3.664062 0.707031 5.367188 0 7.144531 0 Z M 7.144531 0 " clip-rule="nonzero"/></clipPath><clipPath id="c5aa720ebc"><path d="M 0.449219 0 L 171.140625 0 L 171.140625 30.03125 L 0.449219 30.03125 Z M 0.449219 0 " clip-rule="nonzero"/></clipPath><clipPath id="6f90276bc7"><path d="M 7.144531 0 L 164.429688 0 C 166.207031 0 167.910156 0.707031 169.164062 1.960938 C 170.421875 3.214844 171.125 4.917969 171.125 6.695312 L 171.125 23.335938 C 171.125 25.113281 170.421875 26.816406 169.164062 28.070312 C 167.910156 29.328125 166.207031 30.03125 164.429688 30.03125 L 7.144531 30.03125 C 5.367188 30.03125 3.664062 29.328125 2.410156 28.070312 C 1.152344 26.816406 0.449219 25.113281 0.449219 23.335938 L 0.449219 6.695312 C 0.449219 4.917969 1.152344 3.214844 2.410156 1.960938 C 3.664062 0.707031 5.367188 0 7.144531 0 Z M 7.144531 0 " clip-rule="nonzero"/></clipPath><clipPath id="80c338f71b"><rect x="0" width="172" y="0" height="31"/></clipPath><clipPath id="e14d670f90"><path d="M 0.449219 0 L 171.175781 0 L 171.175781 30.371094 L 0.449219 30.371094 Z M 0.449219 0 " clip-rule="nonzero"/></clipPath><clipPath id="72fd1518ad"><path d="M 7.160156 0 L 164.402344 0 C 166.175781 0 167.878906 0.707031 169.132812 1.960938 C 170.390625 3.214844 171.09375 4.917969 171.09375 6.695312 L 171.09375 23.332031 C 171.09375 25.105469 170.390625 26.808594 169.132812 28.0625 C 167.878906 29.320312 166.175781 30.023438 164.402344 30.023438 L 7.160156 30.023438 C 5.382812 30.023438 3.683594 29.320312 2.425781 28.0625 C 1.171875 26.808594 0.464844 25.105469 0.464844 23.332031 L 0.464844 6.695312 C 0.464844 4.917969 1.171875 3.214844 2.425781 1.960938 C 3.683594 0.707031 5.382812 0 7.160156 0 Z M 7.160156 0 " clip-rule="nonzero"/></clipPath><clipPath id="deb0dde003"><rect x="0" width="152" y="0" height="24"/></clipPath><clipPath id="19b96fd81a"><rect x="0" width="172" y="0" height="31"/></clipPath></defs><g clip-path="url(#02310233b1)"><g transform="matrix(1, 0, 0, 1, 0.000000000000000111, 0.000000000000002089)"><g clip-path="url(#19b96fd81a)"><g clip-path="url(#2171b1f641)"><g clip-path="url(#a78e2505c7)"><g transform="matrix(1, 0, 0, 1, 0.000000000000000111, 0.000000000000002089)"><g clip-path="url(#80c338f71b)"><g clip-path="url(#c5aa720ebc)"><g clip-path="url(#6f90276bc7)"><path fill="#ffffff" d="M 0.449219 0 L 171.140625 0 L 171.140625 30.03125 L 0.449219 30.03125 Z M 0.449219 0 " fill-opacity="1" fill-rule="nonzero"/></g></g></g></g></g></g><g clip-path="url(#e14d670f90)"><g clip-path="url(#72fd1518ad)"><path stroke-linecap="butt" transform="matrix(0.820817, 0, 0, 0.820817, 0.447578, 0.00000198387)" fill="none" stroke-linejoin="miter" d="M 8.177926 -0.00000241695 L 199.745898 -0.00000241695 C 201.906475 -0.00000241695 203.98139 0.861373 205.509022 2.389005 C 207.041414 3.916638 207.89803 5.991553 207.89803 8.156889 L 207.89803 28.425384 C 207.89803 30.585961 207.041414 32.660876 205.509022 34.188508 C 203.98139 35.7209 201.906475 36.577516 199.745898 36.577516 L 8.177926 36.577516 C 6.012591 36.577516 3.942434 35.7209 2.410043 34.188508 C 0.88241 32.660876 0.021035 30.585961 0.021035 28.425384 L 0.021035 8.156889 C 0.021035 5.991553 0.88241 3.916638 2.410043 2.389005 C 3.942434 0.861373 6.012591 -0.00000241695 8.177926 -0.00000241695 Z M 8.177926 -0.00000241695 " stroke="#ffffff" stroke-width="1.812711" stroke-opacity="1" stroke-miterlimit="4"/></g></g><g transform="matrix(1, 0, 0, 1, 10, 3)"><g clip-path="url(#deb0dde003)"><g fill="#ffde59" fill-opacity="1"><g transform="translate(2.226442, 19.069937)"><g><path d="M 13.703125 -13.28125 C 13.453125 -13.28125 13.238281 -13.191406 13.0625 -13.015625 C 12.882812 -12.847656 12.796875 -12.640625 12.796875 -12.390625 C 12.796875 -12.148438 12.882812 -11.9375 13.0625 -11.75 C 13.238281 -11.570312 13.453125 -11.484375 13.703125 -11.484375 C 13.960938 -11.484375 14.175781 -11.570312 14.34375 -11.75 C 14.507812 -11.9375 14.59375 -12.148438 14.59375 -12.390625 C 14.59375 -12.640625 14.507812 -12.847656 14.34375 -13.015625 C 14.175781 -13.191406 13.960938 -13.28125 13.703125 -13.28125 Z M 13.703125 -10.46875 C 13.347656 -10.46875 13.023438 -10.550781 12.734375 -10.71875 C 12.441406 -10.894531 12.210938 -11.128906 12.046875 -11.421875 C 11.878906 -11.710938 11.796875 -12.035156 11.796875 -12.390625 C 11.796875 -12.742188 11.878906 -13.0625 12.046875 -13.34375 C 12.210938 -13.632812 12.441406 -13.863281 12.734375 -14.03125 C 13.023438 -14.195312 13.347656 -14.28125 13.703125 -14.28125 C 14.234375 -14.28125 14.679688 -14.09375 15.046875 -13.71875 C 15.421875 -13.351562 15.609375 -12.910156 15.609375 -12.390625 C 15.609375 -12.035156 15.519531 -11.710938 15.34375 -11.421875 C 15.175781 -11.128906 14.945312 -10.894531 14.65625 -10.71875 C 14.375 -10.550781 14.054688 -10.46875 13.703125 -10.46875 Z M 3.765625 -6.796875 L 5.625 -5.921875 C 5.4375 -5.566406 5.207031 -5.171875 4.9375 -4.734375 C 4.675781 -4.296875 4.394531 -3.863281 4.09375 -3.4375 C 3.800781 -3.007812 3.507812 -2.609375 3.21875 -2.234375 C 2.9375 -1.867188 2.675781 -1.566406 2.4375 -1.328125 L 0.65625 -2.546875 C 1.03125 -2.898438 1.410156 -3.320312 1.796875 -3.8125 C 2.191406 -4.300781 2.5625 -4.804688 2.90625 -5.328125 C 3.257812 -5.847656 3.546875 -6.335938 3.765625 -6.796875 Z M 13.234375 -8.28125 L 9.359375 -8.28125 L 9.359375 -0.59375 C 9.359375 -0.125 9.21875 0.25 8.9375 0.53125 C 8.65625 0.8125 8.222656 0.953125 7.640625 0.953125 C 7.203125 0.953125 6.75 0.9375 6.28125 0.90625 C 5.8125 0.882812 5.367188 0.851562 4.953125 0.8125 L 4.75 -1.234375 C 5.101562 -1.171875 5.445312 -1.125 5.78125 -1.09375 C 6.125 -1.0625 6.394531 -1.046875 6.59375 -1.046875 C 6.8125 -1.046875 6.960938 -1.09375 7.046875 -1.1875 C 7.140625 -1.28125 7.191406 -1.429688 7.203125 -1.640625 C 7.203125 -1.734375 7.203125 -1.941406 7.203125 -2.265625 C 7.210938 -2.597656 7.21875 -2.988281 7.21875 -3.4375 C 7.21875 -3.894531 7.21875 -4.375 7.21875 -4.875 C 7.21875 -5.375 7.21875 -5.859375 7.21875 -6.328125 C 7.21875 -6.796875 7.21875 -7.203125 7.21875 -7.546875 C 7.21875 -7.890625 7.21875 -8.128906 7.21875 -8.265625 L 7.21875 -8.28125 L 3.015625 -8.28125 C 2.773438 -8.28125 2.503906 -8.269531 2.203125 -8.25 C 1.910156 -8.238281 1.648438 -8.222656 1.421875 -8.203125 L 1.421875 -10.40625 C 1.671875 -10.375 1.9375 -10.34375 2.21875 -10.3125 C 2.5 -10.28125 2.765625 -10.265625 3.015625 -10.265625 L 7.21875 -10.265625 L 7.21875 -11.59375 C 7.21875 -11.8125 7.203125 -12.066406 7.171875 -12.359375 C 7.140625 -12.660156 7.101562 -12.882812 7.0625 -13.03125 L 9.515625 -13.03125 C 9.503906 -12.957031 9.488281 -12.832031 9.46875 -12.65625 C 9.445312 -12.476562 9.421875 -12.289062 9.390625 -12.09375 C 9.367188 -11.90625 9.359375 -11.738281 9.359375 -11.59375 L 9.359375 -10.265625 L 13.21875 -10.265625 C 13.445312 -10.265625 13.71875 -10.273438 14.03125 -10.296875 C 14.351562 -10.328125 14.617188 -10.359375 14.828125 -10.390625 L 14.828125 -8.21875 C 14.578125 -8.25 14.300781 -8.265625 14 -8.265625 C 13.707031 -8.273438 13.453125 -8.28125 13.234375 -8.28125 Z M 10.9375 -5.875 L 12.734375 -6.859375 C 12.941406 -6.585938 13.175781 -6.265625 13.4375 -5.890625 C 13.695312 -5.523438 13.957031 -5.140625 14.21875 -4.734375 C 14.476562 -4.328125 14.722656 -3.925781 14.953125 -3.53125 C 15.191406 -3.144531 15.394531 -2.804688 15.5625 -2.515625 L 13.609375 -1.453125 C 13.378906 -1.921875 13.101562 -2.429688 12.78125 -2.984375 C 12.457031 -3.546875 12.132812 -4.085938 11.8125 -4.609375 C 11.488281 -5.128906 11.195312 -5.550781 10.9375 -5.875 Z M 10.9375 -5.875 "/></g></g></g><g fill="#ffde59" fill-opacity="1"><g transform="translate(18.732844, 19.069937)"><g><path d="M 10.234375 -8.1875 L 10.234375 -1.4375 C 10.234375 -1.195312 10.238281 -0.9375 10.25 -0.65625 C 10.257812 -0.375 10.273438 -0.109375 10.296875 0.140625 C 10.328125 0.390625 10.359375 0.585938 10.390625 0.734375 L 7.78125 0.734375 C 7.800781 0.597656 7.816406 0.40625 7.828125 0.15625 C 7.847656 -0.09375 7.863281 -0.359375 7.875 -0.640625 C 7.882812 -0.929688 7.890625 -1.195312 7.890625 -1.4375 L 7.890625 -6.859375 C 7.046875 -6.421875 6.128906 -6 5.140625 -5.59375 C 4.148438 -5.195312 3.175781 -4.867188 2.21875 -4.609375 L 1.03125 -6.625 C 2 -6.832031 2.9375 -7.097656 3.84375 -7.421875 C 4.757812 -7.742188 5.613281 -8.09375 6.40625 -8.46875 C 7.207031 -8.851562 7.914062 -9.234375 8.53125 -9.609375 C 9.09375 -9.960938 9.644531 -10.347656 10.1875 -10.765625 C 10.726562 -11.179688 11.226562 -11.613281 11.6875 -12.0625 C 12.15625 -12.507812 12.539062 -12.9375 12.84375 -13.34375 L 14.609375 -11.75 C 13.984375 -11.113281 13.300781 -10.492188 12.5625 -9.890625 C 11.832031 -9.285156 11.054688 -8.71875 10.234375 -8.1875 Z M 10.234375 -8.1875 "/></g></g></g><g fill="#ffde59" fill-opacity="1"><g transform="translate(35.239246, 19.069937)"><g><path d="M 3.984375 -12.546875 C 4.265625 -12.347656 4.597656 -12.101562 4.984375 -11.8125 C 5.367188 -11.519531 5.765625 -11.207031 6.171875 -10.875 C 6.585938 -10.550781 6.972656 -10.234375 7.328125 -9.921875 C 7.691406 -9.609375 7.992188 -9.320312 8.234375 -9.0625 L 6.5625 -7.328125 C 6.351562 -7.566406 6.078125 -7.84375 5.734375 -8.15625 C 5.390625 -8.476562 5.019531 -8.804688 4.625 -9.140625 C 4.226562 -9.484375 3.835938 -9.8125 3.453125 -10.125 C 3.066406 -10.4375 2.722656 -10.695312 2.421875 -10.90625 Z M 1.921875 -1.546875 C 3.203125 -1.734375 4.375 -2.019531 5.4375 -2.40625 C 6.5 -2.800781 7.429688 -3.238281 8.234375 -3.71875 C 9.171875 -4.28125 10.03125 -4.914062 10.8125 -5.625 C 11.59375 -6.332031 12.273438 -7.078125 12.859375 -7.859375 C 13.441406 -8.640625 13.90625 -9.398438 14.25 -10.140625 L 15.546875 -7.8125 C 14.910156 -6.695312 14.0625 -5.597656 13 -4.515625 C 11.945312 -3.441406 10.757812 -2.503906 9.4375 -1.703125 C 8.59375 -1.191406 7.648438 -0.722656 6.609375 -0.296875 C 5.566406 0.117188 4.460938 0.425781 3.296875 0.625 Z M 1.921875 -1.546875 "/></g></g></g><g fill="#ffde59" fill-opacity="1"><g transform="translate(51.745648, 19.069937)"><g><path d="M 14.359375 -6.078125 L 13.40625 -3.796875 C 12.84375 -4.097656 12.210938 -4.398438 11.515625 -4.703125 C 10.816406 -5.003906 10.113281 -5.289062 9.40625 -5.5625 C 8.695312 -5.832031 8.046875 -6.066406 7.453125 -6.265625 L 7.453125 -1.578125 C 7.453125 -1.429688 7.457031 -1.21875 7.46875 -0.9375 C 7.488281 -0.65625 7.507812 -0.363281 7.53125 -0.0625 C 7.550781 0.226562 7.570312 0.484375 7.59375 0.703125 L 5.015625 0.703125 C 5.078125 0.390625 5.117188 0.015625 5.140625 -0.421875 C 5.171875 -0.867188 5.1875 -1.253906 5.1875 -1.578125 L 5.1875 -11.0625 C 5.1875 -11.363281 5.171875 -11.703125 5.140625 -12.078125 C 5.117188 -12.453125 5.078125 -12.78125 5.015625 -13.0625 L 7.59375 -13.0625 C 7.5625 -12.78125 7.53125 -12.460938 7.5 -12.109375 C 7.46875 -11.765625 7.453125 -11.414062 7.453125 -11.0625 L 7.453125 -8.640625 C 8.003906 -8.472656 8.597656 -8.28125 9.234375 -8.0625 C 9.878906 -7.851562 10.519531 -7.628906 11.15625 -7.390625 C 11.800781 -7.148438 12.398438 -6.914062 12.953125 -6.6875 C 13.515625 -6.46875 13.984375 -6.265625 14.359375 -6.078125 Z M 14.359375 -6.078125 "/></g></g></g><g fill="#ffde59" fill-opacity="1"><g transform="translate(68.252051, 19.069937)"><g><path d="M 2.671875 0.734375 L 0.65625 -0.609375 C 1.382812 -1.128906 1.976562 -1.738281 2.4375 -2.4375 C 2.894531 -3.144531 3.238281 -3.851562 3.46875 -4.5625 C 3.59375 -4.914062 3.679688 -5.359375 3.734375 -5.890625 C 3.796875 -6.421875 3.84375 -6.992188 3.875 -7.609375 C 3.914062 -8.222656 3.9375 -8.832031 3.9375 -9.4375 C 3.945312 -10.050781 3.953125 -10.601562 3.953125 -11.09375 C 3.953125 -11.425781 3.9375 -11.707031 3.90625 -11.9375 C 3.882812 -12.175781 3.847656 -12.394531 3.796875 -12.59375 L 6.21875 -12.59375 C 6.207031 -12.5625 6.1875 -12.390625 6.15625 -12.078125 C 6.125 -11.773438 6.109375 -11.453125 6.109375 -11.109375 C 6.109375 -10.628906 6.101562 -10.066406 6.09375 -9.421875 C 6.082031 -8.785156 6.0625 -8.128906 6.03125 -7.453125 C 6 -6.773438 5.945312 -6.132812 5.875 -5.53125 C 5.8125 -4.9375 5.722656 -4.429688 5.609375 -4.015625 C 5.367188 -3.078125 5 -2.207031 4.5 -1.40625 C 4 -0.613281 3.390625 0.0976562 2.671875 0.734375 Z M 9.671875 0.78125 L 8.3125 -0.359375 C 8.34375 -0.515625 8.367188 -0.703125 8.390625 -0.921875 C 8.421875 -1.140625 8.4375 -1.359375 8.4375 -1.578125 L 8.4375 -11.21875 C 8.4375 -11.59375 8.414062 -11.914062 8.375 -12.1875 C 8.34375 -12.457031 8.320312 -12.609375 8.3125 -12.640625 L 10.765625 -12.640625 C 10.753906 -12.609375 10.734375 -12.453125 10.703125 -12.171875 C 10.671875 -11.898438 10.65625 -11.578125 10.65625 -11.203125 L 10.65625 -2.5625 C 11.101562 -2.757812 11.566406 -3.023438 12.046875 -3.359375 C 12.535156 -3.703125 13.015625 -4.101562 13.484375 -4.5625 C 13.953125 -5.019531 14.367188 -5.515625 14.734375 -6.046875 L 16 -4.234375 C 15.550781 -3.640625 15.003906 -3.054688 14.359375 -2.484375 C 13.722656 -1.910156 13.054688 -1.382812 12.359375 -0.90625 C 11.671875 -0.4375 11.019531 -0.0390625 10.40625 0.28125 C 10.226562 0.363281 10.085938 0.441406 9.984375 0.515625 C 9.890625 0.597656 9.785156 0.6875 9.671875 0.78125 Z M 9.671875 0.78125 "/></g></g></g><g fill="#ffde59" fill-opacity="1"><g transform="translate(84.758453, 19.069937)"><g><path d="M 1.515625 -5.046875 L 1.515625 -7.640625 C 1.710938 -7.628906 1.960938 -7.613281 2.265625 -7.59375 C 2.578125 -7.582031 2.898438 -7.570312 3.234375 -7.5625 C 3.578125 -7.550781 3.890625 -7.546875 4.171875 -7.546875 L 13.046875 -7.546875 C 13.429688 -7.546875 13.796875 -7.554688 14.140625 -7.578125 C 14.492188 -7.609375 14.773438 -7.628906 14.984375 -7.640625 L 14.984375 -5.046875 C 14.785156 -5.066406 14.5 -5.085938 14.125 -5.109375 C 13.757812 -5.128906 13.398438 -5.140625 13.046875 -5.140625 L 4.171875 -5.140625 C 3.703125 -5.140625 3.21875 -5.128906 2.71875 -5.109375 C 2.226562 -5.097656 1.828125 -5.078125 1.515625 -5.046875 Z M 1.515625 -5.046875 "/></g></g></g><g fill="#ffde59" fill-opacity="1"><g transform="translate(101.264855, 19.069937)"><g><path d="M 4.765625 0.6875 L 3.21875 -0.65625 C 3.320312 -0.863281 3.382812 -1.046875 3.40625 -1.203125 C 3.425781 -1.367188 3.4375 -1.546875 3.4375 -1.734375 L 3.4375 -10.6875 C 3.4375 -11.007812 3.421875 -11.34375 3.390625 -11.6875 C 3.359375 -12.03125 3.3125 -12.316406 3.25 -12.546875 L 5.84375 -12.546875 C 5.800781 -12.242188 5.765625 -11.9375 5.734375 -11.625 C 5.703125 -11.320312 5.6875 -11.007812 5.6875 -10.6875 L 5.6875 -2.109375 C 6.351562 -2.296875 7.066406 -2.566406 7.828125 -2.921875 C 8.597656 -3.273438 9.367188 -3.6875 10.140625 -4.15625 C 10.910156 -4.632812 11.640625 -5.160156 12.328125 -5.734375 C 13.023438 -6.316406 13.640625 -6.925781 14.171875 -7.5625 L 15.34375 -5.703125 C 14.207031 -4.347656 12.8125 -3.175781 11.15625 -2.1875 C 9.5 -1.195312 7.703125 -0.382812 5.765625 0.25 C 5.648438 0.289062 5.503906 0.34375 5.328125 0.40625 C 5.160156 0.476562 4.972656 0.570312 4.765625 0.6875 Z M 4.765625 0.6875 "/></g></g></g><g fill="#ffde59" fill-opacity="1"><g transform="translate(117.771257, 19.069937)"><g><path d="M 8.34375 -9.828125 C 8.414062 -9.648438 8.515625 -9.398438 8.640625 -9.078125 C 8.765625 -8.753906 8.894531 -8.40625 9.03125 -8.03125 C 9.175781 -7.664062 9.304688 -7.316406 9.421875 -6.984375 C 9.546875 -6.648438 9.632812 -6.390625 9.6875 -6.203125 L 7.71875 -5.515625 C 7.664062 -5.710938 7.582031 -5.972656 7.46875 -6.296875 C 7.363281 -6.617188 7.242188 -6.960938 7.109375 -7.328125 C 6.984375 -7.691406 6.851562 -8.039062 6.71875 -8.375 C 6.59375 -8.707031 6.476562 -8.976562 6.375 -9.1875 Z M 12.109375 -9.359375 L 14.4375 -8.625 C 14.332031 -8.351562 14.253906 -8.125 14.203125 -7.9375 C 14.148438 -7.75 14.09375 -7.578125 14.03125 -7.421875 C 13.820312 -6.578125 13.535156 -5.738281 13.171875 -4.90625 C 12.816406 -4.082031 12.359375 -3.304688 11.796875 -2.578125 C 11.023438 -1.585938 10.148438 -0.75 9.171875 -0.0625 C 8.203125 0.625 7.234375 1.148438 6.265625 1.515625 L 4.53125 -0.25 C 5.132812 -0.414062 5.769531 -0.65625 6.4375 -0.96875 C 7.113281 -1.289062 7.765625 -1.679688 8.390625 -2.140625 C 9.015625 -2.609375 9.554688 -3.128906 10.015625 -3.703125 C 10.378906 -4.171875 10.707031 -4.710938 11 -5.328125 C 11.300781 -5.953125 11.546875 -6.609375 11.734375 -7.296875 C 11.929688 -7.992188 12.054688 -8.679688 12.109375 -9.359375 Z M 4.515625 -8.953125 C 4.609375 -8.742188 4.726562 -8.472656 4.875 -8.140625 C 5.019531 -7.804688 5.164062 -7.457031 5.3125 -7.09375 C 5.457031 -6.726562 5.59375 -6.375 5.71875 -6.03125 C 5.851562 -5.695312 5.960938 -5.414062 6.046875 -5.1875 L 4.03125 -4.421875 C 3.96875 -4.640625 3.867188 -4.925781 3.734375 -5.28125 C 3.609375 -5.632812 3.472656 -6.003906 3.328125 -6.390625 C 3.179688 -6.773438 3.035156 -7.132812 2.890625 -7.46875 C 2.742188 -7.8125 2.625 -8.066406 2.53125 -8.234375 Z M 4.515625 -8.953125 "/></g></g></g><g fill="#ffde59" fill-opacity="1"><g transform="translate(134.277659, 19.069937)"><g><path d="M 14.359375 -6.078125 L 13.40625 -3.796875 C 12.84375 -4.097656 12.210938 -4.398438 11.515625 -4.703125 C 10.816406 -5.003906 10.113281 -5.289062 9.40625 -5.5625 C 8.695312 -5.832031 8.046875 -6.066406 7.453125 -6.265625 L 7.453125 -1.578125 C 7.453125 -1.429688 7.457031 -1.21875 7.46875 -0.9375 C 7.488281 -0.65625 7.507812 -0.363281 7.53125 -0.0625 C 7.550781 0.226562 7.570312 0.484375 7.59375 0.703125 L 5.015625 0.703125 C 5.078125 0.390625 5.117188 0.015625 5.140625 -0.421875 C 5.171875 -0.867188 5.1875 -1.253906 5.1875 -1.578125 L 5.1875 -11.0625 C 5.1875 -11.363281 5.171875 -11.703125 5.140625 -12.078125 C 5.117188 -12.453125 5.078125 -12.78125 5.015625 -13.0625 L 7.59375 -13.0625 C 7.5625 -12.78125 7.53125 -12.460938 7.5 -12.109375 C 7.46875 -11.765625 7.453125 -11.414062 7.453125 -11.0625 L 7.453125 -8.640625 C 8.003906 -8.472656 8.597656 -8.28125 9.234375 -8.0625 C 9.878906 -7.851562 10.519531 -7.628906 11.15625 -7.390625 C 11.800781 -7.148438 12.398438 -6.914062 12.953125 -6.6875 C 13.515625 -6.46875 13.984375 -6.265625 14.359375 -6.078125 Z M 14.359375 -6.078125 "/></g></g></g><g fill="#ffde59" fill-opacity="1"><g transform="translate(1.496409, 18.339904)"><g><path d="M 13.707031 -12.96875 C 13.539062 -12.96875 13.394531 -12.914062 13.28125 -12.800781 C 13.167969 -12.691406 13.109375 -12.550781 13.109375 -12.386719 C 13.109375 -12.226562 13.167969 -12.089844 13.285156 -11.964844 C 13.402344 -11.847656 13.542969 -11.789062 13.707031 -11.789062 C 13.871094 -11.789062 14.007812 -11.847656 14.117188 -11.964844 C 14.234375 -12.085938 14.289062 -12.226562 14.289062 -12.386719 C 14.289062 -12.554688 14.234375 -12.695312 14.125 -12.804688 C 14.015625 -12.914062 13.875 -12.96875 13.707031 -12.96875 Z M 13.707031 -13.589844 C 14.046875 -13.589844 14.332031 -13.472656 14.5625 -13.242188 C 14.792969 -13.011719 14.910156 -12.726562 14.910156 -12.386719 C 14.910156 -12.0625 14.796875 -11.78125 14.570312 -11.539062 C 14.335938 -11.292969 14.050781 -11.167969 13.707031 -11.167969 C 13.367188 -11.167969 13.078125 -11.289062 12.839844 -11.535156 C 12.605469 -11.777344 12.488281 -12.0625 12.488281 -12.386719 C 12.488281 -12.726562 12.609375 -13.011719 12.847656 -13.246094 C 13.085938 -13.472656 13.371094 -13.589844 13.707031 -13.589844 Z M 13.707031 -10.160156 C 13.300781 -10.160156 12.925781 -10.261719 12.585938 -10.460938 C 12.246094 -10.65625 11.980469 -10.925781 11.78125 -11.265625 C 11.582031 -11.605469 11.484375 -11.976562 11.484375 -12.386719 C 11.484375 -12.796875 11.582031 -13.167969 11.78125 -13.503906 C 11.980469 -13.835938 12.246094 -14.101562 12.585938 -14.296875 C 12.925781 -14.496094 13.300781 -14.597656 13.707031 -14.597656 C 14.320312 -14.597656 14.84375 -14.382812 15.273438 -13.953125 C 15.703125 -13.523438 15.917969 -13 15.917969 -12.386719 C 15.917969 -11.976562 15.816406 -11.605469 15.617188 -11.265625 C 15.421875 -10.925781 15.15625 -10.660156 14.824219 -10.460938 C 14.488281 -10.261719 14.117188 -10.160156 13.707031 -10.160156 Z M 13.707031 -10.78125 C 14.003906 -10.78125 14.269531 -10.851562 14.507812 -10.992188 C 14.746094 -11.136719 14.941406 -11.332031 15.085938 -11.578125 C 15.226562 -11.820312 15.296875 -12.089844 15.296875 -12.386719 C 15.296875 -12.828125 15.144531 -13.207031 14.835938 -13.515625 C 14.527344 -13.820312 14.152344 -13.976562 13.707031 -13.976562 C 13.410156 -13.976562 13.140625 -13.90625 12.898438 -13.761719 C 12.652344 -13.617188 12.457031 -13.425781 12.3125 -13.1875 C 12.171875 -12.949219 12.101562 -12.683594 12.101562 -12.386719 C 12.101562 -12.089844 12.171875 -11.820312 12.316406 -11.578125 C 12.457031 -11.332031 12.652344 -11.136719 12.898438 -10.996094 C 13.140625 -10.851562 13.410156 -10.78125 13.707031 -10.78125 Z M 3.898438 -7.085938 L 6.054688 -6.074219 L 5.90625 -5.789062 C 5.714844 -5.417969 5.484375 -5.011719 5.210938 -4.570312 C 4.9375 -4.128906 4.652344 -3.691406 4.351562 -3.257812 C 4.050781 -2.824219 3.753906 -2.421875 3.464844 -2.046875 C 3.171875 -1.671875 2.90625 -1.355469 2.667969 -1.105469 L 2.488281 -0.917969 L 0.167969 -2.503906 L 0.449219 -2.769531 C 0.8125 -3.109375 1.183594 -3.523438 1.566406 -4 C 1.953125 -4.484375 2.316406 -4.980469 2.65625 -5.496094 C 2.996094 -6.007812 3.273438 -6.488281 3.484375 -6.9375 L 3.617188 -7.214844 Z M 3.632812 -6.523438 L 3.765625 -6.804688 L 4.046875 -6.671875 C 3.820312 -6.195312 3.527344 -5.691406 3.171875 -5.15625 C 2.820312 -4.625 2.445312 -4.109375 2.050781 -3.613281 C 1.652344 -3.113281 1.257812 -2.679688 0.871094 -2.316406 L 0.660156 -2.542969 L 0.835938 -2.800781 L 2.621094 -1.578125 L 2.445312 -1.320312 L 2.21875 -1.535156 C 2.445312 -1.769531 2.695312 -2.066406 2.976562 -2.429688 C 3.257812 -2.792969 3.546875 -3.1875 3.839844 -3.613281 C 4.136719 -4.035156 4.417969 -4.464844 4.683594 -4.894531 C 4.949219 -5.324219 5.171875 -5.714844 5.355469 -6.070312 L 5.632812 -5.929688 L 5.5 -5.648438 Z M 13.230469 -7.964844 L 9.363281 -7.964844 L 9.363281 -8.273438 L 9.675781 -8.273438 L 9.675781 -0.59375 C 9.675781 -0.0351562 9.503906 0.414062 9.164062 0.753906 C 8.820312 1.097656 8.316406 1.269531 7.648438 1.269531 C 7.199219 1.269531 6.738281 1.253906 6.265625 1.226562 C 5.792969 1.199219 5.34375 1.160156 4.921875 1.117188 L 4.671875 1.089844 L 4.410156 -1.617188 L 4.8125 -1.542969 C 5.15625 -1.480469 5.492188 -1.429688 5.820312 -1.398438 C 6.144531 -1.367188 6.402344 -1.351562 6.589844 -1.351562 C 6.667969 -1.351562 6.734375 -1.359375 6.78125 -1.371094 C 6.804688 -1.378906 6.820312 -1.386719 6.828125 -1.394531 C 6.863281 -1.429688 6.882812 -1.519531 6.890625 -1.652344 L 7.199219 -1.636719 L 6.890625 -1.636719 C 6.890625 -1.734375 6.894531 -1.949219 6.898438 -2.277344 C 6.90625 -2.597656 6.90625 -2.988281 6.90625 -3.445312 L 6.90625 -8.273438 L 7.21875 -8.273438 L 7.21875 -7.964844 L 3.023438 -7.964844 C 2.785156 -7.964844 2.519531 -7.960938 2.222656 -7.949219 C 1.933594 -7.9375 1.675781 -7.921875 1.449219 -7.898438 L 1.109375 -7.867188 L 1.109375 -10.757812 L 1.460938 -10.710938 C 1.710938 -10.679688 1.972656 -10.648438 2.25 -10.621094 C 2.523438 -10.597656 2.777344 -10.582031 3.023438 -10.582031 L 7.21875 -10.582031 L 7.21875 -10.273438 L 6.90625 -10.273438 L 6.90625 -11.59375 C 6.90625 -11.804688 6.890625 -12.050781 6.859375 -12.335938 C 6.828125 -12.621094 6.796875 -12.828125 6.765625 -12.960938 L 6.679688 -13.339844 L 9.871094 -13.339844 L 9.820312 -12.988281 C 9.808594 -12.910156 9.792969 -12.785156 9.769531 -12.613281 C 9.75 -12.4375 9.726562 -12.253906 9.707031 -12.0625 C 9.683594 -11.882812 9.675781 -11.726562 9.675781 -11.59375 L 9.675781 -10.273438 L 9.363281 -10.273438 L 9.363281 -10.582031 L 13.210938 -10.582031 C 13.4375 -10.582031 13.703125 -10.59375 14.015625 -10.613281 C 14.328125 -10.636719 14.582031 -10.664062 14.78125 -10.695312 L 15.140625 -10.75 L 15.140625 -7.886719 L 14.804688 -7.917969 C 14.558594 -7.9375 14.289062 -7.949219 14 -7.957031 C 13.703125 -7.960938 13.449219 -7.964844 13.230469 -7.964844 Z M 13.230469 -8.585938 C 13.453125 -8.585938 13.710938 -8.582031 14.011719 -8.574219 C 14.316406 -8.570312 14.597656 -8.554688 14.859375 -8.535156 L 14.832031 -8.226562 L 14.519531 -8.226562 L 14.519531 -10.386719 L 14.832031 -10.386719 L 14.878906 -10.082031 C 14.660156 -10.046875 14.386719 -10.019531 14.058594 -9.996094 C 13.734375 -9.972656 13.449219 -9.964844 13.210938 -9.964844 L 9.054688 -9.964844 L 9.054688 -11.59375 C 9.054688 -11.75 9.066406 -11.929688 9.089844 -12.132812 C 9.113281 -12.328125 9.132812 -12.511719 9.15625 -12.691406 C 9.179688 -12.867188 9.195312 -12.996094 9.207031 -13.074219 L 9.511719 -13.03125 L 9.511719 -12.722656 L 7.070312 -12.722656 L 7.070312 -13.03125 L 7.371094 -13.101562 C 7.40625 -12.945312 7.441406 -12.714844 7.476562 -12.40625 C 7.511719 -12.097656 7.527344 -11.824219 7.527344 -11.59375 L 7.527344 -9.964844 L 3.023438 -9.964844 C 2.757812 -9.964844 2.480469 -9.976562 2.191406 -10.003906 C 1.90625 -10.035156 1.636719 -10.0625 1.378906 -10.097656 L 1.421875 -10.40625 L 1.730469 -10.40625 L 1.730469 -8.207031 L 1.421875 -8.207031 L 1.390625 -8.515625 C 1.628906 -8.539062 1.898438 -8.554688 2.203125 -8.566406 C 2.503906 -8.578125 2.777344 -8.585938 3.023438 -8.585938 L 7.527344 -8.585938 L 7.527344 -3.445312 C 7.527344 -2.984375 7.523438 -2.59375 7.519531 -2.265625 C 7.511719 -1.941406 7.511719 -1.730469 7.511719 -1.636719 L 7.511719 -1.617188 C 7.496094 -1.335938 7.417969 -1.117188 7.277344 -0.96875 C 7.128906 -0.808594 6.898438 -0.730469 6.589844 -0.730469 C 6.382812 -0.730469 6.105469 -0.746094 5.757812 -0.78125 C 5.414062 -0.816406 5.0625 -0.867188 4.699219 -0.933594 L 4.757812 -1.238281 L 5.066406 -1.269531 L 5.261719 0.78125 L 4.953125 0.808594 L 4.988281 0.5 C 5.402344 0.542969 5.839844 0.582031 6.300781 0.609375 C 6.765625 0.632812 7.210938 0.648438 7.648438 0.648438 C 8.144531 0.648438 8.503906 0.539062 8.722656 0.316406 C 8.945312 0.0976562 9.054688 -0.207031 9.054688 -0.59375 L 9.054688 -8.585938 Z M 10.785156 -6.152344 L 12.816406 -7.25 L 12.976562 -7.046875 C 13.1875 -6.777344 13.425781 -6.457031 13.6875 -6.082031 C 13.949219 -5.710938 14.214844 -5.320312 14.480469 -4.910156 C 14.746094 -4.496094 14.996094 -4.09375 15.230469 -3.699219 C 15.460938 -3.308594 15.660156 -2.960938 15.828125 -2.660156 L 15.980469 -2.386719 L 13.472656 -1.027344 L 13.332031 -1.316406 C 13.101562 -1.785156 12.832031 -2.292969 12.515625 -2.84375 C 12.199219 -3.394531 11.878906 -3.929688 11.554688 -4.441406 C 11.234375 -4.949219 10.949219 -5.363281 10.691406 -5.6875 L 10.460938 -5.976562 Z M 11.082031 -5.605469 L 10.933594 -5.878906 L 11.175781 -6.074219 C 11.445312 -5.734375 11.75 -5.300781 12.078125 -4.773438 C 12.40625 -4.25 12.730469 -3.710938 13.050781 -3.152344 C 13.375 -2.589844 13.652344 -2.070312 13.886719 -1.589844 L 13.609375 -1.453125 L 13.460938 -1.726562 L 15.410156 -2.78125 L 15.558594 -2.511719 L 15.285156 -2.359375 C 15.125 -2.65625 14.925781 -2.996094 14.695312 -3.386719 C 14.46875 -3.773438 14.222656 -4.167969 13.960938 -4.570312 C 13.699219 -4.976562 13.4375 -5.359375 13.183594 -5.726562 C 12.925781 -6.089844 12.695312 -6.402344 12.492188 -6.660156 L 12.734375 -6.855469 L 12.882812 -6.582031 Z M 11.082031 -5.605469 "/></g></g></g><g fill="#ffde59" fill-opacity="1"><g transform="translate(18.002811, 18.339904)"><g><path d="M 10.550781 -8.191406 L 10.550781 -1.4375 C 10.550781 -1.199219 10.554688 -0.941406 10.566406 -0.664062 C 10.578125 -0.390625 10.59375 -0.128906 10.613281 0.113281 C 10.636719 0.347656 10.660156 0.527344 10.691406 0.65625 L 10.777344 1.035156 L 7.414062 1.035156 L 7.472656 0.675781 C 7.492188 0.554688 7.511719 0.375 7.527344 0.136719 C 7.542969 -0.109375 7.558594 -0.371094 7.570312 -0.65625 C 7.578125 -0.9375 7.585938 -1.199219 7.585938 -1.4375 L 7.585938 -6.855469 L 7.894531 -6.855469 L 8.035156 -6.578125 C 7.179688 -6.144531 6.25 -5.726562 5.253906 -5.320312 C 4.25 -4.914062 3.265625 -4.578125 2.296875 -4.308594 L 2.066406 -4.246094 L 0.539062 -6.835938 L 0.957031 -6.925781 C 1.914062 -7.132812 2.84375 -7.394531 3.746094 -7.714844 C 4.648438 -8.035156 5.496094 -8.386719 6.285156 -8.761719 C 7.070312 -9.136719 7.769531 -9.507812 8.378906 -9.875 C 8.929688 -10.222656 9.46875 -10.601562 10 -11.011719 C 10.53125 -11.425781 11.023438 -11.847656 11.476562 -12.289062 C 11.929688 -12.722656 12.304688 -13.136719 12.601562 -13.53125 L 12.804688 -13.800781 L 15.066406 -11.753906 L 14.835938 -11.523438 C 14.199219 -10.890625 13.511719 -10.265625 12.765625 -9.652344 C 12.019531 -9.039062 11.234375 -8.464844 10.410156 -7.933594 L 10.238281 -8.191406 Z M 9.929688 -8.191406 L 9.929688 -8.359375 L 10.070312 -8.453125 C 10.875 -8.972656 11.644531 -9.535156 12.371094 -10.132812 C 13.101562 -10.730469 13.777344 -11.339844 14.398438 -11.960938 L 14.617188 -11.742188 L 14.410156 -11.511719 L 12.640625 -13.117188 L 12.847656 -13.34375 L 13.097656 -13.15625 C 12.777344 -12.738281 12.382812 -12.300781 11.90625 -11.839844 C 11.4375 -11.386719 10.929688 -10.949219 10.378906 -10.523438 C 9.832031 -10.097656 9.273438 -9.707031 8.699219 -9.347656 C 8.074219 -8.96875 7.355469 -8.585938 6.550781 -8.199219 C 5.742188 -7.816406 4.875 -7.460938 3.953125 -7.132812 C 3.027344 -6.800781 2.070312 -6.53125 1.089844 -6.320312 L 1.023438 -6.621094 L 1.289062 -6.78125 L 2.480469 -4.765625 L 2.214844 -4.609375 L 2.128906 -4.90625 C 3.078125 -5.167969 4.039062 -5.496094 5.019531 -5.894531 C 6.003906 -6.292969 6.914062 -6.703125 7.753906 -7.128906 L 8.203125 -7.359375 L 8.203125 -1.4375 C 8.203125 -1.191406 8.199219 -0.921875 8.1875 -0.632812 C 8.175781 -0.34375 8.164062 -0.0742188 8.144531 0.175781 C 8.128906 0.433594 8.109375 0.636719 8.085938 0.777344 L 7.777344 0.726562 L 7.777344 0.417969 L 10.386719 0.417969 L 10.386719 0.726562 L 10.085938 0.796875 C 10.050781 0.640625 10.019531 0.429688 9.996094 0.167969 C 9.976562 -0.0859375 9.957031 -0.355469 9.945312 -0.640625 C 9.9375 -0.925781 9.929688 -1.191406 9.929688 -1.4375 Z M 9.929688 -8.191406 "/></g></g></g><g fill="#ffde59" fill-opacity="1"><g transform="translate(34.509213, 18.339904)"><g><path d="M 4.15625 -12.804688 C 4.445312 -12.605469 4.785156 -12.359375 5.175781 -12.0625 C 5.5625 -11.769531 5.964844 -11.457031 6.378906 -11.125 C 6.796875 -10.792969 7.183594 -10.46875 7.546875 -10.152344 C 7.910156 -9.832031 8.214844 -9.539062 8.464844 -9.28125 L 8.671875 -9.066406 L 6.546875 -6.878906 L 6.328125 -7.125 C 6.125 -7.351562 5.855469 -7.621094 5.519531 -7.933594 C 5.179688 -8.25 4.816406 -8.578125 4.421875 -8.914062 C 4.027344 -9.253906 3.640625 -9.578125 3.257812 -9.882812 C 2.878906 -10.1875 2.542969 -10.441406 2.25 -10.648438 L 1.957031 -10.851562 L 3.9375 -12.957031 Z M 3.804688 -12.296875 L 3.980469 -12.550781 L 4.207031 -12.339844 L 2.652344 -10.6875 L 2.429688 -10.898438 L 2.605469 -11.152344 C 2.910156 -10.941406 3.253906 -10.679688 3.644531 -10.367188 C 4.035156 -10.054688 4.425781 -9.726562 4.828125 -9.382812 C 5.226562 -9.039062 5.597656 -8.707031 5.941406 -8.386719 C 6.289062 -8.058594 6.570312 -7.777344 6.785156 -7.539062 L 6.558594 -7.332031 L 6.335938 -7.546875 L 8.019531 -9.28125 L 8.242188 -9.066406 L 8.015625 -8.851562 C 7.78125 -9.101562 7.488281 -9.378906 7.136719 -9.683594 C 6.78125 -9.996094 6.402344 -10.316406 5.992188 -10.640625 C 5.582031 -10.96875 5.183594 -11.28125 4.800781 -11.570312 C 4.417969 -11.859375 4.085938 -12.101562 3.804688 -12.296875 Z M 1.871094 -1.859375 C 3.136719 -2.042969 4.292969 -2.328125 5.335938 -2.710938 C 6.378906 -3.09375 7.296875 -3.519531 8.085938 -3.984375 C 9 -4.53125 9.84375 -5.15625 10.609375 -5.851562 C 11.375 -6.550781 12.046875 -7.28125 12.617188 -8.046875 C 13.1875 -8.8125 13.640625 -9.550781 13.972656 -10.269531 L 14.226562 -10.824219 L 15.894531 -7.808594 L 15.8125 -7.660156 C 15.171875 -6.523438 14.3125 -5.40625 13.234375 -4.308594 C 12.160156 -3.210938 10.945312 -2.253906 9.589844 -1.4375 C 8.738281 -0.921875 7.785156 -0.449219 6.730469 -0.0195312 C 5.671875 0.414062 4.542969 0.730469 3.355469 0.933594 L 3.152344 0.96875 L 1.398438 -1.789062 Z M 1.960938 -1.246094 L 1.914062 -1.550781 L 2.175781 -1.71875 L 3.5625 0.460938 L 3.304688 0.628906 L 3.25 0.320312 C 4.394531 0.128906 5.476562 -0.175781 6.496094 -0.59375 C 7.523438 -1.011719 8.449219 -1.46875 9.269531 -1.964844 C 10.582031 -2.757812 11.753906 -3.683594 12.792969 -4.742188 C 13.832031 -5.800781 14.65625 -6.875 15.273438 -7.964844 L 15.542969 -7.8125 L 15.269531 -7.660156 L 13.980469 -9.992188 L 14.253906 -10.140625 L 14.535156 -10.011719 C 14.183594 -9.253906 13.710938 -8.476562 13.113281 -7.675781 C 12.519531 -6.878906 11.824219 -6.117188 11.027344 -5.394531 C 10.230469 -4.671875 9.351562 -4.023438 8.398438 -3.449219 C 7.578125 -2.964844 6.628906 -2.527344 5.550781 -2.128906 C 4.464844 -1.730469 3.269531 -1.4375 1.960938 -1.246094 Z M 1.960938 -1.246094 "/></g></g></g><g fill="#ffde59" fill-opacity="1"><g transform="translate(51.015615, 18.339904)"><g><path d="M 14.636719 -5.960938 L 13.566406 -3.367188 L 13.265625 -3.523438 C 12.710938 -3.820312 12.089844 -4.113281 11.398438 -4.414062 C 10.703125 -4.714844 10 -5 9.296875 -5.269531 C 8.589844 -5.535156 7.941406 -5.769531 7.351562 -5.964844 L 7.449219 -6.257812 L 7.757812 -6.257812 L 7.757812 -1.585938 C 7.757812 -1.4375 7.765625 -1.226562 7.78125 -0.953125 C 7.800781 -0.671875 7.816406 -0.382812 7.839844 -0.0898438 C 7.863281 0.207031 7.882812 0.460938 7.90625 0.679688 L 7.941406 1.019531 L 4.652344 1.019531 L 4.714844 0.65625 C 4.769531 0.347656 4.808594 -0.0195312 4.835938 -0.449219 C 4.863281 -0.882812 4.875 -1.261719 4.875 -1.585938 L 4.875 -11.066406 C 4.875 -11.355469 4.863281 -11.683594 4.835938 -12.050781 C 4.808594 -12.414062 4.769531 -12.730469 4.714844 -13.003906 L 4.644531 -13.375 L 7.945312 -13.375 L 7.90625 -13.027344 C 7.871094 -12.746094 7.839844 -12.429688 7.804688 -12.085938 C 7.773438 -11.746094 7.757812 -11.40625 7.757812 -11.066406 L 7.757812 -8.636719 L 7.449219 -8.636719 L 7.539062 -8.933594 C 8.089844 -8.769531 8.691406 -8.578125 9.339844 -8.363281 C 9.984375 -8.144531 10.628906 -7.917969 11.273438 -7.679688 C 11.914062 -7.445312 12.515625 -7.210938 13.074219 -6.984375 C 13.636719 -6.753906 14.109375 -6.546875 14.492188 -6.355469 L 14.75 -6.226562 Z M 14.066406 -6.195312 L 14.351562 -6.078125 L 14.214844 -5.800781 C 13.847656 -5.984375 13.386719 -6.1875 12.839844 -6.410156 C 12.285156 -6.632812 11.691406 -6.863281 11.058594 -7.101562 C 10.421875 -7.335938 9.785156 -7.558594 9.144531 -7.773438 C 8.5 -7.988281 7.90625 -8.175781 7.359375 -8.339844 L 7.140625 -8.40625 L 7.140625 -11.066406 C 7.140625 -11.425781 7.15625 -11.785156 7.191406 -12.144531 C 7.222656 -12.492188 7.257812 -12.8125 7.289062 -13.097656 L 7.597656 -13.0625 L 7.597656 -12.753906 L 5.019531 -12.753906 L 5.019531 -13.0625 L 5.324219 -13.121094 C 5.382812 -12.824219 5.425781 -12.480469 5.453125 -12.097656 C 5.480469 -11.714844 5.496094 -11.371094 5.496094 -11.066406 L 5.496094 -1.585938 C 5.496094 -1.25 5.480469 -0.855469 5.453125 -0.410156 C 5.425781 0.0429688 5.382812 0.433594 5.324219 0.761719 L 5.019531 0.710938 L 5.019531 0.402344 L 7.597656 0.402344 L 7.597656 0.710938 L 7.289062 0.742188 C 7.265625 0.519531 7.246094 0.257812 7.222656 -0.0429688 C 7.199219 -0.34375 7.179688 -0.632812 7.164062 -0.914062 C 7.148438 -1.203125 7.140625 -1.425781 7.140625 -1.585938 L 7.140625 -6.6875 L 7.546875 -6.554688 C 8.144531 -6.355469 8.800781 -6.117188 9.515625 -5.847656 C 10.230469 -5.574219 10.9375 -5.289062 11.644531 -4.984375 C 12.347656 -4.675781 12.988281 -4.375 13.554688 -4.074219 L 13.410156 -3.796875 L 13.125 -3.917969 Z M 14.066406 -6.195312 "/></g></g></g><g fill="#ffde59" fill-opacity="1"><g transform="translate(67.522017, 18.339904)"><g><path d="M 2.503906 0.984375 L 0.113281 -0.601562 L 0.480469 -0.863281 C 1.175781 -1.359375 1.742188 -1.941406 2.175781 -2.613281 C 2.617188 -3.296875 2.949219 -3.976562 3.175781 -4.65625 C 3.289062 -4.988281 3.375 -5.410156 3.433594 -5.921875 C 3.492188 -6.449219 3.539062 -7.019531 3.570312 -7.628906 C 3.605469 -8.242188 3.625 -8.847656 3.628906 -9.449219 C 3.636719 -10.054688 3.636719 -10.605469 3.636719 -11.097656 C 3.636719 -11.417969 3.628906 -11.691406 3.605469 -11.921875 C 3.585938 -12.140625 3.550781 -12.339844 3.5 -12.519531 L 3.390625 -12.910156 L 6.65625 -12.910156 L 6.519531 -12.503906 C 6.515625 -12.492188 6.5 -12.34375 6.46875 -12.054688 C 6.4375 -11.757812 6.421875 -11.445312 6.421875 -11.113281 C 6.421875 -10.628906 6.414062 -10.066406 6.402344 -9.425781 C 6.394531 -8.785156 6.371094 -8.121094 6.335938 -7.441406 C 6.304688 -6.757812 6.253906 -6.113281 6.1875 -5.507812 C 6.121094 -4.890625 6.027344 -4.367188 5.914062 -3.933594 C 5.664062 -2.96875 5.28125 -2.074219 4.761719 -1.246094 C 4.246094 -0.421875 3.617188 0.3125 2.878906 0.960938 L 2.703125 1.117188 Z M 2.847656 0.46875 L 2.675781 0.726562 L 2.472656 0.492188 C 3.164062 -0.113281 3.753906 -0.804688 4.238281 -1.578125 C 4.722656 -2.347656 5.082031 -3.1875 5.316406 -4.09375 C 5.421875 -4.496094 5.507812 -4.988281 5.570312 -5.574219 C 5.636719 -6.167969 5.6875 -6.800781 5.71875 -7.472656 C 5.75 -8.144531 5.773438 -8.800781 5.785156 -9.4375 C 5.796875 -10.074219 5.800781 -10.632812 5.800781 -11.113281 C 5.800781 -11.46875 5.816406 -11.804688 5.851562 -12.121094 C 5.886719 -12.453125 5.914062 -12.644531 5.933594 -12.699219 L 6.226562 -12.601562 L 6.226562 -12.292969 L 3.796875 -12.292969 L 3.796875 -12.601562 L 4.097656 -12.683594 C 4.15625 -12.46875 4.199219 -12.234375 4.222656 -11.976562 C 4.246094 -11.730469 4.257812 -11.4375 4.257812 -11.097656 C 4.257812 -10.601562 4.253906 -10.050781 4.25 -9.445312 C 4.242188 -8.835938 4.222656 -8.21875 4.191406 -7.597656 C 4.15625 -6.972656 4.109375 -6.394531 4.046875 -5.851562 C 3.984375 -5.296875 3.890625 -4.832031 3.761719 -4.460938 C 3.523438 -3.730469 3.167969 -3.003906 2.695312 -2.277344 C 2.21875 -1.539062 1.597656 -0.898438 0.839844 -0.359375 L 0.660156 -0.609375 L 0.832031 -0.867188 Z M 9.480469 1.015625 L 7.964844 -0.246094 L 8.003906 -0.429688 C 8.035156 -0.574219 8.066406 -0.753906 8.089844 -0.964844 C 8.117188 -1.171875 8.128906 -1.378906 8.128906 -1.585938 L 8.128906 -11.214844 C 8.128906 -11.574219 8.113281 -11.882812 8.074219 -12.144531 C 8.054688 -12.28125 8.039062 -12.382812 8.027344 -12.457031 C 8.023438 -12.488281 8.019531 -12.511719 8.015625 -12.53125 C 8.015625 -12.535156 8.011719 -12.539062 8.011719 -12.539062 C 8.015625 -12.527344 8.023438 -12.511719 8.03125 -12.496094 L 7.804688 -12.945312 L 11.269531 -12.945312 L 11.046875 -12.496094 C 11.054688 -12.511719 11.058594 -12.53125 11.0625 -12.542969 C 11.0625 -12.542969 11.0625 -12.539062 11.0625 -12.535156 C 11.058594 -12.519531 11.054688 -12.492188 11.050781 -12.460938 C 11.039062 -12.386719 11.027344 -12.28125 11.011719 -12.144531 C 10.976562 -11.875 10.960938 -11.558594 10.960938 -11.199219 L 10.960938 -2.558594 L 10.652344 -2.558594 L 10.527344 -2.84375 C 10.960938 -3.035156 11.410156 -3.292969 11.878906 -3.621094 C 12.347656 -3.953125 12.8125 -4.34375 13.269531 -4.789062 C 13.722656 -5.230469 14.125 -5.707031 14.476562 -6.21875 L 14.730469 -6.589844 L 16.386719 -4.21875 L 16.25 -4.039062 C 15.785156 -3.429688 15.230469 -2.832031 14.574219 -2.246094 C 13.925781 -1.664062 13.25 -1.132812 12.542969 -0.652344 C 11.839844 -0.171875 11.175781 0.230469 10.546875 0.554688 C 10.386719 0.636719 10.265625 0.707031 10.183594 0.773438 C 10.085938 0.847656 9.980469 0.929688 9.871094 1.019531 L 9.675781 1.175781 Z M 9.875 0.539062 L 9.679688 0.777344 L 9.484375 0.535156 C 9.597656 0.445312 9.703125 0.363281 9.800781 0.285156 C 9.917969 0.195312 10.070312 0.101562 10.261719 0.00390625 C 10.867188 -0.308594 11.511719 -0.699219 12.195312 -1.164062 C 12.878906 -1.628906 13.535156 -2.144531 14.160156 -2.707031 C 14.785156 -3.265625 15.316406 -3.835938 15.757812 -4.414062 L 16.003906 -4.226562 L 15.75 -4.050781 L 14.476562 -5.867188 L 14.730469 -6.042969 L 14.988281 -5.871094 C 14.613281 -5.324219 14.183594 -4.816406 13.703125 -4.34375 C 13.222656 -3.875 12.734375 -3.46875 12.234375 -3.117188 C 11.734375 -2.761719 11.246094 -2.484375 10.777344 -2.277344 L 10.34375 -2.085938 L 10.34375 -11.199219 C 10.34375 -11.585938 10.359375 -11.921875 10.394531 -12.214844 C 10.433594 -12.53125 10.464844 -12.71875 10.492188 -12.773438 L 10.769531 -12.632812 L 10.769531 -12.324219 L 8.308594 -12.324219 L 8.308594 -12.632812 L 8.585938 -12.773438 C 8.609375 -12.722656 8.644531 -12.539062 8.6875 -12.230469 C 8.730469 -11.941406 8.75 -11.601562 8.75 -11.214844 L 8.75 -1.585938 C 8.75 -1.351562 8.734375 -1.121094 8.707031 -0.886719 C 8.675781 -0.65625 8.644531 -0.460938 8.609375 -0.296875 L 8.308594 -0.363281 L 8.503906 -0.601562 Z M 9.875 0.539062 "/></g></g></g><g fill="#ffde59" fill-opacity="1"><g transform="translate(84.028419, 18.339904)"><g><path d="M 1.210938 -5.054688 L 1.210938 -7.972656 L 2.296875 -7.914062 C 2.601562 -7.898438 2.921875 -7.882812 3.253906 -7.875 C 3.589844 -7.863281 3.894531 -7.855469 4.179688 -7.855469 L 13.046875 -7.855469 C 13.425781 -7.855469 13.78125 -7.871094 14.121094 -7.898438 C 14.472656 -7.925781 14.75 -7.945312 14.964844 -7.957031 L 15.289062 -7.972656 L 15.289062 -4.726562 L 14.109375 -4.792969 C 13.75 -4.816406 13.394531 -4.828125 13.046875 -4.828125 L 4.179688 -4.828125 C 3.707031 -4.828125 3.226562 -4.820312 2.734375 -4.800781 C 2.242188 -4.785156 1.847656 -4.765625 1.542969 -4.746094 L 1.210938 -4.722656 Z M 1.828125 -5.054688 L 1.519531 -5.054688 L 1.496094 -5.363281 C 1.808594 -5.386719 2.214844 -5.40625 2.714844 -5.421875 C 3.214844 -5.4375 3.703125 -5.445312 4.179688 -5.445312 L 13.046875 -5.445312 C 13.40625 -5.445312 13.773438 -5.433594 14.148438 -5.414062 L 14.996094 -5.363281 L 14.980469 -5.054688 L 14.671875 -5.054688 L 14.671875 -7.648438 L 14.980469 -7.648438 L 14.996094 -7.335938 C 14.789062 -7.328125 14.515625 -7.308594 14.171875 -7.28125 C 13.816406 -7.253906 13.441406 -7.238281 13.046875 -7.238281 L 4.179688 -7.238281 C 3.890625 -7.238281 3.574219 -7.242188 3.234375 -7.253906 C 2.898438 -7.265625 2.574219 -7.28125 2.261719 -7.296875 L 1.503906 -7.335938 L 1.519531 -7.648438 L 1.828125 -7.648438 Z M 1.828125 -5.054688 "/></g></g></g><g fill="#ffde59" fill-opacity="1"><g transform="translate(100.534821, 18.339904)"><g><path d="M 4.570312 0.925781 L 2.839844 -0.582031 L 2.941406 -0.792969 C 3.027344 -0.972656 3.078125 -1.128906 3.09375 -1.257812 C 3.117188 -1.402344 3.125 -1.5625 3.125 -1.734375 L 3.125 -10.6875 C 3.125 -10.996094 3.109375 -11.320312 3.078125 -11.65625 C 3.046875 -11.988281 3.003906 -12.261719 2.953125 -12.480469 L 2.863281 -12.863281 L 6.203125 -12.863281 L 6.152344 -12.507812 C 6.109375 -12.203125 6.070312 -11.898438 6.039062 -11.59375 C 6.007812 -11.296875 5.992188 -10.992188 5.992188 -10.6875 L 5.992188 -2.113281 L 5.679688 -2.113281 L 5.597656 -2.414062 C 6.253906 -2.59375 6.957031 -2.859375 7.707031 -3.203125 C 8.460938 -3.550781 9.21875 -3.957031 9.980469 -4.425781 C 10.738281 -4.890625 11.457031 -5.410156 12.140625 -5.976562 C 12.816406 -6.542969 13.414062 -7.136719 13.933594 -7.761719 L 14.203125 -8.089844 L 15.726562 -5.671875 L 15.582031 -5.5 C 14.425781 -4.117188 13.003906 -2.925781 11.316406 -1.921875 C 9.636719 -0.925781 7.820312 -0.105469 5.859375 0.542969 L 5.765625 0.246094 L 5.878906 0.535156 C 5.765625 0.582031 5.621094 0.636719 5.441406 0.703125 C 5.285156 0.761719 5.117188 0.847656 4.933594 0.957031 L 4.742188 1.078125 Z M 4.976562 0.460938 L 4.773438 0.695312 L 4.613281 0.429688 C 4.828125 0.296875 5.03125 0.195312 5.226562 0.121094 C 5.398438 0.0585938 5.539062 0.00390625 5.648438 -0.0390625 L 5.65625 -0.0429688 L 5.667969 -0.046875 C 7.582031 -0.679688 9.359375 -1.480469 11 -2.453125 C 12.625 -3.421875 13.992188 -4.570312 15.105469 -5.898438 L 15.34375 -5.699219 L 15.082031 -5.53125 L 13.910156 -7.398438 L 14.171875 -7.5625 L 14.410156 -7.367188 C 13.867188 -6.714844 13.242188 -6.089844 12.535156 -5.5 C 11.832031 -4.914062 11.085938 -4.378906 10.304688 -3.898438 C 9.523438 -3.417969 8.742188 -3 7.964844 -2.640625 C 7.1875 -2.28125 6.453125 -2.007812 5.765625 -1.816406 L 5.371094 -1.707031 L 5.371094 -10.6875 C 5.371094 -11.015625 5.390625 -11.339844 5.421875 -11.660156 C 5.457031 -11.972656 5.496094 -12.285156 5.539062 -12.597656 L 5.847656 -12.550781 L 5.847656 -12.242188 L 3.253906 -12.242188 L 3.253906 -12.550781 L 3.554688 -12.625 C 3.613281 -12.378906 3.660156 -12.074219 3.695312 -11.714844 C 3.726562 -11.359375 3.746094 -11.015625 3.746094 -10.6875 L 3.746094 -1.734375 C 3.746094 -1.53125 3.734375 -1.34375 3.710938 -1.171875 C 3.683594 -0.980469 3.613281 -0.765625 3.5 -0.527344 L 3.21875 -0.660156 L 3.425781 -0.894531 Z M 4.976562 0.460938 "/></g></g></g><g fill="#ffde59" fill-opacity="1"><g transform="translate(117.041224, 18.339904)"><g><path d="M 8.625 -9.949219 C 8.703125 -9.769531 8.804688 -9.515625 8.933594 -9.1875 C 9.0625 -8.863281 9.195312 -8.511719 9.332031 -8.144531 L 9.722656 -7.09375 C 9.84375 -6.757812 9.933594 -6.492188 9.992188 -6.296875 L 10.074219 -6.015625 L 7.484375 -5.109375 L 7.410156 -5.449219 C 7.367188 -5.636719 7.292969 -5.886719 7.1875 -6.203125 C 7.078125 -6.523438 6.957031 -6.867188 6.828125 -7.226562 C 6.695312 -7.585938 6.566406 -7.929688 6.433594 -8.257812 C 6.304688 -8.582031 6.191406 -8.847656 6.09375 -9.050781 L 5.945312 -9.367188 L 8.511719 -10.207031 Z M 8.058594 -9.703125 L 8.339844 -9.828125 L 8.4375 -9.53125 L 6.472656 -8.886719 L 6.375 -9.183594 L 6.65625 -9.316406 C 6.757812 -9.101562 6.875 -8.824219 7.007812 -8.488281 C 7.144531 -8.15625 7.277344 -7.804688 7.410156 -7.4375 C 7.542969 -7.074219 7.664062 -6.726562 7.773438 -6.398438 C 7.886719 -6.066406 7.96875 -5.792969 8.015625 -5.582031 L 7.710938 -5.515625 L 7.609375 -5.808594 L 9.59375 -6.503906 L 9.695312 -6.210938 L 9.398438 -6.121094 C 9.34375 -6.304688 9.257812 -6.554688 9.140625 -6.878906 L 8.753906 -7.925781 C 8.613281 -8.292969 8.484375 -8.640625 8.355469 -8.964844 C 8.230469 -9.285156 8.132812 -9.53125 8.058594 -9.703125 Z M 12.199219 -9.660156 L 14.839844 -8.816406 L 14.726562 -8.511719 C 14.628906 -8.253906 14.554688 -8.035156 14.5 -7.855469 C 14.445312 -7.664062 14.386719 -7.484375 14.332031 -7.316406 L 14.039062 -7.414062 L 14.339844 -7.339844 C 14.125 -6.488281 13.832031 -5.636719 13.464844 -4.789062 C 13.089844 -3.933594 12.613281 -3.132812 12.039062 -2.386719 C 11.246094 -1.371094 10.351562 -0.511719 9.351562 0.195312 C 8.355469 0.898438 7.363281 1.4375 6.367188 1.808594 L 6.179688 1.878906 L 3.933594 -0.40625 L 4.445312 -0.546875 C 5.03125 -0.707031 5.652344 -0.941406 6.308594 -1.253906 C 6.960938 -1.566406 7.59375 -1.945312 8.207031 -2.394531 C 8.8125 -2.84375 9.332031 -3.339844 9.765625 -3.890625 C 10.125 -4.347656 10.445312 -4.871094 10.726562 -5.46875 C 11.011719 -6.066406 11.25 -6.707031 11.4375 -7.382812 C 11.625 -8.058594 11.742188 -8.726562 11.796875 -9.390625 L 11.828125 -9.777344 Z M 12.011719 -9.070312 L 12.105469 -9.363281 L 12.414062 -9.339844 C 12.359375 -8.636719 12.230469 -7.929688 12.03125 -7.21875 C 11.835938 -6.507812 11.585938 -5.835938 11.289062 -5.203125 C 10.984375 -4.5625 10.640625 -4 10.25 -3.507812 C 9.78125 -2.914062 9.222656 -2.375 8.574219 -1.898438 C 7.929688 -1.421875 7.261719 -1.023438 6.574219 -0.695312 C 5.886719 -0.367188 5.230469 -0.117188 4.605469 0.0507812 L 4.523438 -0.246094 L 4.746094 -0.464844 L 6.480469 1.300781 L 6.257812 1.519531 L 6.152344 1.230469 C 7.09375 0.875 8.042969 0.363281 8.996094 -0.3125 C 9.945312 -0.980469 10.796875 -1.800781 11.546875 -2.765625 C 12.09375 -3.472656 12.542969 -4.230469 12.894531 -5.039062 C 13.253906 -5.851562 13.53125 -6.671875 13.738281 -7.492188 L 13.742188 -7.503906 L 13.746094 -7.511719 C 13.796875 -7.675781 13.851562 -7.847656 13.90625 -8.03125 C 13.964844 -8.226562 14.042969 -8.457031 14.144531 -8.730469 L 14.433594 -8.621094 L 14.339844 -8.324219 Z M 4.789062 -9.085938 C 4.890625 -8.871094 5.011719 -8.597656 5.15625 -8.265625 C 5.300781 -7.933594 5.449219 -7.582031 5.597656 -7.210938 L 6.019531 -6.152344 C 6.152344 -5.808594 6.261719 -5.519531 6.339844 -5.285156 L 6.433594 -5 L 3.828125 -4.019531 L 3.734375 -4.335938 C 3.667969 -4.550781 3.574219 -4.832031 3.449219 -5.179688 C 3.324219 -5.53125 3.1875 -5.898438 3.039062 -6.28125 C 2.890625 -6.664062 2.746094 -7.019531 2.605469 -7.351562 C 2.464844 -7.675781 2.351562 -7.921875 2.257812 -8.089844 L 2.078125 -8.410156 L 4.667969 -9.335938 Z M 4.230469 -8.820312 L 4.507812 -8.953125 L 4.613281 -8.660156 L 2.632812 -7.949219 L 2.527344 -8.242188 L 2.796875 -8.394531 C 2.902344 -8.207031 3.027344 -7.941406 3.175781 -7.59375 C 3.320312 -7.253906 3.46875 -6.890625 3.617188 -6.503906 C 3.765625 -6.117188 3.90625 -5.746094 4.03125 -5.390625 C 4.160156 -5.03125 4.257812 -4.742188 4.328125 -4.515625 L 4.03125 -4.425781 L 3.921875 -4.714844 L 5.933594 -5.476562 L 6.042969 -5.1875 L 5.75 -5.089844 C 5.675781 -5.3125 5.574219 -5.59375 5.441406 -5.921875 L 5.023438 -6.976562 C 4.875 -7.34375 4.730469 -7.691406 4.589844 -8.019531 C 4.445312 -8.347656 4.328125 -8.613281 4.230469 -8.820312 Z M 4.230469 -8.820312 "/></g></g></g><g fill="#ffde59" fill-opacity="1"><g transform="translate(133.547626, 18.339904)"><g><path d="M 14.636719 -5.960938 L 13.566406 -3.367188 L 13.265625 -3.523438 C 12.710938 -3.820312 12.089844 -4.113281 11.398438 -4.414062 C 10.703125 -4.714844 10 -5 9.296875 -5.269531 C 8.589844 -5.535156 7.941406 -5.769531 7.351562 -5.964844 L 7.449219 -6.257812 L 7.757812 -6.257812 L 7.757812 -1.585938 C 7.757812 -1.4375 7.765625 -1.226562 7.78125 -0.953125 C 7.800781 -0.671875 7.816406 -0.382812 7.839844 -0.0898438 C 7.863281 0.207031 7.882812 0.460938 7.90625 0.679688 L 7.941406 1.019531 L 4.652344 1.019531 L 4.714844 0.65625 C 4.769531 0.347656 4.808594 -0.0195312 4.835938 -0.449219 C 4.863281 -0.882812 4.875 -1.261719 4.875 -1.585938 L 4.875 -11.066406 C 4.875 -11.355469 4.863281 -11.683594 4.835938 -12.050781 C 4.808594 -12.414062 4.769531 -12.730469 4.714844 -13.003906 L 4.644531 -13.375 L 7.945312 -13.375 L 7.90625 -13.027344 C 7.871094 -12.746094 7.839844 -12.429688 7.804688 -12.085938 C 7.773438 -11.746094 7.757812 -11.40625 7.757812 -11.066406 L 7.757812 -8.636719 L 7.449219 -8.636719 L 7.539062 -8.933594 C 8.089844 -8.769531 8.691406 -8.578125 9.339844 -8.363281 C 9.984375 -8.144531 10.628906 -7.917969 11.273438 -7.679688 C 11.914062 -7.445312 12.515625 -7.210938 13.074219 -6.984375 C 13.636719 -6.753906 14.109375 -6.546875 14.492188 -6.355469 L 14.75 -6.226562 Z M 14.066406 -6.195312 L 14.351562 -6.078125 L 14.214844 -5.800781 C 13.847656 -5.984375 13.386719 -6.1875 12.839844 -6.410156 C 12.285156 -6.632812 11.691406 -6.863281 11.058594 -7.101562 C 10.421875 -7.335938 9.785156 -7.558594 9.144531 -7.773438 C 8.5 -7.988281 7.90625 -8.175781 7.359375 -8.339844 L 7.140625 -8.40625 L 7.140625 -11.066406 C 7.140625 -11.425781 7.15625 -11.785156 7.191406 -12.144531 C 7.222656 -12.492188 7.257812 -12.8125 7.289062 -13.097656 L 7.597656 -13.0625 L 7.597656 -12.753906 L 5.019531 -12.753906 L 5.019531 -13.0625 L 5.324219 -13.121094 C 5.382812 -12.824219 5.425781 -12.480469 5.453125 -12.097656 C 5.480469 -11.714844 5.496094 -11.371094 5.496094 -11.066406 L 5.496094 -1.585938 C 5.496094 -1.25 5.480469 -0.855469 5.453125 -0.410156 C 5.425781 0.0429688 5.382812 0.433594 5.324219 0.761719 L 5.019531 0.710938 L 5.019531 0.402344 L 7.597656 0.402344 L 7.597656 0.710938 L 7.289062 0.742188 C 7.265625 0.519531 7.246094 0.257812 7.222656 -0.0429688 C 7.199219 -0.34375 7.179688 -0.632812 7.164062 -0.914062 C 7.148438 -1.203125 7.140625 -1.425781 7.140625 -1.585938 L 7.140625 -6.6875 L 7.546875 -6.554688 C 8.144531 -6.355469 8.800781 -6.117188 9.515625 -5.847656 C 10.230469 -5.574219 10.9375 -5.289062 11.644531 -4.984375 C 12.347656 -4.675781 12.988281 -4.375 13.554688 -4.074219 L 13.410156 -3.796875 L 13.125 -3.917969 Z M 14.066406 -6.195312 "/></g></g></g></g></g></g></g></g></svg>