<svg xmlns="http://www.w3.org/2000/svg" xmlns:xlink="http://www.w3.org/1999/xlink" width="230" zoomAndPan="magnify" viewBox="0 0 172.5 30.750001" height="41" preserveAspectRatio="xMidYMid meet" version="1.0"><defs><g/></defs><g fill="#5ce1e6" fill-opacity="1"><g transform="translate(2.471478, 22.319832)"><g><path d="M 14.171875 -12.96875 L 14.984375 -11.453125 L 5.328125 -6.421875 L 5.328125 -6.359375 L 14.984375 -1.328125 L 14.171875 0.1875 L 1.703125 -6.359375 L 1.703125 -6.421875 Z M 14.171875 -12.96875 "/></g></g></g><g fill="#5ce1e6" fill-opacity="1"><g transform="translate(19.326597, 22.319832)"><g><path d="M 15.921875 -7.6875 L 9.984375 -7.6875 C 10.546875 -6.039062 11.34375 -4.585938 12.375 -3.328125 C 13.40625 -2.066406 14.707031 -1.113281 16.28125 -0.46875 C 16.113281 -0.332031 15.929688 -0.15625 15.734375 0.0625 C 15.546875 0.289062 15.367188 0.523438 15.203125 0.765625 C 15.046875 1.003906 14.910156 1.222656 14.796875 1.421875 C 13.273438 0.703125 12.003906 -0.257812 10.984375 -1.46875 C 9.972656 -2.675781 9.140625 -4.097656 8.484375 -5.734375 C 8.179688 -4.796875 7.765625 -3.882812 7.234375 -3 C 6.703125 -2.125 6.023438 -1.304688 5.203125 -0.546875 C 4.378906 0.203125 3.367188 0.863281 2.171875 1.4375 C 2.015625 1.15625 1.796875 0.851562 1.515625 0.53125 C 1.242188 0.207031 0.960938 -0.0546875 0.671875 -0.265625 C 1.960938 -0.835938 3.019531 -1.515625 3.84375 -2.296875 C 4.664062 -3.085938 5.304688 -3.941406 5.765625 -4.859375 C 6.234375 -5.773438 6.578125 -6.71875 6.796875 -7.6875 L 1 -7.6875 L 1 -9.765625 L 7.125 -9.765625 C 7.21875 -10.554688 7.265625 -11.332031 7.265625 -12.09375 C 7.273438 -12.851562 7.285156 -13.578125 7.296875 -14.265625 L 9.484375 -14.265625 C 9.472656 -13.578125 9.457031 -12.847656 9.4375 -12.078125 C 9.425781 -11.316406 9.378906 -10.546875 9.296875 -9.765625 L 15.921875 -9.765625 Z M 15.921875 -7.6875 "/></g></g></g><g fill="#5ce1e6" fill-opacity="1"><g transform="translate(36.181717, 22.319832)"><g><path d="M 11.875 -12.1875 L 11.875 -12.734375 L 4.875 -12.734375 L 4.875 -12.1875 Z M 11.875 -10.640625 L 11.875 -11.1875 L 4.875 -11.1875 L 4.875 -10.640625 Z M 13.890625 -13.78125 L 13.890625 -9.609375 L 2.9375 -9.609375 L 2.9375 -13.78125 Z M 16.078125 -9.109375 L 16.078125 -7.671875 L 0.828125 -7.671875 L 0.828125 -9.109375 Z M 4.515625 -3.921875 L 7.453125 -3.921875 L 7.453125 -4.515625 L 4.515625 -4.515625 Z M 4.515625 -6.109375 L 4.515625 -5.515625 L 7.453125 -5.515625 L 7.453125 -6.109375 Z M 12.328125 -5.515625 L 12.328125 -6.109375 L 9.375 -6.109375 L 9.375 -5.515625 Z M 12.328125 -3.921875 L 12.328125 -4.515625 L 9.375 -4.515625 L 9.375 -3.921875 Z M 9.375 -0.40625 L 16.125 -0.40625 L 16.125 1.046875 L 0.796875 1.046875 L 0.796875 -0.40625 L 7.453125 -0.40625 L 7.453125 -1.015625 L 2.296875 -1.015625 L 2.296875 -2.3125 L 7.453125 -2.3125 L 7.453125 -2.84375 L 2.625 -2.84375 L 2.625 -7.171875 L 14.28125 -7.171875 L 14.28125 -2.84375 L 9.375 -2.84375 L 9.375 -2.3125 L 14.59375 -2.3125 L 14.59375 -1.015625 L 9.375 -1.015625 Z M 9.375 -0.40625 "/></g></g></g><g fill="#5ce1e6" fill-opacity="1"><g transform="translate(53.036836, 22.319832)"><g><path d="M 14 -13.5625 C 13.738281 -13.5625 13.515625 -13.472656 13.328125 -13.296875 C 13.148438 -13.117188 13.0625 -12.898438 13.0625 -12.640625 C 13.0625 -12.398438 13.148438 -12.1875 13.328125 -12 C 13.515625 -11.8125 13.738281 -11.71875 14 -11.71875 C 14.25 -11.71875 14.460938 -11.8125 14.640625 -12 C 14.816406 -12.1875 14.90625 -12.398438 14.90625 -12.640625 C 14.90625 -12.898438 14.816406 -13.117188 14.640625 -13.296875 C 14.460938 -13.472656 14.25 -13.5625 14 -13.5625 Z M 14 -10.6875 C 13.632812 -10.6875 13.300781 -10.773438 13 -10.953125 C 12.707031 -11.128906 12.472656 -11.363281 12.296875 -11.65625 C 12.117188 -11.957031 12.03125 -12.285156 12.03125 -12.640625 C 12.03125 -13.003906 12.117188 -13.332031 12.296875 -13.625 C 12.472656 -13.914062 12.707031 -14.144531 13 -14.3125 C 13.300781 -14.488281 13.632812 -14.578125 14 -14.578125 C 14.53125 -14.578125 14.984375 -14.390625 15.359375 -14.015625 C 15.742188 -13.640625 15.9375 -13.179688 15.9375 -12.640625 C 15.9375 -12.285156 15.847656 -11.957031 15.671875 -11.65625 C 15.492188 -11.363281 15.257812 -11.128906 14.96875 -10.953125 C 14.675781 -10.773438 14.351562 -10.6875 14 -10.6875 Z M 3.84375 -6.953125 L 5.75 -6.046875 C 5.5625 -5.679688 5.328125 -5.273438 5.046875 -4.828125 C 4.773438 -4.390625 4.484375 -3.945312 4.171875 -3.5 C 3.867188 -3.0625 3.570312 -2.65625 3.28125 -2.28125 C 2.988281 -1.90625 2.726562 -1.59375 2.5 -1.34375 L 0.671875 -2.59375 C 1.054688 -2.957031 1.445312 -3.390625 1.84375 -3.890625 C 2.238281 -4.390625 2.613281 -4.90625 2.96875 -5.4375 C 3.320312 -5.96875 3.613281 -6.472656 3.84375 -6.953125 Z M 13.5 -8.453125 L 9.5625 -8.453125 L 9.5625 -0.609375 C 9.5625 -0.117188 9.414062 0.265625 9.125 0.546875 C 8.84375 0.835938 8.40625 0.984375 7.8125 0.984375 C 7.351562 0.984375 6.882812 0.96875 6.40625 0.9375 C 5.9375 0.90625 5.488281 0.867188 5.0625 0.828125 L 4.859375 -1.265625 C 5.210938 -1.191406 5.5625 -1.140625 5.90625 -1.109375 C 6.25 -1.078125 6.523438 -1.0625 6.734375 -1.0625 C 6.953125 -1.0625 7.101562 -1.109375 7.1875 -1.203125 C 7.28125 -1.296875 7.332031 -1.453125 7.34375 -1.671875 C 7.34375 -1.773438 7.347656 -1.988281 7.359375 -2.3125 C 7.367188 -2.644531 7.375 -3.046875 7.375 -3.515625 C 7.375 -3.984375 7.375 -4.472656 7.375 -4.984375 C 7.375 -5.492188 7.375 -5.988281 7.375 -6.46875 C 7.375 -6.945312 7.375 -7.359375 7.375 -7.703125 C 7.375 -8.054688 7.375 -8.296875 7.375 -8.421875 L 7.375 -8.453125 L 3.078125 -8.453125 C 2.835938 -8.453125 2.5625 -8.441406 2.25 -8.421875 C 1.945312 -8.410156 1.679688 -8.394531 1.453125 -8.375 L 1.453125 -10.625 C 1.710938 -10.59375 1.984375 -10.5625 2.265625 -10.53125 C 2.554688 -10.5 2.828125 -10.484375 3.078125 -10.484375 L 7.375 -10.484375 L 7.375 -11.828125 C 7.375 -12.054688 7.351562 -12.320312 7.3125 -12.625 C 7.28125 -12.925781 7.25 -13.148438 7.21875 -13.296875 L 9.71875 -13.296875 C 9.695312 -13.222656 9.675781 -13.09375 9.65625 -12.90625 C 9.632812 -12.726562 9.613281 -12.539062 9.59375 -12.34375 C 9.570312 -12.144531 9.5625 -11.972656 9.5625 -11.828125 L 9.5625 -10.484375 L 13.484375 -10.484375 C 13.722656 -10.484375 14.003906 -10.492188 14.328125 -10.515625 C 14.648438 -10.535156 14.921875 -10.566406 15.140625 -10.609375 L 15.140625 -8.390625 C 14.878906 -8.410156 14.597656 -8.425781 14.296875 -8.4375 C 13.992188 -8.445312 13.726562 -8.453125 13.5 -8.453125 Z M 11.15625 -6 L 13 -7 C 13.207031 -6.726562 13.441406 -6.40625 13.703125 -6.03125 C 13.972656 -5.65625 14.242188 -5.257812 14.515625 -4.84375 C 14.785156 -4.425781 15.035156 -4.015625 15.265625 -3.609375 C 15.503906 -3.210938 15.707031 -2.863281 15.875 -2.5625 L 13.890625 -1.484375 C 13.648438 -1.960938 13.367188 -2.484375 13.046875 -3.046875 C 12.722656 -3.617188 12.394531 -4.171875 12.0625 -4.703125 C 11.726562 -5.234375 11.425781 -5.664062 11.15625 -6 Z M 11.15625 -6 "/></g></g></g><g fill="#5ce1e6" fill-opacity="1"><g transform="translate(69.891955, 22.319832)"><g><path d="M 10.453125 -8.359375 L 10.453125 -1.46875 C 10.453125 -1.21875 10.457031 -0.945312 10.46875 -0.65625 C 10.476562 -0.375 10.492188 -0.109375 10.515625 0.140625 C 10.535156 0.390625 10.566406 0.585938 10.609375 0.734375 L 7.9375 0.734375 C 7.957031 0.609375 7.976562 0.414062 8 0.15625 C 8.019531 -0.09375 8.035156 -0.363281 8.046875 -0.65625 C 8.054688 -0.945312 8.0625 -1.21875 8.0625 -1.46875 L 8.0625 -7 C 7.195312 -6.5625 6.253906 -6.132812 5.234375 -5.71875 C 4.222656 -5.3125 3.234375 -4.972656 2.265625 -4.703125 L 1.046875 -6.765625 C 2.035156 -6.972656 2.992188 -7.242188 3.921875 -7.578125 C 4.859375 -7.910156 5.734375 -8.269531 6.546875 -8.65625 C 7.359375 -9.039062 8.082031 -9.425781 8.71875 -9.8125 C 9.289062 -10.175781 9.851562 -10.570312 10.40625 -11 C 10.957031 -11.425781 11.46875 -11.863281 11.9375 -12.3125 C 12.40625 -12.769531 12.796875 -13.207031 13.109375 -13.625 L 14.921875 -11.984375 C 14.273438 -11.347656 13.578125 -10.71875 12.828125 -10.09375 C 12.078125 -9.476562 11.285156 -8.898438 10.453125 -8.359375 Z M 10.453125 -8.359375 "/></g></g></g><g fill="#5ce1e6" fill-opacity="1"><g transform="translate(86.747075, 22.319832)"><g><path d="M 4.0625 -12.8125 C 4.351562 -12.613281 4.695312 -12.363281 5.09375 -12.0625 C 5.488281 -11.757812 5.894531 -11.441406 6.3125 -11.109375 C 6.738281 -10.773438 7.132812 -10.445312 7.5 -10.125 C 7.863281 -9.800781 8.164062 -9.507812 8.40625 -9.25 L 6.6875 -7.484375 C 6.476562 -7.722656 6.195312 -8.003906 5.84375 -8.328125 C 5.5 -8.648438 5.125 -8.984375 4.71875 -9.328125 C 4.3125 -9.679688 3.910156 -10.015625 3.515625 -10.328125 C 3.128906 -10.648438 2.785156 -10.914062 2.484375 -11.125 Z M 1.953125 -1.578125 C 3.265625 -1.773438 4.460938 -2.070312 5.546875 -2.46875 C 6.640625 -2.863281 7.59375 -3.304688 8.40625 -3.796875 C 9.363281 -4.367188 10.238281 -5.015625 11.03125 -5.734375 C 11.832031 -6.460938 12.53125 -7.222656 13.125 -8.015625 C 13.726562 -8.816406 14.203125 -9.597656 14.546875 -10.359375 L 15.859375 -7.96875 C 15.222656 -6.832031 14.363281 -5.710938 13.28125 -4.609375 C 12.207031 -3.515625 10.988281 -2.554688 9.625 -1.734375 C 8.769531 -1.222656 7.8125 -0.75 6.75 -0.3125 C 5.6875 0.125 4.5625 0.441406 3.375 0.640625 Z M 1.953125 -1.578125 "/></g></g></g><g fill="#5ce1e6" fill-opacity="1"><g transform="translate(103.602194, 22.319832)"><g><path d="M 14.65625 -6.203125 L 13.6875 -3.875 C 13.113281 -4.175781 12.46875 -4.484375 11.75 -4.796875 C 11.039062 -5.109375 10.320312 -5.398438 9.59375 -5.671875 C 8.875 -5.953125 8.210938 -6.191406 7.609375 -6.390625 L 7.609375 -1.625 C 7.609375 -1.457031 7.613281 -1.226562 7.625 -0.9375 C 7.644531 -0.65625 7.664062 -0.363281 7.6875 -0.0625 C 7.707031 0.238281 7.726562 0.5 7.75 0.71875 L 5.125 0.71875 C 5.175781 0.394531 5.21875 0.0078125 5.25 -0.4375 C 5.28125 -0.882812 5.296875 -1.28125 5.296875 -1.625 L 5.296875 -11.296875 C 5.296875 -11.597656 5.28125 -11.9375 5.25 -12.3125 C 5.21875 -12.695312 5.175781 -13.035156 5.125 -13.328125 L 7.75 -13.328125 C 7.71875 -13.035156 7.6875 -12.710938 7.65625 -12.359375 C 7.625 -12.003906 7.609375 -11.648438 7.609375 -11.296875 L 7.609375 -8.8125 C 8.171875 -8.644531 8.78125 -8.453125 9.4375 -8.234375 C 10.09375 -8.015625 10.742188 -7.785156 11.390625 -7.546875 C 12.046875 -7.304688 12.65625 -7.066406 13.21875 -6.828125 C 13.789062 -6.597656 14.269531 -6.390625 14.65625 -6.203125 Z M 14.65625 -6.203125 "/></g></g></g><g fill="#5ce1e6" fill-opacity="1"><g transform="translate(120.457313, 22.319832)"><g><path d="M 6.703125 -8.6875 L 6.25 -8.09375 C 6.75 -8 7.257812 -7.894531 7.78125 -7.78125 C 8.3125 -7.664062 8.847656 -7.539062 9.390625 -7.40625 C 9.679688 -7.582031 9.925781 -7.773438 10.125 -7.984375 C 10.332031 -8.203125 10.507812 -8.4375 10.65625 -8.6875 Z M 16.078125 -2.328125 L 10.90625 -2.328125 C 11.644531 -1.890625 12.507812 -1.5 13.5 -1.15625 C 14.5 -0.820312 15.507812 -0.578125 16.53125 -0.421875 C 16.320312 -0.203125 16.09375 0.0664062 15.84375 0.390625 C 15.601562 0.722656 15.40625 1.019531 15.25 1.28125 C 14.195312 1.019531 13.15625 0.644531 12.125 0.15625 C 11.09375 -0.332031 10.175781 -0.898438 9.375 -1.546875 L 9.375 1.453125 L 7.390625 1.453125 L 7.390625 -1.453125 C 6.609375 -0.816406 5.710938 -0.265625 4.703125 0.203125 C 3.703125 0.671875 2.679688 1.035156 1.640625 1.296875 C 1.503906 1.046875 1.316406 0.757812 1.078125 0.4375 C 0.835938 0.125 0.613281 -0.128906 0.40625 -0.328125 C 1.414062 -0.503906 2.414062 -0.769531 3.40625 -1.125 C 4.394531 -1.476562 5.25 -1.878906 5.96875 -2.328125 L 0.828125 -2.328125 L 0.828125 -3.984375 L 7.390625 -3.984375 L 7.390625 -5.03125 C 6.703125 -4.882812 5.929688 -4.753906 5.078125 -4.640625 C 4.222656 -4.535156 3.265625 -4.441406 2.203125 -4.359375 C 2.160156 -4.597656 2.070312 -4.867188 1.9375 -5.171875 C 1.800781 -5.472656 1.671875 -5.722656 1.546875 -5.921875 C 2.679688 -5.972656 3.679688 -6.046875 4.546875 -6.140625 C 5.410156 -6.234375 6.171875 -6.351562 6.828125 -6.5 C 6.554688 -6.5625 6.285156 -6.625 6.015625 -6.6875 C 5.753906 -6.757812 5.5 -6.816406 5.25 -6.859375 L 5.03125 -6.609375 L 3.125 -7.125 C 3.320312 -7.351562 3.53125 -7.597656 3.75 -7.859375 C 3.96875 -8.128906 4.195312 -8.40625 4.4375 -8.6875 L 1.109375 -8.6875 L 1.109375 -10.25 L 5.625 -10.25 C 5.78125 -10.476562 5.9375 -10.695312 6.09375 -10.90625 C 6.257812 -11.113281 6.410156 -11.3125 6.546875 -11.5 L 3.078125 -11.5 L 3.078125 -10.578125 L 1.234375 -10.578125 L 1.234375 -13.15625 L 7.421875 -13.15625 L 7.421875 -14.265625 L 9.421875 -14.265625 L 9.421875 -13.15625 L 15.65625 -13.15625 L 15.65625 -10.578125 L 13.71875 -10.578125 L 13.71875 -11.5 L 6.953125 -11.5 L 8.484375 -11.046875 C 8.390625 -10.921875 8.296875 -10.789062 8.203125 -10.65625 C 8.109375 -10.519531 8.007812 -10.382812 7.90625 -10.25 L 15.78125 -10.25 L 15.78125 -8.6875 L 12.8125 -8.6875 C 12.5 -7.96875 12.066406 -7.359375 11.515625 -6.859375 C 12.203125 -6.671875 12.847656 -6.476562 13.453125 -6.28125 C 14.054688 -6.09375 14.597656 -5.910156 15.078125 -5.734375 L 13.875 -4.3125 C 13.363281 -4.539062 12.742188 -4.773438 12.015625 -5.015625 C 11.296875 -5.253906 10.519531 -5.492188 9.6875 -5.734375 C 9.144531 -5.492188 8.519531 -5.289062 7.8125 -5.125 L 9.375 -5.125 L 9.375 -3.984375 L 16.078125 -3.984375 Z M 16.078125 -2.328125 "/></g></g></g><g fill="#5ce1e6" fill-opacity="1"><g transform="translate(137.312433, 22.319832)"><g><path d="M 4.109375 -14.21875 L 6.015625 -13.609375 C 5.796875 -13.015625 5.546875 -12.410156 5.265625 -11.796875 C 4.992188 -11.191406 4.691406 -10.597656 4.359375 -10.015625 L 4.359375 1.453125 L 2.46875 1.453125 L 2.46875 -7.03125 C 2.289062 -6.8125 2.117188 -6.601562 1.953125 -6.40625 C 1.785156 -6.207031 1.617188 -6.007812 1.453125 -5.8125 C 1.390625 -5.976562 1.296875 -6.191406 1.171875 -6.453125 C 1.046875 -6.722656 0.910156 -6.988281 0.765625 -7.25 C 0.617188 -7.519531 0.488281 -7.738281 0.375 -7.90625 C 0.863281 -8.414062 1.34375 -9.003906 1.8125 -9.671875 C 2.28125 -10.347656 2.710938 -11.070312 3.109375 -11.84375 C 3.503906 -12.625 3.835938 -13.414062 4.109375 -14.21875 Z M 16.234375 -6.15625 L 16.234375 -4.203125 L 11.921875 -4.203125 L 11.921875 1.46875 L 9.890625 1.46875 L 9.890625 -4.203125 L 5.34375 -4.203125 L 5.34375 -6.15625 L 9.890625 -6.15625 L 9.890625 -9.046875 L 7.84375 -9.046875 C 7.695312 -8.628906 7.53125 -8.234375 7.34375 -7.859375 C 7.164062 -7.492188 6.984375 -7.164062 6.796875 -6.875 C 6.671875 -6.96875 6.5 -7.078125 6.28125 -7.203125 C 6.070312 -7.328125 5.859375 -7.445312 5.640625 -7.5625 C 5.421875 -7.675781 5.226562 -7.769531 5.0625 -7.84375 C 5.363281 -8.28125 5.640625 -8.796875 5.890625 -9.390625 C 6.140625 -9.984375 6.363281 -10.617188 6.5625 -11.296875 C 6.757812 -11.984375 6.921875 -12.671875 7.046875 -13.359375 L 8.984375 -12.953125 C 8.921875 -12.617188 8.84375 -12.289062 8.75 -11.96875 C 8.664062 -11.65625 8.582031 -11.335938 8.5 -11.015625 L 9.890625 -11.015625 L 9.890625 -14.0625 L 11.921875 -14.0625 L 11.921875 -11.015625 L 15.4375 -11.015625 L 15.4375 -9.046875 L 11.921875 -9.046875 L 11.921875 -6.15625 Z M 16.234375 -6.15625 "/></g></g></g><g fill="#5ce1e6" fill-opacity="1"><g transform="translate(154.167552, 22.319832)"><g><path d="M 2.6875 -12.96875 L 15.15625 -6.421875 L 15.15625 -6.359375 L 2.6875 0.1875 L 1.875 -1.328125 L 11.53125 -6.359375 L 11.53125 -6.421875 L 1.875 -11.453125 Z M 2.6875 -12.96875 "/></g></g></g><g fill="#5ce1e6" fill-opacity="1"><g transform="translate(1.726245, 21.574599)"><g><path d="M 14.457031 -13.113281 L 15.417969 -11.3125 L 5.472656 -6.140625 L 5.328125 -6.421875 L 5.644531 -6.421875 L 5.644531 -6.355469 L 5.328125 -6.355469 L 5.472656 -6.636719 L 15.417969 -1.464844 L 14.308594 0.609375 L 1.386719 -6.164062 L 1.386719 -6.613281 L 14.308594 -13.390625 Z M 13.898438 -12.816406 L 14.175781 -12.964844 L 14.324219 -12.683594 L 1.847656 -6.144531 L 1.703125 -6.421875 L 2.019531 -6.421875 L 2.019531 -6.355469 L 1.703125 -6.355469 L 1.847656 -6.636719 L 14.324219 -0.09375 L 14.175781 0.183594 L 13.898438 0.0351562 L 14.707031 -1.480469 L 14.988281 -1.332031 L 14.839844 -1.050781 L 5.011719 -6.164062 L 5.011719 -6.613281 L 14.839844 -11.726562 L 14.988281 -11.445312 L 14.707031 -11.296875 Z M 13.898438 -12.816406 "/></g></g></g><g fill="#5ce1e6" fill-opacity="1"><g transform="translate(18.581364, 21.574599)"><g><path d="M 15.914062 -7.371094 L 9.980469 -7.371094 L 9.980469 -7.6875 L 10.277344 -7.789062 C 10.828125 -6.183594 11.609375 -4.765625 12.617188 -3.53125 C 13.617188 -2.308594 14.878906 -1.386719 16.402344 -0.765625 L 16.902344 -0.5625 L 16.480469 -0.226562 C 16.328125 -0.101562 16.164062 0.0625 15.984375 0.273438 C 15.804688 0.488281 15.632812 0.710938 15.476562 0.945312 C 15.316406 1.179688 15.183594 1.390625 15.074219 1.578125 L 14.925781 1.824219 L 14.667969 1.703125 C 13.097656 0.964844 11.789062 -0.0273438 10.75 -1.273438 C 9.714844 -2.503906 8.863281 -3.953125 8.1875 -5.613281 L 8.480469 -5.730469 L 8.78125 -5.632812 C 8.46875 -4.679688 8.042969 -3.75 7.503906 -2.847656 C 6.960938 -1.9375 6.261719 -1.097656 5.414062 -0.324219 C 4.566406 0.449219 3.53125 1.132812 2.3125 1.71875 L 2.042969 1.847656 L 1.898438 1.585938 C 1.75 1.324219 1.546875 1.042969 1.285156 0.738281 C 1.027344 0.433594 0.761719 0.183594 0.488281 -0.015625 L 0.046875 -0.335938 L 0.546875 -0.558594 C 1.804688 -1.117188 2.832031 -1.777344 3.625 -2.539062 C 4.417969 -3.300781 5.042969 -4.121094 5.492188 -5.007812 C 5.945312 -5.898438 6.277344 -6.816406 6.484375 -7.753906 L 6.792969 -7.6875 L 6.792969 -7.371094 L 0.679688 -7.371094 L 0.679688 -10.078125 L 7.132812 -10.078125 L 7.132812 -9.761719 L 6.816406 -9.796875 C 6.90625 -10.582031 6.953125 -11.351562 6.957031 -12.097656 C 6.964844 -12.859375 6.972656 -13.582031 6.984375 -14.265625 L 6.988281 -14.578125 L 9.8125 -14.578125 L 9.765625 -12.082031 C 9.746094 -11.304688 9.695312 -10.519531 9.601562 -9.726562 L 9.289062 -9.761719 L 9.289062 -10.078125 L 16.230469 -10.078125 L 16.230469 -7.371094 Z M 15.914062 -8.003906 L 15.914062 -7.6875 L 15.597656 -7.6875 L 15.597656 -9.761719 L 15.914062 -9.761719 L 15.914062 -9.445312 L 8.933594 -9.445312 L 8.972656 -9.796875 C 9.0625 -10.574219 9.117188 -11.339844 9.132812 -12.09375 L 9.175781 -14.269531 L 9.492188 -14.261719 L 9.492188 -13.945312 L 7.300781 -13.945312 L 7.300781 -14.261719 L 7.617188 -14.257812 C 7.605469 -13.570312 7.597656 -12.851562 7.589844 -12.09375 C 7.585938 -11.324219 7.535156 -10.535156 7.445312 -9.726562 L 7.414062 -9.445312 L 0.996094 -9.445312 L 0.996094 -9.761719 L 1.3125 -9.761719 L 1.3125 -7.6875 L 0.996094 -7.6875 L 0.996094 -8.003906 L 7.1875 -8.003906 L 7.101562 -7.617188 C 6.882812 -6.625 6.535156 -5.660156 6.054688 -4.71875 C 5.574219 -3.773438 4.910156 -2.894531 4.0625 -2.082031 C 3.214844 -1.269531 2.128906 -0.570312 0.800781 0.0195312 L 0.675781 -0.269531 L 0.859375 -0.523438 C 1.171875 -0.296875 1.472656 -0.015625 1.765625 0.324219 C 2.054688 0.660156 2.28125 0.980469 2.449219 1.277344 L 2.175781 1.433594 L 2.039062 1.148438 C 3.199219 0.589844 4.183594 -0.0585938 4.988281 -0.789062 C 5.789062 -1.523438 6.449219 -2.316406 6.960938 -3.171875 C 7.476562 -4.035156 7.882812 -4.917969 8.179688 -5.828125 L 8.445312 -6.652344 L 8.773438 -5.851562 C 9.421875 -4.25 10.242188 -2.859375 11.234375 -1.679688 C 12.214844 -0.503906 13.449219 0.429688 14.9375 1.128906 L 14.800781 1.417969 L 14.527344 1.253906 C 14.644531 1.058594 14.785156 0.835938 14.953125 0.589844 C 15.121094 0.339844 15.304688 0.0976562 15.503906 -0.136719 C 15.707031 -0.378906 15.902344 -0.570312 16.085938 -0.71875 L 16.285156 -0.472656 L 16.164062 -0.179688 C 14.542969 -0.839844 13.195312 -1.824219 12.128906 -3.128906 C 11.070312 -4.421875 10.253906 -5.90625 9.679688 -7.585938 L 9.539062 -8.003906 Z M 15.914062 -8.003906 "/></g></g></g><g fill="#5ce1e6" fill-opacity="1"><g transform="translate(35.436483, 21.574599)"><g><path d="M 11.550781 -12.1875 L 11.550781 -12.726562 L 11.867188 -12.726562 L 11.867188 -12.410156 L 4.871094 -12.410156 L 4.871094 -12.726562 L 5.1875 -12.726562 L 5.1875 -12.1875 L 4.871094 -12.1875 L 4.871094 -12.503906 L 11.867188 -12.503906 L 11.867188 -12.1875 Z M 12.183594 -11.871094 L 4.554688 -11.871094 L 4.554688 -13.042969 L 12.183594 -13.042969 Z M 11.550781 -10.636719 L 11.550781 -11.195312 L 11.867188 -11.195312 L 11.867188 -10.878906 L 4.871094 -10.878906 L 4.871094 -11.195312 L 5.1875 -11.195312 L 5.1875 -10.636719 L 4.871094 -10.636719 L 4.871094 -10.953125 L 11.867188 -10.953125 L 11.867188 -10.636719 Z M 12.183594 -10.320312 L 4.554688 -10.320312 L 4.554688 -11.511719 L 12.183594 -11.511719 Z M 14.207031 -13.773438 L 14.207031 -9.292969 L 2.617188 -9.292969 L 2.617188 -14.089844 L 14.207031 -14.089844 Z M 13.574219 -13.773438 L 13.890625 -13.773438 L 13.890625 -13.457031 L 2.933594 -13.457031 L 2.933594 -13.773438 L 3.25 -13.773438 L 3.25 -9.609375 L 2.933594 -9.609375 L 2.933594 -9.925781 L 13.890625 -9.925781 L 13.890625 -9.609375 L 13.574219 -9.609375 Z M 16.398438 -9.101562 L 16.398438 -7.355469 L 0.511719 -7.355469 L 0.511719 -9.417969 L 16.398438 -9.417969 Z M 15.765625 -9.101562 L 16.082031 -9.101562 L 16.082031 -8.789062 L 0.824219 -8.789062 L 0.824219 -9.101562 L 1.140625 -9.101562 L 1.140625 -7.671875 L 0.824219 -7.671875 L 0.824219 -7.988281 L 16.082031 -7.988281 L 16.082031 -7.671875 L 15.765625 -7.671875 Z M 4.519531 -4.242188 L 7.453125 -4.242188 L 7.453125 -3.929688 L 7.136719 -3.929688 L 7.136719 -4.519531 L 7.453125 -4.519531 L 7.453125 -4.203125 L 4.519531 -4.203125 L 4.519531 -4.519531 L 4.835938 -4.519531 L 4.835938 -3.929688 L 4.519531 -3.929688 Z M 4.203125 -3.613281 L 4.203125 -4.835938 L 7.765625 -4.835938 L 7.765625 -3.613281 Z M 4.835938 -6.101562 L 4.835938 -5.511719 L 4.519531 -5.511719 L 4.519531 -5.828125 L 7.453125 -5.828125 L 7.453125 -5.511719 L 7.136719 -5.511719 L 7.136719 -6.101562 L 7.453125 -6.101562 L 7.453125 -5.785156 L 4.519531 -5.785156 L 4.519531 -6.101562 Z M 4.203125 -6.417969 L 7.765625 -6.417969 L 7.765625 -5.195312 L 4.203125 -5.195312 Z M 12.007812 -5.511719 L 12.007812 -6.101562 L 12.324219 -6.101562 L 12.324219 -5.785156 L 9.371094 -5.785156 L 9.371094 -6.101562 L 9.6875 -6.101562 L 9.6875 -5.511719 L 9.371094 -5.511719 L 9.371094 -5.828125 L 12.324219 -5.828125 L 12.324219 -5.511719 Z M 12.640625 -5.195312 L 9.058594 -5.195312 L 9.058594 -6.417969 L 12.640625 -6.417969 Z M 12.007812 -3.929688 L 12.007812 -4.519531 L 12.324219 -4.519531 L 12.324219 -4.203125 L 9.371094 -4.203125 L 9.371094 -4.519531 L 9.6875 -4.519531 L 9.6875 -3.929688 L 9.371094 -3.929688 L 9.371094 -4.242188 L 12.324219 -4.242188 L 12.324219 -3.929688 Z M 12.640625 -3.613281 L 9.058594 -3.613281 L 9.058594 -4.835938 L 12.640625 -4.835938 Z M 9.371094 -0.722656 L 16.433594 -0.722656 L 16.433594 1.363281 L 0.476562 1.363281 L 0.476562 -0.722656 L 7.453125 -0.722656 L 7.453125 -0.40625 L 7.136719 -0.40625 L 7.136719 -1.011719 L 7.453125 -1.011719 L 7.453125 -0.695312 L 1.976562 -0.695312 L 1.976562 -2.625 L 7.453125 -2.625 L 7.453125 -2.308594 L 7.136719 -2.308594 L 7.136719 -2.847656 L 7.453125 -2.847656 L 7.453125 -2.53125 L 2.3125 -2.53125 L 2.3125 -7.480469 L 14.59375 -7.480469 L 14.59375 -2.53125 L 9.371094 -2.53125 L 9.371094 -2.847656 L 9.6875 -2.847656 L 9.6875 -2.308594 L 9.371094 -2.308594 L 9.371094 -2.625 L 14.914062 -2.625 L 14.914062 -0.695312 L 9.371094 -0.695312 L 9.371094 -1.011719 L 9.6875 -1.011719 L 9.6875 -0.40625 L 9.371094 -0.40625 Z M 9.058594 -0.0898438 L 9.058594 -1.328125 L 14.597656 -1.328125 L 14.597656 -1.011719 L 14.28125 -1.011719 L 14.28125 -2.308594 L 14.597656 -2.308594 L 14.597656 -1.992188 L 9.058594 -1.992188 L 9.058594 -3.164062 L 14.277344 -3.164062 L 14.277344 -2.847656 L 13.960938 -2.847656 L 13.960938 -7.164062 L 14.277344 -7.164062 L 14.277344 -6.847656 L 2.628906 -6.847656 L 2.628906 -7.164062 L 2.945312 -7.164062 L 2.945312 -2.847656 L 2.628906 -2.847656 L 2.628906 -3.164062 L 7.765625 -3.164062 L 7.765625 -1.992188 L 2.292969 -1.992188 L 2.292969 -2.308594 L 2.609375 -2.308594 L 2.609375 -1.011719 L 2.292969 -1.011719 L 2.292969 -1.328125 L 7.765625 -1.328125 L 7.765625 -0.0898438 L 0.792969 -0.0898438 L 0.792969 -0.40625 L 1.109375 -0.40625 L 1.109375 1.046875 L 0.792969 1.046875 L 0.792969 0.730469 L 16.117188 0.730469 L 16.117188 1.046875 L 15.800781 1.046875 L 15.800781 -0.40625 L 16.117188 -0.40625 L 16.117188 -0.0898438 Z M 9.058594 -0.0898438 "/></g></g></g><g fill="#5ce1e6" fill-opacity="1"><g transform="translate(52.291603, 21.574599)"><g><path d="M 13.992188 -13.238281 C 13.820312 -13.238281 13.671875 -13.179688 13.554688 -13.066406 C 13.4375 -12.953125 13.382812 -12.8125 13.382812 -12.644531 C 13.382812 -12.480469 13.441406 -12.339844 13.5625 -12.214844 C 13.679688 -12.09375 13.824219 -12.03125 13.992188 -12.03125 C 14.160156 -12.03125 14.300781 -12.09375 14.410156 -12.210938 C 14.527344 -12.335938 14.585938 -12.480469 14.585938 -12.644531 C 14.585938 -12.816406 14.53125 -12.957031 14.417969 -13.070312 C 14.304688 -13.179688 14.164062 -13.238281 13.992188 -13.238281 Z M 13.992188 -13.871094 C 14.339844 -13.871094 14.628906 -13.753906 14.863281 -13.515625 C 15.101562 -13.28125 15.21875 -12.988281 15.21875 -12.644531 C 15.21875 -12.3125 15.101562 -12.023438 14.871094 -11.777344 C 14.636719 -11.527344 14.339844 -11.398438 13.992188 -11.398438 C 13.644531 -11.398438 13.347656 -11.523438 13.109375 -11.773438 C 12.867188 -12.019531 12.75 -12.3125 12.75 -12.644531 C 12.75 -12.992188 12.871094 -13.285156 13.113281 -13.519531 C 13.355469 -13.753906 13.648438 -13.871094 13.992188 -13.871094 Z M 13.992188 -10.371094 C 13.574219 -10.371094 13.195312 -10.472656 12.847656 -10.675781 C 12.5 -10.878906 12.226562 -11.152344 12.023438 -11.496094 C 11.820312 -11.84375 11.71875 -12.226562 11.71875 -12.644531 C 11.71875 -13.0625 11.824219 -13.441406 12.027344 -13.78125 C 12.226562 -14.121094 12.5 -14.390625 12.847656 -14.59375 C 13.195312 -14.796875 13.574219 -14.898438 13.992188 -14.898438 C 14.617188 -14.898438 15.152344 -14.679688 15.589844 -14.242188 C 16.027344 -13.800781 16.246094 -13.269531 16.246094 -12.644531 C 16.246094 -12.226562 16.144531 -11.84375 15.941406 -11.496094 C 15.742188 -11.152344 15.46875 -10.878906 15.132812 -10.675781 C 14.789062 -10.472656 14.410156 -10.371094 13.992188 -10.371094 Z M 13.992188 -11.003906 C 14.292969 -11.003906 14.566406 -11.078125 14.808594 -11.222656 C 15.054688 -11.367188 15.25 -11.566406 15.398438 -11.816406 C 15.542969 -12.066406 15.613281 -12.339844 15.613281 -12.644531 C 15.613281 -13.09375 15.457031 -13.480469 15.140625 -13.792969 C 14.828125 -14.109375 14.445312 -14.265625 13.992188 -14.265625 C 13.691406 -14.265625 13.414062 -14.191406 13.164062 -14.046875 C 12.914062 -13.902344 12.714844 -13.703125 12.570312 -13.460938 C 12.425781 -13.21875 12.351562 -12.945312 12.351562 -12.644531 C 12.351562 -12.339844 12.425781 -12.066406 12.570312 -11.816406 C 12.71875 -11.566406 12.914062 -11.367188 13.164062 -11.222656 C 13.414062 -11.078125 13.691406 -11.003906 13.992188 -11.003906 Z M 3.976562 -7.230469 L 6.179688 -6.199219 L 6.03125 -5.90625 C 5.835938 -5.527344 5.597656 -5.113281 5.316406 -4.664062 C 5.039062 -4.214844 4.746094 -3.769531 4.441406 -3.328125 C 4.132812 -2.882812 3.832031 -2.472656 3.535156 -2.089844 C 3.238281 -1.707031 2.96875 -1.386719 2.722656 -1.128906 L 2.539062 -0.9375 L 0.171875 -2.558594 L 0.457031 -2.828125 C 0.828125 -3.175781 1.210938 -3.59375 1.597656 -4.082031 C 1.992188 -4.574219 2.363281 -5.085938 2.710938 -5.613281 C 3.058594 -6.132812 3.339844 -6.621094 3.558594 -7.082031 L 3.691406 -7.363281 Z M 3.710938 -6.660156 L 3.84375 -6.945312 L 4.128906 -6.808594 C 3.898438 -6.324219 3.601562 -5.808594 3.238281 -5.261719 C 2.878906 -4.71875 2.496094 -4.195312 2.09375 -3.6875 C 1.683594 -3.175781 1.285156 -2.734375 0.890625 -2.367188 L 0.675781 -2.597656 L 0.851562 -2.855469 L 2.671875 -1.609375 L 2.496094 -1.347656 L 2.265625 -1.566406 C 2.496094 -1.804688 2.75 -2.109375 3.039062 -2.476562 C 3.328125 -2.851562 3.621094 -3.253906 3.921875 -3.6875 C 4.222656 -4.121094 4.507812 -4.558594 4.78125 -4.996094 C 5.050781 -5.433594 5.28125 -5.832031 5.46875 -6.195312 L 5.75 -6.050781 L 5.613281 -5.765625 Z M 13.503906 -8.128906 L 9.558594 -8.128906 L 9.558594 -8.445312 L 9.875 -8.445312 L 9.875 -0.605469 C 9.875 -0.0351562 9.699219 0.421875 9.351562 0.769531 C 9.003906 1.121094 8.488281 1.292969 7.804688 1.292969 C 7.347656 1.292969 6.878906 1.28125 6.394531 1.25 C 5.914062 1.222656 5.457031 1.1875 5.023438 1.140625 L 4.765625 1.113281 L 4.5 -1.652344 L 4.914062 -1.574219 C 5.265625 -1.507812 5.605469 -1.460938 5.941406 -1.425781 C 6.273438 -1.394531 6.535156 -1.378906 6.726562 -1.378906 C 6.808594 -1.378906 6.871094 -1.386719 6.921875 -1.402344 C 6.945312 -1.40625 6.960938 -1.414062 6.96875 -1.421875 C 7.003906 -1.460938 7.027344 -1.550781 7.035156 -1.6875 L 7.351562 -1.667969 L 7.035156 -1.667969 C 7.035156 -1.773438 7.035156 -1.988281 7.042969 -2.324219 C 7.046875 -2.652344 7.050781 -3.050781 7.050781 -3.515625 L 7.050781 -8.445312 L 7.367188 -8.445312 L 7.367188 -8.128906 L 3.085938 -8.128906 C 2.839844 -8.128906 2.570312 -8.125 2.269531 -8.113281 C 1.972656 -8.101562 1.710938 -8.085938 1.480469 -8.0625 L 1.132812 -8.03125 L 1.132812 -10.980469 L 1.492188 -10.933594 C 1.746094 -10.902344 2.015625 -10.871094 2.296875 -10.84375 C 2.574219 -10.816406 2.835938 -10.800781 3.085938 -10.800781 L 7.367188 -10.800781 L 7.367188 -10.484375 L 7.050781 -10.484375 L 7.050781 -11.835938 C 7.050781 -12.046875 7.035156 -12.300781 7.003906 -12.589844 C 6.96875 -12.882812 6.9375 -13.09375 6.90625 -13.230469 L 6.816406 -13.617188 L 10.074219 -13.617188 L 10.023438 -13.257812 C 10.011719 -13.179688 9.996094 -13.050781 9.972656 -12.875 C 9.949219 -12.695312 9.929688 -12.507812 9.90625 -12.3125 C 9.886719 -12.128906 9.875 -11.96875 9.875 -11.835938 L 9.875 -10.484375 L 9.558594 -10.484375 L 9.558594 -10.800781 L 13.488281 -10.800781 C 13.714844 -10.800781 13.988281 -10.8125 14.308594 -10.835938 C 14.625 -10.855469 14.882812 -10.882812 15.089844 -10.914062 L 15.453125 -10.972656 L 15.453125 -8.050781 L 15.109375 -8.082031 C 14.859375 -8.101562 14.585938 -8.117188 14.289062 -8.121094 C 13.988281 -8.125 13.726562 -8.128906 13.503906 -8.128906 Z M 13.503906 -8.761719 C 13.730469 -8.761719 13.996094 -8.757812 14.300781 -8.753906 C 14.613281 -8.746094 14.898438 -8.734375 15.164062 -8.710938 L 15.136719 -8.394531 L 14.820312 -8.394531 L 14.820312 -10.605469 L 15.136719 -10.605469 L 15.1875 -10.292969 C 14.964844 -10.257812 14.6875 -10.226562 14.351562 -10.203125 C 14.019531 -10.179688 13.730469 -10.167969 13.488281 -10.167969 L 9.242188 -10.167969 L 9.242188 -11.835938 C 9.242188 -11.992188 9.253906 -12.175781 9.277344 -12.382812 C 9.300781 -12.582031 9.324219 -12.773438 9.347656 -12.953125 C 9.367188 -13.132812 9.386719 -13.265625 9.398438 -13.34375 L 9.710938 -13.300781 L 9.710938 -12.984375 L 7.214844 -12.984375 L 7.214844 -13.300781 L 7.523438 -13.371094 C 7.558594 -13.214844 7.59375 -12.976562 7.628906 -12.660156 C 7.664062 -12.347656 7.683594 -12.070312 7.683594 -11.835938 L 7.683594 -10.167969 L 3.085938 -10.167969 C 2.816406 -10.167969 2.535156 -10.183594 2.238281 -10.214844 C 1.945312 -10.242188 1.671875 -10.273438 1.410156 -10.308594 L 1.449219 -10.621094 L 1.765625 -10.621094 L 1.765625 -8.378906 L 1.449219 -8.378906 L 1.417969 -8.691406 C 1.660156 -8.714844 1.9375 -8.734375 2.246094 -8.746094 C 2.554688 -8.757812 2.832031 -8.761719 3.085938 -8.761719 L 7.683594 -8.761719 L 7.683594 -3.515625 C 7.683594 -3.046875 7.679688 -2.644531 7.675781 -2.3125 C 7.667969 -1.984375 7.667969 -1.769531 7.667969 -1.667969 L 7.667969 -1.660156 L 7.664062 -1.652344 C 7.652344 -1.363281 7.570312 -1.140625 7.429688 -0.988281 C 7.277344 -0.828125 7.042969 -0.746094 6.726562 -0.746094 C 6.515625 -0.746094 6.230469 -0.761719 5.878906 -0.796875 C 5.527344 -0.832031 5.164062 -0.882812 4.796875 -0.953125 L 4.855469 -1.265625 L 5.167969 -1.292969 L 5.371094 0.796875 L 5.058594 0.824219 L 5.089844 0.511719 C 5.511719 0.554688 5.960938 0.59375 6.433594 0.621094 C 6.90625 0.648438 7.363281 0.660156 7.804688 0.660156 C 8.3125 0.660156 8.679688 0.550781 8.90625 0.324219 C 9.128906 0.0976562 9.242188 -0.210938 9.242188 -0.605469 L 9.242188 -8.761719 Z M 11.007812 -6.28125 L 13.082031 -7.402344 L 13.246094 -7.191406 C 13.460938 -6.917969 13.707031 -6.589844 13.972656 -6.207031 C 14.238281 -5.828125 14.507812 -5.429688 14.78125 -5.011719 C 15.050781 -4.589844 15.308594 -4.179688 15.546875 -3.777344 C 15.78125 -3.375 15.988281 -3.023438 16.15625 -2.714844 L 16.3125 -2.4375 L 13.75 -1.046875 L 13.605469 -1.34375 C 13.375 -1.820312 13.097656 -2.339844 12.773438 -2.902344 C 12.449219 -3.464844 12.125 -4.011719 11.792969 -4.535156 C 11.46875 -5.054688 11.175781 -5.476562 10.914062 -5.804688 L 10.675781 -6.097656 Z M 11.308594 -5.722656 L 11.160156 -6 L 11.40625 -6.199219 C 11.683594 -5.851562 11.992188 -5.410156 12.328125 -4.871094 C 12.664062 -4.339844 12.996094 -3.789062 13.320312 -3.21875 C 13.652344 -2.644531 13.9375 -2.113281 14.175781 -1.621094 L 13.890625 -1.484375 L 13.738281 -1.761719 L 15.730469 -2.839844 L 15.878906 -2.5625 L 15.605469 -2.410156 C 15.4375 -2.710938 15.234375 -3.058594 15 -3.453125 C 14.765625 -3.851562 14.515625 -4.253906 14.25 -4.667969 C 13.980469 -5.078125 13.71875 -5.472656 13.457031 -5.84375 C 13.195312 -6.214844 12.960938 -6.535156 12.75 -6.800781 L 12.996094 -6.996094 L 13.148438 -6.71875 Z M 11.308594 -5.722656 "/></g></g></g><g fill="#5ce1e6" fill-opacity="1"><g transform="translate(69.146722, 21.574599)"><g><path d="M 10.769531 -8.363281 L 10.769531 -1.464844 C 10.769531 -1.222656 10.773438 -0.960938 10.785156 -0.679688 C 10.796875 -0.398438 10.8125 -0.132812 10.835938 0.117188 C 10.855469 0.355469 10.882812 0.539062 10.910156 0.671875 L 11 1.058594 L 7.566406 1.058594 L 7.628906 0.691406 C 7.648438 0.566406 7.667969 0.382812 7.683594 0.140625 C 7.699219 -0.109375 7.714844 -0.378906 7.726562 -0.667969 C 7.738281 -0.957031 7.742188 -1.222656 7.742188 -1.464844 L 7.742188 -6.996094 L 8.058594 -6.996094 L 8.199219 -6.714844 C 7.328125 -6.273438 6.382812 -5.84375 5.363281 -5.429688 C 4.339844 -5.015625 3.332031 -4.671875 2.34375 -4.398438 L 2.109375 -4.335938 L 0.550781 -6.976562 L 0.976562 -7.070312 C 1.953125 -7.28125 2.902344 -7.546875 3.820312 -7.875 C 4.746094 -8.203125 5.609375 -8.558594 6.414062 -8.941406 C 7.21875 -9.324219 7.929688 -9.703125 8.550781 -10.082031 C 9.113281 -10.433594 9.664062 -10.820312 10.207031 -11.242188 C 10.75 -11.660156 11.253906 -12.09375 11.714844 -12.542969 C 12.175781 -12.984375 12.558594 -13.410156 12.863281 -13.8125 L 13.070312 -14.085938 L 15.378906 -11.996094 L 15.144531 -11.761719 C 14.496094 -11.113281 13.789062 -10.476562 13.03125 -9.855469 C 12.265625 -9.226562 11.464844 -8.640625 10.625 -8.097656 L 10.453125 -8.363281 Z M 10.136719 -8.363281 L 10.136719 -8.535156 L 10.28125 -8.625 C 11.101562 -9.160156 11.882812 -9.730469 12.628906 -10.34375 C 13.375 -10.953125 14.0625 -11.578125 14.695312 -12.210938 L 14.917969 -11.984375 L 14.707031 -11.75 L 12.902344 -13.386719 L 13.117188 -13.621094 L 13.367188 -13.429688 C 13.042969 -13 12.640625 -12.554688 12.15625 -12.085938 C 11.675781 -11.625 11.15625 -11.175781 10.59375 -10.742188 C 10.035156 -10.308594 9.464844 -9.90625 8.878906 -9.542969 C 8.242188 -9.152344 7.507812 -8.761719 6.683594 -8.371094 C 5.859375 -7.980469 4.976562 -7.613281 4.035156 -7.28125 C 3.089844 -6.945312 2.113281 -6.667969 1.113281 -6.449219 L 1.046875 -6.761719 L 1.316406 -6.921875 L 2.53125 -4.863281 L 2.257812 -4.703125 L 2.175781 -5.007812 C 3.140625 -5.273438 4.125 -5.609375 5.125 -6.015625 C 6.128906 -6.421875 7.058594 -6.84375 7.914062 -7.277344 L 8.375 -7.511719 L 8.375 -1.464844 C 8.375 -1.214844 8.367188 -0.941406 8.355469 -0.644531 C 8.347656 -0.351562 8.332031 -0.0742188 8.316406 0.179688 C 8.296875 0.445312 8.277344 0.648438 8.253906 0.792969 L 7.941406 0.742188 L 7.941406 0.425781 L 10.605469 0.425781 L 10.605469 0.742188 L 10.296875 0.8125 C 10.257812 0.652344 10.226562 0.4375 10.203125 0.171875 C 10.179688 -0.0859375 10.164062 -0.363281 10.152344 -0.652344 C 10.140625 -0.945312 10.136719 -1.214844 10.136719 -1.464844 Z M 10.136719 -8.363281 "/></g></g></g><g fill="#5ce1e6" fill-opacity="1"><g transform="translate(86.001841, 21.574599)"><g><path d="M 4.242188 -13.070312 C 4.539062 -12.867188 4.886719 -12.613281 5.28125 -12.3125 C 5.675781 -12.015625 6.085938 -11.695312 6.511719 -11.355469 C 6.9375 -11.015625 7.332031 -10.683594 7.703125 -10.359375 C 8.074219 -10.035156 8.386719 -9.738281 8.640625 -9.472656 L 8.851562 -9.253906 L 6.683594 -7.023438 L 6.457031 -7.273438 C 6.25 -7.503906 5.976562 -7.777344 5.632812 -8.097656 C 5.289062 -8.417969 4.914062 -8.753906 4.515625 -9.101562 C 4.113281 -9.445312 3.714844 -9.773438 3.324219 -10.085938 C 2.9375 -10.398438 2.59375 -10.65625 2.296875 -10.867188 L 2 -11.078125 L 4.019531 -13.226562 Z M 3.882812 -12.550781 L 4.0625 -12.8125 L 4.292969 -12.59375 L 2.707031 -10.910156 L 2.476562 -11.125 L 2.660156 -11.386719 C 2.96875 -11.167969 3.324219 -10.898438 3.722656 -10.582031 C 4.117188 -10.265625 4.519531 -9.929688 4.925781 -9.578125 C 5.335938 -9.226562 5.714844 -8.886719 6.066406 -8.558594 C 6.421875 -8.226562 6.707031 -7.941406 6.925781 -7.695312 L 6.691406 -7.484375 L 6.464844 -7.707031 L 8.183594 -9.476562 L 8.414062 -9.253906 L 8.183594 -9.035156 C 7.941406 -9.289062 7.644531 -9.570312 7.285156 -9.886719 C 6.921875 -10.203125 6.535156 -10.527344 6.117188 -10.863281 C 5.695312 -11.199219 5.292969 -11.511719 4.898438 -11.808594 C 4.511719 -12.105469 4.171875 -12.351562 3.882812 -12.550781 Z M 1.910156 -1.898438 C 3.203125 -2.085938 4.382812 -2.375 5.445312 -2.765625 C 6.511719 -3.160156 7.449219 -3.59375 8.25 -4.066406 C 9.1875 -4.628906 10.046875 -5.261719 10.828125 -5.972656 C 11.613281 -6.683594 12.296875 -7.433594 12.878906 -8.214844 C 13.460938 -8.992188 13.921875 -9.75 14.261719 -10.484375 L 14.523438 -11.050781 L 16.226562 -7.972656 L 16.140625 -7.820312 C 15.484375 -6.660156 14.609375 -5.519531 13.511719 -4.398438 C 12.414062 -3.277344 11.171875 -2.300781 9.789062 -1.464844 C 8.921875 -0.941406 7.949219 -0.457031 6.871094 -0.0195312 C 5.789062 0.421875 4.636719 0.746094 3.425781 0.953125 L 3.21875 0.988281 L 1.425781 -1.828125 Z M 2 -1.273438 L 1.957031 -1.585938 L 2.222656 -1.753906 L 3.636719 0.472656 L 3.371094 0.640625 L 3.320312 0.328125 C 4.488281 0.128906 5.589844 -0.179688 6.632812 -0.605469 C 7.679688 -1.03125 8.621094 -1.5 9.460938 -2.007812 C 10.800781 -2.8125 11.996094 -3.757812 13.058594 -4.839844 C 14.117188 -5.921875 14.960938 -7.019531 15.589844 -8.128906 L 15.863281 -7.972656 L 15.585938 -7.820312 L 14.273438 -10.199219 L 14.546875 -10.351562 L 14.835938 -10.21875 C 14.476562 -9.445312 13.996094 -8.652344 13.386719 -7.835938 C 12.777344 -7.019531 12.066406 -6.246094 11.253906 -5.507812 C 10.441406 -4.765625 9.546875 -4.105469 8.574219 -3.519531 C 7.734375 -3.027344 6.765625 -2.578125 5.664062 -2.171875 C 4.558594 -1.765625 3.335938 -1.464844 2 -1.273438 Z M 2 -1.273438 "/></g></g></g><g fill="#5ce1e6" fill-opacity="1"><g transform="translate(102.856961, 21.574599)"><g><path d="M 14.941406 -6.082031 L 13.847656 -3.433594 L 13.539062 -3.597656 C 12.976562 -3.898438 12.339844 -4.199219 11.632812 -4.507812 C 10.921875 -4.8125 10.207031 -5.101562 9.488281 -5.378906 C 8.765625 -5.652344 8.105469 -5.886719 7.503906 -6.089844 L 7.601562 -6.390625 L 7.917969 -6.390625 L 7.917969 -1.617188 C 7.917969 -1.46875 7.925781 -1.25 7.945312 -0.972656 C 7.960938 -0.6875 7.980469 -0.394531 8.003906 -0.0898438 C 8.023438 0.210938 8.046875 0.472656 8.070312 0.695312 L 8.105469 1.042969 L 4.75 1.042969 L 4.8125 0.671875 C 4.867188 0.355469 4.910156 -0.0195312 4.9375 -0.457031 C 4.964844 -0.902344 4.976562 -1.289062 4.976562 -1.617188 L 4.976562 -11.292969 C 4.976562 -11.589844 4.964844 -11.925781 4.9375 -12.300781 C 4.910156 -12.667969 4.867188 -12.996094 4.8125 -13.273438 L 4.742188 -13.652344 L 8.109375 -13.652344 L 8.070312 -13.296875 C 8.035156 -13.007812 8 -12.6875 7.96875 -12.335938 C 7.933594 -11.992188 7.917969 -11.644531 7.917969 -11.292969 L 7.917969 -8.816406 L 7.601562 -8.816406 L 7.695312 -9.121094 C 8.257812 -8.949219 8.871094 -8.753906 9.53125 -8.535156 C 10.191406 -8.316406 10.851562 -8.082031 11.507812 -7.839844 C 12.160156 -7.597656 12.773438 -7.359375 13.34375 -7.128906 C 13.917969 -6.894531 14.402344 -6.679688 14.789062 -6.488281 L 15.054688 -6.355469 Z M 14.355469 -6.324219 L 14.648438 -6.203125 L 14.507812 -5.921875 C 14.132812 -6.109375 13.667969 -6.316406 13.105469 -6.542969 C 12.542969 -6.773438 11.933594 -7.007812 11.285156 -7.246094 C 10.636719 -7.488281 9.984375 -7.71875 9.332031 -7.933594 C 8.675781 -8.152344 8.070312 -8.347656 7.511719 -8.515625 L 7.285156 -8.582031 L 7.285156 -11.292969 C 7.285156 -11.664062 7.304688 -12.03125 7.339844 -12.394531 C 7.371094 -12.75 7.40625 -13.078125 7.441406 -13.371094 L 7.753906 -13.335938 L 7.753906 -13.019531 L 5.125 -13.019531 L 5.125 -13.335938 L 5.433594 -13.394531 C 5.492188 -13.089844 5.539062 -12.742188 5.566406 -12.347656 C 5.59375 -11.957031 5.609375 -11.605469 5.609375 -11.292969 L 5.609375 -1.617188 C 5.609375 -1.273438 5.59375 -0.875 5.566406 -0.417969 C 5.539062 0.0429688 5.496094 0.441406 5.4375 0.777344 L 5.125 0.726562 L 5.125 0.410156 L 7.753906 0.410156 L 7.753906 0.726562 L 7.441406 0.757812 C 7.417969 0.527344 7.394531 0.261719 7.371094 -0.0429688 C 7.347656 -0.347656 7.328125 -0.644531 7.3125 -0.933594 C 7.296875 -1.226562 7.285156 -1.453125 7.285156 -1.617188 L 7.285156 -6.828125 L 7.703125 -6.6875 C 8.3125 -6.484375 8.984375 -6.246094 9.710938 -5.96875 C 10.441406 -5.691406 11.164062 -5.398438 11.882812 -5.085938 C 12.605469 -4.773438 13.257812 -4.464844 13.835938 -4.15625 L 13.6875 -3.878906 L 13.394531 -3.996094 Z M 14.355469 -6.324219 "/></g></g></g><g fill="#5ce1e6" fill-opacity="1"><g transform="translate(119.71208, 21.574599)"><g><path d="M 6.960938 -8.488281 L 6.503906 -7.898438 L 6.253906 -8.09375 L 6.3125 -8.402344 C 6.808594 -8.3125 7.324219 -8.207031 7.855469 -8.089844 C 8.386719 -7.96875 8.925781 -7.84375 9.464844 -7.707031 L 9.390625 -7.402344 L 9.222656 -7.667969 C 9.492188 -7.835938 9.71875 -8.015625 9.902344 -8.207031 C 10.089844 -8.40625 10.246094 -8.617188 10.382812 -8.84375 L 10.652344 -8.683594 L 10.652344 -8.367188 L 6.710938 -8.367188 L 6.710938 -8.683594 Z M 6.554688 -8.996094 L 11.207031 -8.996094 L 10.925781 -8.519531 C 10.769531 -8.253906 10.578125 -8.003906 10.359375 -7.773438 C 10.140625 -7.539062 9.871094 -7.324219 9.554688 -7.132812 L 9.441406 -7.0625 L 9.3125 -7.09375 C 8.777344 -7.226562 8.246094 -7.355469 7.71875 -7.472656 C 7.195312 -7.589844 6.6875 -7.691406 6.199219 -7.78125 L 5.6875 -7.875 L 6.460938 -8.875 Z M 16.082031 -2.011719 L 10.90625 -2.011719 L 10.90625 -2.328125 L 11.066406 -2.597656 C 11.789062 -2.171875 12.640625 -1.792969 13.613281 -1.460938 C 14.589844 -1.132812 15.582031 -0.886719 16.585938 -0.734375 L 17.203125 -0.640625 L 16.761719 -0.199219 C 16.558594 0.00390625 16.339844 0.265625 16.101562 0.585938 C 15.859375 0.90625 15.671875 1.191406 15.53125 1.4375 L 15.414062 1.644531 L 15.179688 1.589844 C 14.105469 1.324219 13.039062 0.945312 11.984375 0.445312 C 10.929688 -0.0546875 9.992188 -0.636719 9.171875 -1.304688 L 9.371094 -1.550781 L 9.6875 -1.550781 L 9.6875 1.765625 L 7.066406 1.765625 L 7.066406 -1.449219 L 7.382812 -1.449219 L 7.582031 -1.203125 C 6.789062 -0.558594 5.875 0.00390625 4.847656 0.488281 C 3.820312 0.96875 2.777344 1.339844 1.710938 1.605469 L 1.472656 1.664062 L 1.359375 1.449219 C 1.230469 1.214844 1.050781 0.941406 0.824219 0.632812 C 0.601562 0.332031 0.390625 0.09375 0.195312 -0.0859375 L -0.289062 -0.519531 L 0.347656 -0.632812 C 1.34375 -0.808594 2.328125 -1.070312 3.296875 -1.417969 C 4.265625 -1.765625 5.101562 -2.15625 5.800781 -2.59375 L 5.96875 -2.328125 L 5.96875 -2.011719 L 0.511719 -2.011719 L 0.511719 -4.292969 L 7.382812 -4.292969 L 7.382812 -3.976562 L 7.066406 -3.976562 L 7.066406 -5.023438 L 7.382812 -5.023438 L 7.449219 -4.714844 C 6.753906 -4.566406 5.976562 -4.4375 5.113281 -4.332031 C 4.253906 -4.222656 3.292969 -4.128906 2.230469 -4.050781 L 1.949219 -4.03125 L 1.898438 -4.308594 C 1.855469 -4.519531 1.773438 -4.765625 1.648438 -5.046875 C 1.523438 -5.335938 1.398438 -5.566406 1.285156 -5.746094 L 0.988281 -6.207031 L 1.535156 -6.234375 C 2.664062 -6.289062 3.65625 -6.363281 4.515625 -6.460938 C 5.371094 -6.554688 6.117188 -6.671875 6.757812 -6.816406 L 6.828125 -6.507812 L 6.761719 -6.199219 C 6.488281 -6.253906 6.21875 -6.316406 5.949219 -6.386719 C 5.691406 -6.453125 5.4375 -6.507812 5.1875 -6.550781 L 5.242188 -6.859375 L 5.480469 -6.652344 L 5.132812 -6.25 L 2.539062 -6.960938 L 2.882812 -7.34375 C 3.082031 -7.5625 3.292969 -7.804688 3.507812 -8.066406 L 4.191406 -8.882812 L 4.433594 -8.683594 L 4.433594 -8.367188 L 0.796875 -8.367188 L 0.796875 -10.566406 L 5.628906 -10.566406 L 5.628906 -10.25 L 5.371094 -10.429688 C 5.53125 -10.660156 5.691406 -10.878906 5.851562 -11.089844 C 6.003906 -11.292969 6.148438 -11.492188 6.28125 -11.679688 L 6.539062 -11.496094 L 6.539062 -11.179688 L 3.085938 -11.179688 L 3.085938 -11.496094 L 3.402344 -11.496094 L 3.402344 -10.253906 L 0.914062 -10.253906 L 0.914062 -13.464844 L 7.417969 -13.464844 L 7.417969 -13.148438 L 7.101562 -13.148438 L 7.101562 -14.578125 L 9.738281 -14.578125 L 9.738281 -13.148438 L 9.421875 -13.148438 L 9.421875 -13.464844 L 15.976562 -13.464844 L 15.976562 -10.253906 L 13.40625 -10.253906 L 13.40625 -11.496094 L 13.722656 -11.496094 L 13.722656 -11.179688 L 6.945312 -11.179688 L 6.945312 -11.496094 L 7.035156 -11.800781 L 9 -11.21875 L 8.734375 -10.855469 C 8.644531 -10.734375 8.554688 -10.605469 8.460938 -10.472656 C 8.363281 -10.335938 8.261719 -10.195312 8.160156 -10.058594 L 7.90625 -10.25 L 7.90625 -10.566406 L 16.09375 -10.566406 L 16.09375 -8.367188 L 12.8125 -8.367188 L 12.8125 -8.683594 L 13.101562 -8.554688 C 12.769531 -7.792969 12.308594 -7.152344 11.726562 -6.625 L 11.515625 -6.859375 L 11.597656 -7.164062 C 12.289062 -6.972656 12.9375 -6.78125 13.546875 -6.589844 C 14.160156 -6.398438 14.707031 -6.210938 15.183594 -6.027344 L 15.601562 -5.867188 L 13.960938 -3.929688 L 13.746094 -4.027344 C 13.25 -4.246094 12.644531 -4.476562 11.929688 -4.714844 C 11.207031 -4.957031 10.433594 -5.191406 9.605469 -5.425781 L 9.691406 -5.730469 L 9.816406 -5.441406 C 9.25 -5.199219 8.605469 -4.988281 7.878906 -4.816406 L 7.804688 -5.125 L 7.804688 -5.441406 L 9.6875 -5.441406 L 9.6875 -3.976562 L 9.371094 -3.976562 L 9.371094 -4.292969 L 16.398438 -4.292969 L 16.398438 -2.011719 Z M 16.082031 -2.640625 L 16.082031 -2.328125 L 15.765625 -2.328125 L 15.765625 -3.976562 L 16.082031 -3.976562 L 16.082031 -3.664062 L 9.058594 -3.664062 L 9.058594 -5.125 L 9.371094 -5.125 L 9.371094 -4.808594 L 7.804688 -4.808594 L 7.730469 -5.433594 C 8.421875 -5.597656 9.035156 -5.792969 9.570312 -6.023438 L 9.671875 -6.066406 L 9.78125 -6.035156 C 10.617188 -5.796875 11.398438 -5.558594 12.128906 -5.316406 C 12.863281 -5.070312 13.488281 -4.832031 14.003906 -4.605469 L 13.875 -4.316406 L 13.632812 -4.519531 L 14.828125 -5.9375 L 15.070312 -5.730469 L 14.957031 -5.4375 C 14.492188 -5.613281 13.957031 -5.796875 13.359375 -5.988281 C 12.753906 -6.175781 12.109375 -6.367188 11.429688 -6.554688 L 10.875 -6.710938 L 11.300781 -7.097656 C 11.820312 -7.558594 12.226562 -8.132812 12.523438 -8.808594 L 12.605469 -8.996094 L 15.777344 -8.996094 L 15.777344 -8.683594 L 15.460938 -8.683594 L 15.460938 -10.25 L 15.777344 -10.25 L 15.777344 -9.933594 L 7.273438 -9.933594 L 7.652344 -10.4375 C 7.753906 -10.570312 7.847656 -10.703125 7.945312 -10.835938 C 8.039062 -10.972656 8.132812 -11.101562 8.222656 -11.226562 L 8.480469 -11.042969 L 8.390625 -10.738281 L 6.855469 -11.195312 L 6.945312 -11.8125 L 14.039062 -11.8125 L 14.039062 -10.570312 L 13.722656 -10.570312 L 13.722656 -10.886719 L 15.660156 -10.886719 L 15.660156 -10.570312 L 15.34375 -10.570312 L 15.34375 -13.148438 L 15.660156 -13.148438 L 15.660156 -12.832031 L 9.105469 -12.832031 L 9.105469 -14.261719 L 9.421875 -14.261719 L 9.421875 -13.945312 L 7.417969 -13.945312 L 7.417969 -14.261719 L 7.734375 -14.261719 L 7.734375 -12.832031 L 1.230469 -12.832031 L 1.230469 -13.148438 L 1.546875 -13.148438 L 1.546875 -10.570312 L 1.230469 -10.570312 L 1.230469 -10.886719 L 3.085938 -10.886719 L 3.085938 -10.570312 L 2.769531 -10.570312 L 2.769531 -11.8125 L 7.152344 -11.8125 L 6.800781 -11.316406 C 6.664062 -11.121094 6.515625 -10.917969 6.355469 -10.707031 C 6.199219 -10.503906 6.042969 -10.289062 5.890625 -10.066406 L 5.796875 -9.933594 L 1.113281 -9.933594 L 1.113281 -10.25 L 1.429688 -10.25 L 1.429688 -8.683594 L 1.113281 -8.683594 L 1.113281 -8.996094 L 5.109375 -8.996094 L 3.996094 -7.664062 C 3.773438 -7.394531 3.558594 -7.148438 3.355469 -6.917969 L 3.117188 -7.132812 L 3.203125 -7.4375 L 5.105469 -6.914062 L 5.023438 -6.609375 L 4.785156 -6.816406 L 5.121094 -7.203125 L 5.296875 -7.171875 C 5.5625 -7.125 5.832031 -7.070312 6.105469 -7 C 6.363281 -6.933594 6.625 -6.871094 6.890625 -6.816406 L 6.898438 -6.199219 C 6.234375 -6.050781 5.464844 -5.925781 4.585938 -5.832031 C 3.714844 -5.734375 2.707031 -5.65625 1.566406 -5.601562 L 1.550781 -5.917969 L 1.816406 -6.089844 C 1.949219 -5.882812 2.085938 -5.621094 2.226562 -5.304688 C 2.371094 -4.976562 2.46875 -4.683594 2.519531 -4.425781 L 2.207031 -4.367188 L 2.183594 -4.679688 C 3.234375 -4.761719 4.1875 -4.851562 5.035156 -4.957031 C 5.878906 -5.0625 6.640625 -5.1875 7.316406 -5.332031 L 7.699219 -5.414062 L 7.699219 -3.664062 L 0.824219 -3.664062 L 0.824219 -3.976562 L 1.140625 -3.976562 L 1.140625 -2.328125 L 0.824219 -2.328125 L 0.824219 -2.640625 L 7.070312 -2.640625 L 6.136719 -2.058594 C 5.398438 -1.597656 4.523438 -1.183594 3.511719 -0.824219 C 2.507812 -0.464844 1.488281 -0.191406 0.460938 -0.0078125 L 0.40625 -0.320312 L 0.617188 -0.554688 C 0.84375 -0.351562 1.085938 -0.078125 1.332031 0.257812 C 1.578125 0.589844 1.769531 0.886719 1.914062 1.148438 L 1.636719 1.296875 L 1.558594 0.992188 C 2.585938 0.738281 3.589844 0.378906 4.578125 -0.0820312 C 5.558594 -0.546875 6.429688 -1.082031 7.183594 -1.695312 L 7.699219 -2.113281 L 7.699219 1.449219 L 7.382812 1.449219 L 7.382812 1.132812 L 9.371094 1.132812 L 9.371094 1.449219 L 9.058594 1.449219 L 9.058594 -2.21875 L 9.574219 -1.796875 C 10.351562 -1.160156 11.246094 -0.605469 12.257812 -0.125 C 13.269531 0.355469 14.296875 0.71875 15.332031 0.972656 L 15.257812 1.28125 L 14.980469 1.125 C 15.132812 0.855469 15.335938 0.550781 15.59375 0.207031 C 15.847656 -0.136719 16.089844 -0.421875 16.3125 -0.644531 L 16.539062 -0.421875 L 16.488281 -0.109375 C 15.449219 -0.269531 14.421875 -0.519531 13.410156 -0.863281 C 12.394531 -1.207031 11.507812 -1.605469 10.746094 -2.054688 L 9.75 -2.640625 Z M 16.082031 -2.640625 "/></g></g></g><g fill="#5ce1e6" fill-opacity="1"><g transform="translate(136.5672, 21.574599)"><g><path d="M 4.210938 -14.511719 L 6.433594 -13.804688 L 6.3125 -13.492188 C 6.085938 -12.890625 5.835938 -12.28125 5.554688 -11.671875 C 5.277344 -11.054688 4.972656 -10.453125 4.640625 -9.859375 L 4.367188 -10.011719 L 4.683594 -10.011719 L 4.683594 1.765625 L 2.144531 1.765625 L 2.144531 -7.03125 L 2.460938 -7.03125 L 2.710938 -6.832031 C 2.539062 -6.617188 2.367188 -6.40625 2.199219 -6.203125 C 2.027344 -6 1.855469 -5.800781 1.6875 -5.605469 L 1.324219 -5.195312 L 1.148438 -5.714844 C 1.097656 -5.871094 1.011719 -6.074219 0.886719 -6.324219 C 0.761719 -6.585938 0.625 -6.84375 0.480469 -7.105469 C 0.339844 -7.359375 0.214844 -7.570312 0.109375 -7.730469 L -0.0351562 -7.945312 L 0.144531 -8.128906 C 0.625 -8.621094 1.097656 -9.195312 1.550781 -9.855469 C 2.011719 -10.519531 2.4375 -11.234375 2.828125 -11.996094 C 3.222656 -12.757812 3.550781 -13.53125 3.8125 -14.3125 L 3.914062 -14.605469 Z M 4.015625 -13.910156 L 4.113281 -14.210938 L 4.414062 -14.109375 C 4.136719 -13.296875 3.796875 -12.496094 3.390625 -11.707031 C 2.984375 -10.917969 2.546875 -10.183594 2.070312 -9.496094 C 1.59375 -8.808594 1.105469 -8.203125 0.597656 -7.683594 L 0.371094 -7.90625 L 0.632812 -8.082031 C 0.75 -7.90625 0.886719 -7.683594 1.035156 -7.410156 C 1.183594 -7.140625 1.324219 -6.871094 1.457031 -6.605469 C 1.589844 -6.328125 1.6875 -6.097656 1.75 -5.914062 L 1.449219 -5.816406 L 1.210938 -6.023438 C 1.378906 -6.214844 1.546875 -6.410156 1.710938 -6.609375 C 1.878906 -6.808594 2.046875 -7.015625 2.214844 -7.226562 L 2.777344 -7.941406 L 2.777344 1.449219 L 2.460938 1.449219 L 2.460938 1.132812 L 4.367188 1.132812 L 4.367188 1.449219 L 4.050781 1.449219 L 4.050781 -10.097656 L 4.089844 -10.167969 C 4.410156 -10.746094 4.707031 -11.332031 4.980469 -11.929688 C 5.253906 -12.53125 5.5 -13.125 5.722656 -13.714844 L 6.019531 -13.605469 L 5.921875 -13.304688 Z M 16.550781 -6.152344 L 16.550781 -3.882812 L 11.917969 -3.882812 L 11.917969 -4.199219 L 12.234375 -4.199219 L 12.234375 1.78125 L 9.578125 1.78125 L 9.578125 -4.199219 L 9.894531 -4.199219 L 9.894531 -3.882812 L 5.027344 -3.882812 L 5.027344 -6.46875 L 9.894531 -6.46875 L 9.894531 -6.152344 L 9.578125 -6.152344 L 9.578125 -9.050781 L 9.894531 -9.050781 L 9.894531 -8.738281 L 7.839844 -8.738281 L 7.839844 -9.050781 L 8.136719 -8.949219 C 7.988281 -8.519531 7.820312 -8.117188 7.632812 -7.734375 C 7.449219 -7.351562 7.257812 -7.007812 7.058594 -6.703125 L 6.875 -6.425781 L 6.609375 -6.621094 C 6.492188 -6.707031 6.332031 -6.804688 6.128906 -6.925781 C 5.917969 -7.046875 5.707031 -7.164062 5.488281 -7.28125 C 5.28125 -7.394531 5.097656 -7.480469 4.941406 -7.546875 L 4.570312 -7.691406 L 4.796875 -8.019531 C 5.089844 -8.441406 5.355469 -8.9375 5.601562 -9.511719 C 5.847656 -10.097656 6.070312 -10.722656 6.261719 -11.390625 C 6.457031 -12.0625 6.613281 -12.734375 6.734375 -13.40625 L 6.792969 -13.726562 L 9.359375 -13.191406 L 9.292969 -12.882812 C 9.226562 -12.550781 9.148438 -12.222656 9.0625 -11.898438 C 8.980469 -11.574219 8.890625 -11.25 8.800781 -10.925781 L 8.496094 -11.007812 L 8.496094 -11.324219 L 9.894531 -11.324219 L 9.894531 -11.007812 L 9.578125 -11.007812 L 9.578125 -14.375 L 12.234375 -14.375 L 12.234375 -11.007812 L 11.917969 -11.007812 L 11.917969 -11.324219 L 15.757812 -11.324219 L 15.757812 -8.738281 L 11.917969 -8.738281 L 11.917969 -9.050781 L 12.234375 -9.050781 L 12.234375 -6.152344 L 11.917969 -6.152344 L 11.917969 -6.46875 L 16.550781 -6.46875 Z M 15.917969 -6.152344 L 16.234375 -6.152344 L 16.234375 -5.835938 L 11.601562 -5.835938 L 11.601562 -9.367188 L 15.441406 -9.367188 L 15.441406 -9.050781 L 15.125 -9.050781 L 15.125 -11.007812 L 15.441406 -11.007812 L 15.441406 -10.691406 L 11.601562 -10.691406 L 11.601562 -14.058594 L 11.917969 -14.058594 L 11.917969 -13.742188 L 9.894531 -13.742188 L 9.894531 -14.058594 L 10.210938 -14.058594 L 10.210938 -10.691406 L 8.082031 -10.691406 L 8.191406 -11.09375 C 8.28125 -11.417969 8.367188 -11.738281 8.453125 -12.058594 C 8.535156 -12.371094 8.609375 -12.691406 8.675781 -13.011719 L 8.984375 -12.945312 L 8.921875 -12.636719 L 6.980469 -13.042969 L 7.046875 -13.351562 L 7.359375 -13.296875 C 7.230469 -12.597656 7.070312 -11.90625 6.871094 -11.214844 C 6.667969 -10.523438 6.441406 -9.875 6.183594 -9.265625 C 5.921875 -8.652344 5.632812 -8.113281 5.316406 -7.660156 L 5.058594 -7.839844 L 5.175781 -8.132812 C 5.355469 -8.0625 5.558594 -7.960938 5.789062 -7.839844 C 6.011719 -7.71875 6.230469 -7.597656 6.445312 -7.472656 C 6.667969 -7.34375 6.847656 -7.230469 6.980469 -7.132812 L 6.792969 -6.878906 L 6.527344 -7.050781 C 6.710938 -7.332031 6.890625 -7.652344 7.066406 -8.011719 C 7.238281 -8.371094 7.398438 -8.753906 7.539062 -9.15625 L 7.613281 -9.367188 L 10.210938 -9.367188 L 10.210938 -5.835938 L 5.34375 -5.835938 L 5.34375 -6.152344 L 5.660156 -6.152344 L 5.660156 -4.199219 L 5.34375 -4.199219 L 5.34375 -4.515625 L 10.210938 -4.515625 L 10.210938 1.464844 L 9.894531 1.464844 L 9.894531 1.152344 L 11.917969 1.152344 L 11.917969 1.464844 L 11.601562 1.464844 L 11.601562 -4.515625 L 16.234375 -4.515625 L 16.234375 -4.199219 L 15.917969 -4.199219 Z M 15.917969 -6.152344 "/></g></g></g><g fill="#5ce1e6" fill-opacity="1"><g transform="translate(153.422319, 21.574599)"><g><path d="M 2.828125 -13.242188 L 15.472656 -6.613281 L 15.472656 -6.164062 L 2.550781 0.609375 L 1.441406 -1.464844 L 11.386719 -6.636719 L 11.53125 -6.355469 L 11.214844 -6.355469 L 11.214844 -6.421875 L 11.53125 -6.421875 L 11.386719 -6.140625 L 1.441406 -11.3125 L 2.550781 -13.390625 Z M 2.535156 -12.683594 L 2.679688 -12.964844 L 2.960938 -12.816406 L 2.148438 -11.296875 L 1.871094 -11.445312 L 2.015625 -11.726562 L 11.847656 -6.613281 L 11.847656 -6.164062 L 2.015625 -1.050781 L 1.871094 -1.332031 L 2.148438 -1.480469 L 2.960938 0.0351562 L 2.679688 0.183594 L 2.535156 -0.09375 L 15.007812 -6.636719 L 15.15625 -6.355469 L 14.839844 -6.355469 L 14.839844 -6.421875 L 15.15625 -6.421875 L 15.007812 -6.144531 Z M 2.535156 -12.683594 "/></g></g></g></svg>