<svg xmlns="http://www.w3.org/2000/svg" xmlns:xlink="http://www.w3.org/1999/xlink" width="150" zoomAndPan="magnify" viewBox="0 0 112.5 37.5" height="50" preserveAspectRatio="xMidYMid meet" version="1.0"><defs><g/></defs><g fill="#aaf0f3" fill-opacity="1"><g transform="translate(24.192455, 28.97776)"><g><path d="M 7.796875 0 L 7.796875 -20.171875 L 0.984375 -20.171875 L 0.984375 -23.234375 L 18.3125 -23.234375 L 18.3125 -20.171875 L 11.46875 -20.171875 L 11.46875 0 Z M 7.796875 0 "/></g></g></g><g fill="#aaf0f3" fill-opacity="1"><g transform="translate(47.99816, 28.97776)"><g><path d="M 6.859375 0.40625 C 5.359375 0.40625 4.128906 -0.046875 3.171875 -0.953125 C 2.210938 -1.859375 1.734375 -3.078125 1.734375 -4.609375 C 1.734375 -6.484375 2.554688 -7.925781 4.203125 -8.9375 C 5.859375 -9.945312 8.5 -10.648438 12.125 -11.046875 C 12.125 -11.722656 12.023438 -12.347656 11.828125 -12.921875 C 11.628906 -13.503906 11.289062 -13.96875 10.8125 -14.3125 C 10.34375 -14.664062 9.675781 -14.84375 8.8125 -14.84375 C 7.90625 -14.84375 7.023438 -14.664062 6.171875 -14.3125 C 5.316406 -13.96875 4.523438 -13.554688 3.796875 -13.078125 L 2.4375 -15.53125 C 3.34375 -16.101562 4.390625 -16.625 5.578125 -17.09375 C 6.765625 -17.570312 8.050781 -17.8125 9.4375 -17.8125 C 11.601562 -17.8125 13.195312 -17.160156 14.21875 -15.859375 C 15.238281 -14.566406 15.75 -12.765625 15.75 -10.453125 L 15.75 0 L 12.796875 0 L 12.46875 -1.984375 L 12.375 -1.984375 C 11.59375 -1.316406 10.738281 -0.75 9.8125 -0.28125 C 8.894531 0.175781 7.910156 0.40625 6.859375 0.40625 Z M 7.953125 -2.46875 C 8.710938 -2.46875 9.414062 -2.640625 10.0625 -2.984375 C 10.71875 -3.328125 11.40625 -3.828125 12.125 -4.484375 L 12.125 -8.75 C 9.5625 -8.4375 7.769531 -7.957031 6.75 -7.3125 C 5.738281 -6.664062 5.234375 -5.847656 5.234375 -4.859375 C 5.234375 -4.015625 5.492188 -3.40625 6.015625 -3.03125 C 6.535156 -2.65625 7.179688 -2.46875 7.953125 -2.46875 Z M 7.953125 -2.46875 "/></g></g></g><g fill="#aaf0f3" fill-opacity="1"><g transform="translate(70.698863, 28.97776)"><g><path d="M 2.75 7.046875 L 2.75 -17.375 L 5.71875 -17.375 L 6 -15.46875 L 6.09375 -15.46875 C 6.851562 -16.101562 7.691406 -16.648438 8.609375 -17.109375 C 9.523438 -17.578125 10.46875 -17.8125 11.4375 -17.8125 C 12.90625 -17.8125 14.148438 -17.441406 15.171875 -16.703125 C 16.191406 -15.960938 16.96875 -14.9375 17.5 -13.625 C 18.039062 -12.3125 18.3125 -10.757812 18.3125 -8.96875 C 18.3125 -6.988281 17.957031 -5.296875 17.25 -3.890625 C 16.550781 -2.492188 15.632812 -1.425781 14.5 -0.6875 C 13.363281 0.0390625 12.140625 0.40625 10.828125 0.40625 C 10.046875 0.40625 9.269531 0.238281 8.5 -0.09375 C 7.738281 -0.425781 6.988281 -0.910156 6.25 -1.546875 L 6.34375 1.421875 L 6.34375 7.046875 Z M 10.140625 -2.59375 C 11.398438 -2.59375 12.453125 -3.132812 13.296875 -4.21875 C 14.140625 -5.300781 14.5625 -6.863281 14.5625 -8.90625 C 14.5625 -10.71875 14.242188 -12.148438 13.609375 -13.203125 C 12.972656 -14.253906 11.929688 -14.78125 10.484375 -14.78125 C 9.203125 -14.78125 7.820312 -14.070312 6.34375 -12.65625 L 6.34375 -4.171875 C 7.019531 -3.578125 7.6875 -3.164062 8.34375 -2.9375 C 9.007812 -2.707031 9.609375 -2.59375 10.140625 -2.59375 Z M 10.140625 -2.59375 "/></g></g></g><g fill="#5ce1e6" fill-opacity="1"><g transform="translate(22.796875, 27.58218)"><g><path d="M 7.207031 0 L 7.207031 -20.175781 L 7.796875 -20.175781 L 7.796875 -19.582031 L 0.386719 -19.582031 L 0.386719 -23.832031 L 18.90625 -23.832031 L 18.90625 -19.582031 L 11.460938 -19.582031 L 11.460938 -20.175781 L 12.054688 -20.175781 L 12.054688 0.59375 L 7.207031 0.59375 Z M 8.390625 0 L 7.796875 0 L 7.796875 -0.59375 L 11.460938 -0.59375 L 11.460938 0 L 10.871094 0 L 10.871094 -20.769531 L 18.3125 -20.769531 L 18.3125 -20.175781 L 17.722656 -20.175781 L 17.722656 -23.238281 L 18.3125 -23.238281 L 18.3125 -22.644531 L 0.980469 -22.644531 L 0.980469 -23.238281 L 1.570312 -23.238281 L 1.570312 -20.175781 L 0.980469 -20.175781 L 0.980469 -20.769531 L 8.390625 -20.769531 Z M 8.390625 0 "/></g></g></g><g fill="#5ce1e6" fill-opacity="1"><g transform="translate(46.60258, 27.58218)"><g><path d="M 6.851562 1.003906 C 5.199219 1.003906 3.839844 0.496094 2.765625 -0.515625 C 1.683594 -1.539062 1.144531 -2.902344 1.144531 -4.609375 C 1.144531 -6.703125 2.066406 -8.316406 3.90625 -9.441406 C 5.632812 -10.496094 8.351562 -11.230469 12.058594 -11.640625 L 12.125 -11.050781 L 11.53125 -11.050781 C 11.53125 -11.660156 11.441406 -12.21875 11.265625 -12.734375 C 11.105469 -13.199219 10.839844 -13.566406 10.464844 -13.839844 C 10.09375 -14.113281 9.542969 -14.246094 8.808594 -14.246094 C 7.980469 -14.246094 7.175781 -14.089844 6.394531 -13.769531 C 5.578125 -13.4375 4.820312 -13.039062 4.113281 -12.578125 L 3.578125 -12.226562 L 1.644531 -15.738281 L 2.117188 -16.035156 C 3.050781 -16.625 4.132812 -17.160156 5.355469 -17.648438 C 6.613281 -18.148438 7.976562 -18.398438 9.441406 -18.398438 C 11.800781 -18.398438 13.550781 -17.675781 14.6875 -16.234375 C 15.792969 -14.832031 16.347656 -12.902344 16.347656 -10.449219 L 16.347656 0.59375 L 12.28125 0.59375 L 11.886719 -1.894531 L 12.472656 -1.988281 L 12.472656 -1.398438 L 12.378906 -1.398438 L 12.378906 -1.988281 L 12.765625 -1.542969 C 11.949219 -0.835938 11.054688 -0.238281 10.085938 0.246094 C 9.074219 0.75 7.996094 1.003906 6.851562 1.003906 Z M 6.851562 -0.179688 C 7.8125 -0.179688 8.710938 -0.390625 9.554688 -0.8125 C 10.4375 -1.253906 11.25 -1.796875 11.988281 -2.4375 L 12.15625 -2.582031 L 12.976562 -2.582031 L 13.371094 -0.09375 L 12.789062 0 L 12.789062 -0.59375 L 15.753906 -0.59375 L 15.753906 0 L 15.164062 0 L 15.164062 -10.449219 C 15.164062 -12.628906 14.695312 -14.3125 13.757812 -15.5 C 12.855469 -16.644531 11.417969 -17.214844 9.441406 -17.214844 C 8.128906 -17.214844 6.910156 -16.992188 5.792969 -16.546875 C 4.636719 -16.085938 3.621094 -15.582031 2.746094 -15.03125 L 2.429688 -15.535156 L 2.949219 -15.820312 L 4.308594 -13.359375 L 3.789062 -13.070312 L 3.464844 -13.566406 C 4.234375 -14.070312 5.0625 -14.503906 5.949219 -14.867188 C 6.875 -15.242188 7.828125 -15.433594 8.808594 -15.433594 C 9.800781 -15.433594 10.585938 -15.21875 11.164062 -14.796875 C 11.738281 -14.375 12.144531 -13.816406 12.382812 -13.121094 C 12.605469 -12.480469 12.714844 -11.789062 12.714844 -11.050781 L 12.714844 -10.519531 L 12.1875 -10.460938 C 8.65625 -10.070312 6.101562 -9.394531 4.523438 -8.429688 C 3.058594 -7.535156 2.328125 -6.261719 2.328125 -4.609375 C 2.328125 -3.242188 2.746094 -2.164062 3.578125 -1.378906 C 4.421875 -0.582031 5.515625 -0.179688 6.851562 -0.179688 Z M 7.957031 -3.054688 C 8.617188 -3.054688 9.226562 -3.207031 9.792969 -3.507812 C 10.402344 -3.832031 11.046875 -4.300781 11.726562 -4.921875 L 12.125 -4.484375 L 11.53125 -4.484375 L 11.53125 -8.746094 L 12.125 -8.746094 L 12.195312 -8.160156 C 9.71875 -7.851562 8.007812 -7.402344 7.074219 -6.808594 C 6.246094 -6.285156 5.832031 -5.636719 5.832031 -4.863281 C 5.832031 -4.21875 6.011719 -3.769531 6.367188 -3.507812 C 6.777344 -3.207031 7.308594 -3.054688 7.957031 -3.054688 Z M 7.957031 -1.871094 C 7.046875 -1.871094 6.285156 -2.097656 5.664062 -2.554688 C 4.988281 -3.050781 4.648438 -3.820312 4.648438 -4.863281 C 4.648438 -6.070312 5.246094 -7.050781 6.4375 -7.808594 C 7.523438 -8.5 9.394531 -9.007812 12.050781 -9.332031 L 12.714844 -9.414062 L 12.714844 -4.222656 L 12.523438 -4.046875 C 11.769531 -3.359375 11.046875 -2.832031 10.351562 -2.460938 C 9.609375 -2.066406 8.8125 -1.871094 7.957031 -1.871094 Z M 7.957031 -1.871094 "/></g></g></g><g fill="#5ce1e6" fill-opacity="1"><g transform="translate(69.303283, 27.58218)"><g><path d="M 2.15625 7.039062 L 2.15625 -17.957031 L 6.226562 -17.957031 L 6.585938 -15.558594 L 6 -15.472656 L 6 -16.0625 L 6.09375 -16.0625 L 6.09375 -15.472656 L 5.714844 -15.925781 C 6.507812 -16.585938 7.382812 -17.15625 8.335938 -17.640625 C 9.335938 -18.148438 10.367188 -18.398438 11.429688 -18.398438 C 13.03125 -18.398438 14.394531 -17.996094 15.519531 -17.183594 C 16.628906 -16.378906 17.476562 -15.269531 18.054688 -13.847656 C 18.621094 -12.460938 18.90625 -10.832031 18.90625 -8.96875 C 18.90625 -6.894531 18.53125 -5.117188 17.785156 -3.632812 C 17.03125 -2.136719 16.039062 -0.992188 14.816406 -0.199219 C 13.578125 0.601562 12.25 1.003906 10.828125 1.003906 C 9.96875 1.003906 9.117188 0.816406 8.269531 0.449219 C 7.449219 0.0859375 6.648438 -0.429688 5.867188 -1.097656 L 6.25 -1.546875 L 6.84375 -1.566406 L 6.9375 1.410156 L 6.9375 7.632812 L 2.15625 7.632812 Z M 3.339844 7.039062 L 2.746094 7.039062 L 2.746094 6.449219 L 6.347656 6.449219 L 6.347656 7.039062 L 5.753906 7.039062 L 5.753906 1.421875 L 6.347656 1.421875 L 5.753906 1.441406 L 5.617188 -2.871094 L 6.636719 -1.996094 C 7.328125 -1.402344 8.03125 -0.949219 8.746094 -0.636719 C 9.4375 -0.332031 10.132812 -0.179688 10.828125 -0.179688 C 12.019531 -0.179688 13.132812 -0.519531 14.171875 -1.191406 C 15.21875 -1.871094 16.070312 -2.863281 16.726562 -4.164062 C 17.390625 -5.480469 17.722656 -7.082031 17.722656 -8.96875 C 17.722656 -10.679688 17.46875 -12.15625 16.960938 -13.402344 C 16.464844 -14.613281 15.753906 -15.550781 14.824219 -16.222656 C 13.90625 -16.882812 12.777344 -17.214844 11.429688 -17.214844 C 10.554688 -17.214844 9.703125 -17.003906 8.871094 -16.585938 C 7.996094 -16.140625 7.195312 -15.621094 6.472656 -15.015625 L 6.308594 -14.878906 L 5.488281 -14.878906 L 5.128906 -17.277344 L 5.714844 -17.367188 L 5.714844 -16.773438 L 2.746094 -16.773438 L 2.746094 -17.367188 L 3.339844 -17.367188 Z M 10.136719 -3.179688 C 11.203125 -3.179688 12.101562 -3.648438 12.824219 -4.578125 C 13.585938 -5.554688 13.964844 -6.996094 13.964844 -8.902344 C 13.964844 -10.605469 13.675781 -11.933594 13.101562 -12.894531 C 12.585938 -13.753906 11.710938 -14.183594 10.484375 -14.183594 C 9.355469 -14.183594 8.113281 -13.535156 6.753906 -12.234375 L 6.347656 -12.660156 L 6.9375 -12.660156 L 6.9375 -4.167969 L 6.347656 -4.167969 L 6.734375 -4.613281 C 7.351562 -4.074219 7.957031 -3.703125 8.546875 -3.496094 C 9.144531 -3.285156 9.675781 -3.179688 10.136719 -3.179688 Z M 10.136719 -1.996094 C 9.542969 -1.996094 8.882812 -2.125 8.15625 -2.378906 C 7.421875 -2.632812 6.6875 -3.082031 5.957031 -3.722656 L 5.753906 -3.898438 L 5.753906 -12.914062 L 5.9375 -13.089844 C 7.523438 -14.609375 9.039062 -15.367188 10.484375 -15.367188 C 12.160156 -15.367188 13.371094 -14.746094 14.117188 -13.503906 C 14.804688 -12.355469 15.148438 -10.824219 15.148438 -8.902344 C 15.148438 -6.726562 14.683594 -5.042969 13.761719 -3.851562 C 12.800781 -2.617188 11.589844 -1.996094 10.136719 -1.996094 Z M 10.136719 -1.996094 "/></g></g></g></svg>