<svg xmlns="http://www.w3.org/2000/svg" xmlns:xlink="http://www.w3.org/1999/xlink" width="1080" zoomAndPan="magnify" viewBox="0 0 810 1439.999935" height="1920" preserveAspectRatio="xMidYMid meet" version="1.0"><defs><clipPath id="f9f207eba5"><path d="M 244.257812 697.625 L 324.507812 697.625 L 324.507812 777.875 L 244.257812 777.875 Z M 244.257812 697.625 " clip-rule="nonzero"/></clipPath><clipPath id="73f135314f"><path d="M 32.476562 698 L 114 698 L 114 777 L 32.476562 777 Z M 32.476562 698 " clip-rule="nonzero"/></clipPath><clipPath id="a43a15e52b"><path d="M 651.3125 697.625 L 733.0625 697.625 L 733.0625 780.125 L 651.3125 780.125 Z M 651.3125 697.625 " clip-rule="nonzero"/></clipPath><clipPath id="653ec33fa4"><path d="M 469 690.273438 L 511 690.273438 L 511 732 L 469 732 Z M 469 690.273438 " clip-rule="nonzero"/></clipPath><clipPath id="33311e9953"><path d="M 454.546875 733 L 525.046875 733 L 525.046875 785.523438 L 454.546875 785.523438 Z M 454.546875 733 " clip-rule="nonzero"/></clipPath></defs><path stroke-linecap="butt" transform="matrix(0.75, 0, 0, 0.75, 0.0000182812, 654.274603)" fill="none" stroke-linejoin="miter" d="M -0.000024375 1.998446 L 1080.000069 1.998446 " stroke="#000000" stroke-width="4" stroke-opacity="1" stroke-miterlimit="4"/><g clip-path="url(#f9f207eba5)"><path fill="#a6a6a6" d="M 324.238281 731.25 L 285.492188 698.042969 C 284.9375 697.625 284.246094 697.625 283.695312 698.042969 L 244.949219 731.25 C 244.398438 731.804688 244.257812 732.632812 244.8125 733.1875 C 245.367188 733.742188 246.195312 733.878906 246.75 733.324219 L 251.316406 729.3125 L 251.316406 776.773438 C 251.316406 777.605469 251.867188 778.15625 252.699219 778.15625 L 316.347656 778.15625 C 317.179688 778.15625 317.734375 777.605469 317.734375 776.773438 L 317.734375 729.3125 L 322.300781 733.324219 C 322.574219 733.601562 322.851562 733.601562 323.269531 733.601562 C 323.683594 733.601562 324.097656 733.464844 324.375 733.1875 C 324.789062 732.632812 324.789062 731.664062 324.238281 731.25 Z M 324.238281 731.25 " fill-opacity="1" fill-rule="nonzero"/></g><g clip-path="url(#73f135314f)"><path fill="#a6a6a6" d="M 113.796875 761.1875 C 113.007812 754.367188 111.902344 747.582031 110.910156 740.785156 C 110.800781 740.011719 110.65625 739.242188 110.480469 738.484375 C 110.300781 737.722656 110.089844 736.972656 109.84375 736.230469 C 109.601562 735.488281 109.324219 734.761719 109.011719 734.042969 C 108.703125 733.328125 108.359375 732.625 107.988281 731.941406 C 107.613281 731.253906 107.210938 730.585938 106.777344 729.9375 C 106.34375 729.289062 105.882812 728.660156 105.394531 728.050781 C 104.902344 727.445312 104.386719 726.859375 103.84375 726.296875 C 103.304688 725.734375 102.738281 725.199219 102.144531 724.6875 C 101.554688 724.175781 100.945312 723.695312 100.308594 723.238281 C 99.675781 722.78125 99.023438 722.355469 98.351562 721.957031 C 97.679688 721.558594 96.992188 721.195312 96.285156 720.859375 C 95.582031 720.523438 94.863281 720.21875 94.128906 719.949219 C 93.398438 719.675781 92.65625 719.441406 91.902344 719.234375 C 91.148438 719.03125 90.386719 718.859375 89.617188 718.726562 C 88.847656 718.589844 88.074219 718.488281 87.296875 718.421875 C 86.519531 718.355469 85.738281 718.324219 84.960938 718.328125 C 81.550781 718.328125 78.144531 718.328125 74.738281 718.328125 C 74.746094 718.144531 74.769531 717.964844 74.800781 717.785156 C 75.042969 716.707031 75.574219 715.792969 76.390625 715.046875 C 76.785156 714.699219 77.226562 714.417969 77.710938 714.207031 C 77.890625 714.121094 77.898438 714.117188 77.726562 714.207031 C 77.914062 714.136719 78.105469 714.078125 78.300781 714.023438 C 78.589844 713.941406 78.882812 713.878906 79.1875 713.820312 C 79.285156 713.8125 79.382812 713.792969 79.476562 713.769531 C 79.582031 713.757812 79.683594 713.742188 79.789062 713.734375 C 80.148438 713.699219 80.515625 713.671875 80.871094 713.652344 C 81.542969 713.609375 82.214844 713.585938 82.890625 713.542969 C 85.96875 713.347656 89.109375 712.699219 91.15625 710.171875 C 92.160156 708.769531 92.8125 707.21875 93.113281 705.519531 C 93.414062 703.820312 93.335938 702.136719 92.878906 700.472656 C 92.773438 700.101562 92.601562 699.765625 92.363281 699.460938 C 92.125 699.160156 91.839844 698.910156 91.503906 698.722656 C 91.167969 698.53125 90.808594 698.410156 90.425781 698.359375 C 90.046875 698.308594 89.667969 698.335938 89.292969 698.433594 C 88.925781 698.542969 88.589844 698.714844 88.289062 698.953125 C 87.988281 699.195312 87.742188 699.480469 87.550781 699.8125 C 87.363281 700.148438 87.242188 700.507812 87.191406 700.886719 C 87.136719 701.269531 87.160156 701.644531 87.253906 702.015625 C 87.457031 703.160156 87.4375 704.300781 87.203125 705.441406 C 87.105469 705.835938 86.917969 706.1875 86.652344 706.496094 C 86.382812 706.804688 86.0625 707.035156 85.683594 707.1875 C 85.65625 707.175781 85.015625 707.410156 84.925781 707.433594 C 84.683594 707.492188 84.441406 707.539062 84.199219 707.578125 C 84.207031 707.566406 83.585938 707.65625 83.492188 707.664062 C 83.136719 707.691406 82.777344 707.714844 82.421875 707.734375 C 80.867188 707.785156 79.324219 707.929688 77.789062 708.164062 C 76.183594 708.449219 74.714844 709.066406 73.390625 710.015625 C 72.0625 710.964844 71.003906 712.148438 70.210938 713.574219 C 69.417969 715.054688 69 716.632812 68.957031 718.3125 C 66.589844 718.3125 64.226562 718.300781 61.859375 718.34375 C 60.179688 718.359375 58.507812 718.511719 56.851562 718.796875 C 55.554688 719.042969 54.285156 719.382812 53.042969 719.820312 C 51.796875 720.257812 50.59375 720.785156 49.429688 721.40625 C 48.265625 722.023438 47.15625 722.730469 46.097656 723.519531 C 45.042969 724.308594 44.050781 725.171875 43.125 726.113281 C 42.203125 727.050781 41.351562 728.058594 40.582031 729.125 C 39.808594 730.195312 39.121094 731.316406 38.519531 732.492188 C 37.921875 733.664062 37.410156 734.875 36.996094 736.128906 C 36.578125 737.378906 36.257812 738.65625 36.035156 739.953125 C 34.945312 746.863281 34.003906 753.796875 33.0625 760.726562 C 32.910156 761.707031 32.871094 762.6875 32.945312 763.675781 C 33.015625 764.664062 33.199219 765.628906 33.492188 766.578125 C 33.789062 767.523438 34.183594 768.421875 34.683594 769.277344 C 35.179688 770.132812 35.769531 770.921875 36.449219 771.640625 C 36.824219 772.058594 37.222656 772.453125 37.648438 772.820312 C 38.070312 773.191406 38.515625 773.53125 38.984375 773.84375 C 39.449219 774.15625 39.933594 774.441406 40.433594 774.695312 C 40.9375 774.949219 41.449219 775.167969 41.980469 775.359375 C 42.507812 775.546875 43.046875 775.703125 43.59375 775.828125 C 44.144531 775.949219 44.695312 776.039062 45.257812 776.09375 C 45.816406 776.148438 46.375 776.167969 46.9375 776.152344 C 47.5 776.136719 48.058594 776.085938 48.613281 776.003906 C 49.167969 775.917969 49.714844 775.800781 50.257812 775.648438 C 50.796875 775.496094 51.328125 775.3125 51.84375 775.09375 C 52.363281 774.875 52.867188 774.628906 53.351562 774.347656 C 53.839844 774.066406 54.308594 773.757812 54.757812 773.421875 C 55.207031 773.082031 55.632812 772.71875 56.035156 772.328125 C 56.4375 771.9375 56.816406 771.523438 57.167969 771.085938 C 57.523438 770.648438 57.847656 770.191406 58.140625 769.714844 C 58.4375 769.238281 58.703125 768.742188 58.9375 768.230469 C 60.386719 765.257812 61.886719 762.308594 63.355469 759.34375 C 63.421875 759.167969 63.535156 759.027344 63.695312 758.925781 C 63.855469 758.828125 64.03125 758.785156 64.222656 758.804688 C 70.339844 758.820312 76.457031 758.820312 82.578125 758.804688 C 82.765625 758.78125 82.941406 758.820312 83.105469 758.917969 C 83.269531 759.015625 83.382812 759.15625 83.453125 759.332031 C 84.910156 762.277344 86.40625 765.195312 87.839844 768.152344 C 88.179688 768.910156 88.589844 769.632812 89.066406 770.316406 C 89.539062 771 90.074219 771.636719 90.667969 772.222656 C 91.257812 772.808594 91.898438 773.335938 92.589844 773.804688 C 93.277344 774.269531 94.003906 774.671875 94.765625 775.007812 C 95.527344 775.34375 96.316406 775.605469 97.128906 775.796875 C 97.9375 775.984375 98.761719 776.101562 99.59375 776.140625 C 100.425781 776.179688 101.253906 776.140625 102.078125 776.027344 C 102.902344 775.914062 103.710938 775.726562 104.503906 775.464844 C 105.238281 775.234375 105.949219 774.941406 106.632812 774.585938 C 107.316406 774.230469 107.964844 773.820312 108.578125 773.355469 C 109.191406 772.886719 109.761719 772.371094 110.285156 771.808594 C 110.8125 771.242188 111.285156 770.636719 111.703125 769.992188 C 112.125 769.34375 112.488281 768.667969 112.792969 767.957031 C 113.09375 767.25 113.335938 766.519531 113.515625 765.769531 C 113.691406 765.019531 113.804688 764.261719 113.851562 763.492188 C 113.898438 762.722656 113.878906 761.953125 113.796875 761.1875 Z M 64.707031 741.445312 L 58.945312 741.445312 L 58.945312 747.1875 L 53.226562 747.1875 L 53.226562 741.476562 L 47.398438 741.476562 C 47.398438 739.582031 47.386719 737.8125 47.425781 736.039062 C 47.425781 735.914062 47.800781 735.699219 48.007812 735.695312 C 49.4375 735.664062 50.867188 735.679688 52.296875 735.679688 L 53.167969 735.679688 L 53.167969 729.972656 L 58.917969 729.972656 L 58.917969 735.679688 C 60.675781 735.679688 62.300781 735.707031 63.925781 735.667969 C 64.554688 735.652344 64.746094 735.835938 64.726562 736.472656 C 64.675781 738.097656 64.707031 739.722656 64.707031 741.445312 Z M 90.785156 727.03125 C 91.292969 727.035156 91.785156 727.136719 92.253906 727.335938 C 92.722656 727.535156 93.136719 727.816406 93.492188 728.179688 C 93.847656 728.542969 94.125 728.960938 94.3125 729.433594 C 94.503906 729.90625 94.597656 730.394531 94.59375 730.90625 C 94.585938 731.414062 94.484375 731.902344 94.285156 732.371094 C 94.085938 732.839844 93.804688 733.253906 93.4375 733.609375 C 93.074219 733.964844 92.65625 734.238281 92.183594 734.425781 C 91.710938 734.617188 91.21875 734.707031 90.710938 734.699219 C 90.199219 734.695312 89.710938 734.589844 89.242188 734.390625 C 88.777344 734.1875 88.363281 733.90625 88.007812 733.539062 C 87.652344 733.175781 87.382812 732.753906 87.195312 732.28125 C 87.007812 731.808594 86.917969 731.316406 86.925781 730.808594 C 86.929688 730.300781 87.03125 729.816406 87.230469 729.351562 C 87.429688 728.886719 87.710938 728.480469 88.070312 728.125 C 88.433594 727.773438 88.847656 727.503906 89.316406 727.3125 C 89.785156 727.125 90.273438 727.035156 90.777344 727.039062 Z M 83.0625 742.410156 C 82.554688 742.410156 82.066406 742.316406 81.59375 742.125 C 81.121094 741.929688 80.707031 741.65625 80.34375 741.296875 C 79.984375 740.9375 79.703125 740.523438 79.507812 740.054688 C 79.308594 739.585938 79.210938 739.09375 79.210938 738.585938 C 79.207031 738.078125 79.304688 737.585938 79.496094 737.113281 C 79.6875 736.644531 79.964844 736.226562 80.324219 735.867188 C 80.683594 735.503906 81.097656 735.226562 81.566406 735.03125 C 82.035156 734.832031 82.527344 734.734375 83.035156 734.730469 C 83.542969 734.730469 84.035156 734.828125 84.503906 735.019531 C 84.976562 735.210938 85.390625 735.488281 85.753906 735.847656 C 86.113281 736.207031 86.394531 736.621094 86.589844 737.089844 C 86.785156 737.558594 86.886719 738.050781 86.886719 738.558594 C 86.882812 739.066406 86.785156 739.554688 86.589844 740.023438 C 86.394531 740.492188 86.121094 740.90625 85.761719 741.265625 C 85.40625 741.625 84.992188 741.90625 84.527344 742.101562 C 84.058594 742.300781 83.570312 742.402344 83.0625 742.410156 Z M 90.785156 750.109375 C 90.277344 750.113281 89.785156 750.019531 89.3125 749.828125 C 88.84375 749.636719 88.425781 749.363281 88.0625 749.003906 C 87.699219 748.648438 87.421875 748.234375 87.222656 747.765625 C 87.023438 747.296875 86.925781 746.804688 86.921875 746.296875 C 86.917969 745.789062 87.011719 745.296875 87.203125 744.828125 C 87.394531 744.355469 87.667969 743.9375 88.027344 743.574219 C 88.382812 743.214844 88.796875 742.933594 89.265625 742.734375 C 89.734375 742.535156 90.226562 742.4375 90.734375 742.433594 C 91.242188 742.429688 91.734375 742.523438 92.203125 742.714844 C 92.675781 742.90625 93.09375 743.183594 93.457031 743.539062 C 93.816406 743.898438 94.097656 744.308594 94.296875 744.777344 C 94.496094 745.25 94.59375 745.738281 94.597656 746.246094 C 94.601562 746.753906 94.507812 747.246094 94.316406 747.71875 C 94.125 748.1875 93.847656 748.605469 93.492188 748.96875 C 93.132812 749.332031 92.722656 749.609375 92.253906 749.808594 C 91.78125 750.007812 91.292969 750.105469 90.785156 750.109375 Z M 98.425781 742.410156 C 97.917969 742.40625 97.429688 742.304688 96.960938 742.105469 C 96.496094 741.910156 96.082031 741.628906 95.726562 741.269531 C 95.371094 740.910156 95.09375 740.492188 94.902344 740.023438 C 94.710938 739.554688 94.617188 739.066406 94.617188 738.558594 C 94.621094 738.050781 94.71875 737.5625 94.914062 737.09375 C 95.109375 736.625 95.386719 736.210938 95.746094 735.855469 C 96.105469 735.496094 96.519531 735.21875 96.988281 735.023438 C 97.457031 734.832031 97.945312 734.734375 98.453125 734.730469 C 98.960938 734.730469 99.449219 734.828125 99.917969 735.019531 C 100.386719 735.214844 100.800781 735.488281 101.160156 735.847656 C 101.519531 736.203125 101.800781 736.617188 101.996094 737.085938 C 102.191406 737.550781 102.292969 738.039062 102.296875 738.546875 C 102.296875 738.800781 102.273438 739.054688 102.226562 739.304688 C 102.175781 739.554688 102.105469 739.796875 102.007812 740.03125 C 101.910156 740.265625 101.792969 740.488281 101.652344 740.703125 C 101.511719 740.914062 101.351562 741.109375 101.171875 741.289062 C 100.992188 741.46875 100.792969 741.628906 100.582031 741.769531 C 100.371094 741.910156 100.148438 742.027344 99.910156 742.125 C 99.675781 742.222656 99.433594 742.292969 99.183594 742.339844 C 98.933594 742.390625 98.683594 742.410156 98.425781 742.410156 Z M 98.425781 742.410156 " fill-opacity="1" fill-rule="nonzero"/></g><path fill="#a6a6a6" d="M 664.375 745.390625 L 670.890625 745.390625 C 671.792969 745.390625 672.527344 744.660156 672.527344 743.757812 L 672.527344 737.242188 C 672.527344 736.339844 671.792969 735.605469 670.890625 735.605469 L 664.375 735.605469 C 663.472656 735.605469 662.738281 736.339844 662.738281 737.242188 L 662.738281 743.757812 C 662.738281 744.660156 663.472656 745.390625 664.375 745.390625 Z M 664.375 745.390625 " fill-opacity="1" fill-rule="nonzero"/><path fill="#a6a6a6" d="M 664.375 758.863281 L 670.890625 758.863281 C 671.792969 758.863281 672.527344 758.128906 672.527344 757.226562 L 672.527344 750.710938 C 672.527344 749.808594 671.792969 749.074219 670.890625 749.074219 L 664.375 749.074219 C 663.472656 749.074219 662.738281 749.808594 662.738281 750.710938 L 662.738281 757.226562 C 662.738281 758.128906 663.472656 758.863281 664.375 758.863281 Z M 664.375 758.863281 " fill-opacity="1" fill-rule="nonzero"/><path fill="#a6a6a6" d="M 664.375 772.332031 L 670.890625 772.332031 C 671.792969 772.332031 672.527344 771.597656 672.527344 770.695312 L 672.527344 764.179688 C 672.527344 763.277344 671.792969 762.542969 670.890625 762.542969 L 664.375 762.542969 C 663.472656 762.542969 662.738281 763.277344 662.738281 764.179688 L 662.738281 770.695312 C 662.738281 771.597656 663.472656 772.332031 664.375 772.332031 Z M 664.375 772.332031 " fill-opacity="1" fill-rule="nonzero"/><path fill="#a6a6a6" d="M 680.804688 745.390625 L 687.320312 745.390625 C 688.222656 745.390625 688.953125 744.660156 688.953125 743.757812 L 688.953125 737.242188 C 688.953125 736.339844 688.222656 735.605469 687.320312 735.605469 L 680.804688 735.605469 C 679.898438 735.605469 679.167969 736.339844 679.167969 737.242188 L 679.167969 743.757812 C 679.167969 744.660156 679.902344 745.390625 680.804688 745.390625 Z M 680.804688 745.390625 " fill-opacity="1" fill-rule="nonzero"/><path fill="#a6a6a6" d="M 680.804688 758.863281 L 687.320312 758.863281 C 688.222656 758.863281 688.953125 758.128906 688.953125 757.226562 L 688.953125 750.710938 C 688.953125 749.808594 688.222656 749.074219 687.320312 749.074219 L 680.804688 749.074219 C 679.898438 749.074219 679.167969 749.808594 679.167969 750.710938 L 679.167969 757.226562 C 679.167969 758.128906 679.902344 758.863281 680.804688 758.863281 Z M 680.804688 758.863281 " fill-opacity="1" fill-rule="nonzero"/><path fill="#a6a6a6" d="M 680.804688 772.332031 L 687.320312 772.332031 C 688.222656 772.332031 688.953125 771.597656 688.953125 770.695312 L 688.953125 764.179688 C 688.953125 763.277344 688.222656 762.542969 687.320312 762.542969 L 680.804688 762.542969 C 679.898438 762.542969 679.167969 763.277344 679.167969 764.179688 L 679.167969 770.695312 C 679.167969 771.597656 679.902344 772.332031 680.804688 772.332031 Z M 680.804688 772.332031 " fill-opacity="1" fill-rule="nonzero"/><path fill="#a6a6a6" d="M 697.234375 745.390625 L 703.75 745.390625 C 704.652344 745.390625 705.382812 744.660156 705.382812 743.757812 L 705.382812 737.242188 C 705.382812 736.339844 704.652344 735.605469 703.75 735.605469 L 697.234375 735.605469 C 696.328125 735.605469 695.597656 736.339844 695.597656 737.242188 L 695.597656 743.757812 C 695.597656 744.660156 696.328125 745.390625 697.234375 745.390625 Z M 697.234375 745.390625 " fill-opacity="1" fill-rule="nonzero"/><path fill="#a6a6a6" d="M 703.75 762.542969 L 697.234375 762.542969 C 696.328125 762.542969 695.597656 763.277344 695.597656 764.179688 L 695.597656 770.695312 C 695.597656 771.597656 696.328125 772.332031 697.234375 772.332031 L 703.75 772.332031 C 704.652344 772.332031 705.382812 771.597656 705.382812 770.695312 L 705.382812 764.179688 C 705.382812 763.277344 704.652344 762.542969 703.75 762.542969 Z M 703.75 762.542969 " fill-opacity="1" fill-rule="nonzero"/><path fill="#a6a6a6" d="M 713.664062 745.390625 L 720.175781 745.390625 C 721.082031 745.390625 721.8125 744.660156 721.8125 743.757812 L 721.8125 737.242188 C 721.8125 736.339844 721.082031 735.605469 720.175781 735.605469 L 713.664062 735.605469 C 712.757812 735.605469 712.027344 736.339844 712.027344 737.242188 L 712.027344 743.757812 C 712.027344 744.660156 712.757812 745.390625 713.664062 745.390625 Z M 713.664062 745.390625 " fill-opacity="1" fill-rule="nonzero"/><path fill="#a6a6a6" d="M 713.664062 758.863281 L 720.175781 758.863281 C 721.082031 758.863281 721.8125 758.128906 721.8125 757.226562 L 721.8125 750.710938 C 721.8125 749.808594 721.082031 749.074219 720.175781 749.074219 L 713.664062 749.074219 C 712.757812 749.074219 712.027344 749.808594 712.027344 750.710938 L 712.027344 757.226562 C 712.027344 758.128906 712.757812 758.863281 713.664062 758.863281 Z M 713.664062 758.863281 " fill-opacity="1" fill-rule="nonzero"/><g clip-path="url(#a43a15e52b)"><path fill="#a6a6a6" d="M 714.023438 697.660156 C 712.488281 697.660156 711.242188 698.90625 711.242188 700.441406 L 711.242188 706.023438 L 673.453125 706.023438 L 673.453125 700.441406 C 673.453125 698.90625 672.207031 697.660156 670.671875 697.660156 C 669.136719 697.660156 667.894531 698.90625 667.894531 700.441406 L 667.894531 706.023438 L 659.136719 706.023438 C 654.824219 706.023438 651.3125 709.53125 651.3125 713.847656 L 651.3125 772.289062 C 651.3125 776.605469 654.824219 780.113281 659.136719 780.113281 L 725.414062 780.113281 C 729.730469 780.113281 733.238281 776.605469 733.238281 772.289062 L 733.238281 713.847656 C 733.238281 709.53125 729.730469 706.023438 725.414062 706.023438 L 716.800781 706.023438 L 716.800781 700.441406 C 716.800781 698.90625 715.558594 697.660156 714.023438 697.660156 Z M 667.894531 710.007812 L 667.894531 713.457031 C 667.894531 714.992188 669.136719 716.238281 670.671875 716.238281 C 672.207031 716.238281 673.453125 714.992188 673.453125 713.457031 L 673.453125 710.007812 C 674.457031 710.820312 675.101562 712.066406 675.101562 713.457031 C 675.101562 715.90625 673.121094 717.886719 670.671875 717.886719 C 668.226562 717.886719 666.242188 715.90625 666.242188 713.457031 C 666.242188 712.066406 666.886719 710.820312 667.894531 710.007812 Z M 729.382812 772.289062 C 729.382812 774.480469 727.605469 776.261719 725.414062 776.261719 L 659.136719 776.261719 C 656.949219 776.261719 655.167969 774.480469 655.167969 772.289062 L 655.167969 731.675781 L 729.382812 731.675781 Z M 718.453125 713.457031 C 718.453125 715.90625 716.46875 717.886719 714.023438 717.886719 C 711.574219 717.886719 709.59375 715.90625 709.59375 713.457031 C 709.59375 712.066406 710.238281 710.820312 711.242188 710.007812 L 711.242188 713.457031 C 711.242188 714.992188 712.488281 716.238281 714.023438 716.238281 C 715.554688 716.238281 716.800781 714.992188 716.800781 713.457031 L 716.800781 710.007812 C 717.808594 710.820312 718.453125 712.066406 718.453125 713.457031 Z M 718.453125 713.457031 " fill-opacity="1" fill-rule="nonzero"/></g><path fill="#a6a6a6" d="M 699.976562 759.726562 L 707.738281 751.960938 C 708.492188 751.207031 708.492188 749.988281 707.738281 749.234375 C 706.984375 748.484375 705.765625 748.484375 705.011719 749.234375 L 699.976562 754.273438 L 697.953125 752.25 C 697.199219 751.496094 695.980469 751.496094 695.226562 752.25 C 694.472656 753.003906 694.472656 754.222656 695.226562 754.976562 Z M 699.976562 759.726562 " fill-opacity="1" fill-rule="nonzero"/><g clip-path="url(#653ec33fa4)"><path fill="#a6a6a6" d="M 510.328125 710.664062 C 510.328125 699.425781 501.1875 690.28125 489.949219 690.28125 C 478.714844 690.28125 469.570312 699.425781 469.570312 710.664062 C 469.570312 721.867188 478.714844 731.011719 489.949219 731.011719 C 501.1875 731.011719 510.328125 721.867188 510.328125 710.664062 Z M 510.328125 710.664062 " fill-opacity="1" fill-rule="nonzero"/></g><g clip-path="url(#33311e9953)"><path fill="#a6a6a6" d="M 454.546875 768.785156 L 454.546875 774.941406 C 454.546875 780.882812 459.378906 785.714844 465.320312 785.714844 L 514.578125 785.714844 C 520.519531 785.714844 525.351562 780.882812 525.351562 774.941406 L 525.351562 768.785156 C 525.351562 749.265625 509.46875 733.382812 489.949219 733.382812 C 470.433594 733.382812 454.546875 749.265625 454.546875 768.785156 Z M 454.546875 768.785156 " fill-opacity="1" fill-rule="nonzero"/></g></svg>