<svg xmlns="http://www.w3.org/2000/svg" xmlns:xlink="http://www.w3.org/1999/xlink" width="1080" zoomAndPan="magnify" viewBox="0 0 810 131.999998" height="176" preserveAspectRatio="xMidYMid meet" version="1.0"><defs><clipPath id="8fdd04ef60"><path d="M 244.257812 43.351562 L 324.507812 43.351562 L 324.507812 123.601562 L 244.257812 123.601562 Z M 244.257812 43.351562 " clip-rule="nonzero"/></clipPath><clipPath id="f93330cc5f"><path d="M 32.476562 44 L 114 44 L 114 122 L 32.476562 122 Z M 32.476562 44 " clip-rule="nonzero"/></clipPath><clipPath id="8dc5de7e3d"><path d="M 651.3125 43.351562 L 733.0625 43.351562 L 733.0625 125.851562 L 651.3125 125.851562 Z M 651.3125 43.351562 " clip-rule="nonzero"/></clipPath><clipPath id="45203c9ac9"><path d="M 469 30.433594 L 511 30.433594 L 511 72 L 469 72 Z M 469 30.433594 " clip-rule="nonzero"/></clipPath><clipPath id="886ad32a95"><path d="M 454.546875 73 L 525.046875 73 L 525.046875 125.683594 L 454.546875 125.683594 Z M 454.546875 73 " clip-rule="nonzero"/></clipPath></defs><g clip-path="url(#8fdd04ef60)"><path fill="#a6a6a6" d="M 324.238281 76.976562 L 285.492188 43.765625 C 284.9375 43.351562 284.246094 43.351562 283.695312 43.765625 L 244.949219 76.976562 C 244.398438 77.527344 244.257812 78.359375 244.8125 78.914062 C 245.367188 79.464844 246.195312 79.605469 246.75 79.050781 L 251.316406 75.039062 L 251.316406 122.5 C 251.316406 123.328125 251.867188 123.882812 252.699219 123.882812 L 316.347656 123.882812 C 317.179688 123.882812 317.734375 123.328125 317.734375 122.5 L 317.734375 75.039062 L 322.300781 79.050781 C 322.574219 79.328125 322.851562 79.328125 323.269531 79.328125 C 323.683594 79.328125 324.097656 79.191406 324.375 78.914062 C 324.789062 78.359375 324.789062 77.390625 324.238281 76.976562 Z M 324.238281 76.976562 " fill-opacity="1" fill-rule="nonzero"/></g><g clip-path="url(#f93330cc5f)"><path fill="#a6a6a6" d="M 113.796875 106.914062 C 113.007812 100.09375 111.902344 93.308594 110.910156 86.507812 C 110.800781 85.734375 110.65625 84.96875 110.480469 84.210938 C 110.300781 83.449219 110.089844 82.699219 109.84375 81.957031 C 109.601562 81.214844 109.324219 80.484375 109.011719 79.769531 C 108.703125 79.054688 108.359375 78.351562 107.988281 77.667969 C 107.613281 76.980469 107.210938 76.3125 106.777344 75.664062 C 106.34375 75.015625 105.882812 74.386719 105.394531 73.777344 C 104.902344 73.167969 104.386719 72.585938 103.84375 72.023438 C 103.304688 71.460938 102.738281 70.925781 102.144531 70.414062 C 101.554688 69.902344 100.945312 69.417969 100.308594 68.964844 C 99.675781 68.507812 99.023438 68.082031 98.351562 67.683594 C 97.679688 67.285156 96.992188 66.917969 96.285156 66.582031 C 95.582031 66.25 94.863281 65.945312 94.128906 65.675781 C 93.398438 65.402344 92.65625 65.164062 91.902344 64.960938 C 91.148438 64.757812 90.386719 64.585938 89.617188 64.449219 C 88.847656 64.316406 88.074219 64.214844 87.296875 64.148438 C 86.519531 64.082031 85.738281 64.046875 84.960938 64.050781 C 81.550781 64.050781 78.144531 64.050781 74.738281 64.050781 C 74.746094 63.871094 74.769531 63.691406 74.800781 63.511719 C 75.042969 62.433594 75.574219 61.519531 76.390625 60.773438 C 76.785156 60.425781 77.226562 60.144531 77.710938 59.933594 C 77.890625 59.84375 77.898438 59.84375 77.726562 59.933594 C 77.914062 59.863281 78.105469 59.800781 78.300781 59.75 C 78.589844 59.667969 78.882812 59.601562 79.1875 59.542969 C 79.285156 59.539062 79.382812 59.519531 79.476562 59.492188 C 79.582031 59.480469 79.683594 59.46875 79.789062 59.460938 C 80.148438 59.425781 80.515625 59.398438 80.871094 59.378906 C 81.542969 59.335938 82.214844 59.3125 82.890625 59.269531 C 85.96875 59.070312 89.109375 58.421875 91.15625 55.898438 C 92.160156 54.492188 92.8125 52.941406 93.113281 51.242188 C 93.414062 49.542969 93.335938 47.863281 92.878906 46.199219 C 92.773438 45.828125 92.601562 45.492188 92.363281 45.1875 C 92.125 44.882812 91.839844 44.636719 91.503906 44.445312 C 91.167969 44.253906 90.808594 44.136719 90.425781 44.085938 C 90.046875 44.035156 89.667969 44.058594 89.292969 44.160156 C 88.925781 44.269531 88.589844 44.441406 88.289062 44.679688 C 87.988281 44.917969 87.742188 45.207031 87.550781 45.539062 C 87.363281 45.875 87.242188 46.230469 87.191406 46.613281 C 87.136719 46.992188 87.160156 47.371094 87.253906 47.742188 C 87.457031 48.886719 87.4375 50.027344 87.203125 51.164062 C 87.105469 51.5625 86.917969 51.914062 86.652344 52.21875 C 86.382812 52.527344 86.0625 52.757812 85.683594 52.914062 C 85.65625 52.902344 85.015625 53.132812 84.925781 53.15625 C 84.683594 53.21875 84.441406 53.261719 84.199219 53.304688 C 84.207031 53.292969 83.585938 53.382812 83.492188 53.386719 C 83.136719 53.417969 82.777344 53.4375 82.421875 53.460938 C 80.867188 53.511719 79.324219 53.652344 77.789062 53.890625 C 76.183594 54.175781 74.714844 54.792969 73.390625 55.742188 C 72.0625 56.6875 71.003906 57.875 70.210938 59.300781 C 69.417969 60.78125 69 62.359375 68.957031 64.035156 C 66.589844 64.035156 64.226562 64.027344 61.859375 64.066406 C 60.179688 64.085938 58.507812 64.234375 56.851562 64.523438 C 55.554688 64.769531 54.285156 65.109375 53.042969 65.542969 C 51.796875 65.980469 50.59375 66.511719 49.429688 67.128906 C 48.265625 67.75 47.15625 68.453125 46.097656 69.242188 C 45.042969 70.035156 44.050781 70.898438 43.125 71.835938 C 42.203125 72.777344 41.351562 73.78125 40.582031 74.851562 C 39.808594 75.921875 39.121094 77.042969 38.519531 78.214844 C 37.921875 79.390625 37.410156 80.601562 36.996094 81.855469 C 36.578125 83.105469 36.257812 84.378906 36.035156 85.679688 C 34.945312 92.589844 34.003906 99.523438 33.0625 106.453125 C 32.910156 107.433594 32.871094 108.414062 32.945312 109.402344 C 33.015625 110.390625 33.199219 111.355469 33.492188 112.300781 C 33.789062 113.246094 34.183594 114.148438 34.683594 115.003906 C 35.179688 115.859375 35.769531 116.648438 36.449219 117.367188 C 36.824219 117.785156 37.222656 118.179688 37.648438 118.546875 C 38.070312 118.914062 38.515625 119.257812 38.984375 119.570312 C 39.449219 119.882812 39.933594 120.167969 40.433594 120.421875 C 40.9375 120.671875 41.449219 120.894531 41.980469 121.085938 C 42.507812 121.273438 43.046875 121.429688 43.59375 121.554688 C 44.144531 121.675781 44.695312 121.765625 45.257812 121.820312 C 45.816406 121.875 46.375 121.894531 46.9375 121.878906 C 47.5 121.863281 48.058594 121.8125 48.613281 121.730469 C 49.167969 121.644531 49.714844 121.527344 50.257812 121.375 C 50.796875 121.222656 51.328125 121.039062 51.84375 120.820312 C 52.363281 120.601562 52.867188 120.351562 53.351562 120.074219 C 53.839844 119.792969 54.308594 119.484375 54.757812 119.148438 C 55.207031 118.808594 55.632812 118.445312 56.035156 118.054688 C 56.4375 117.664062 56.816406 117.25 57.167969 116.8125 C 57.523438 116.375 57.847656 115.917969 58.140625 115.4375 C 58.4375 114.960938 58.703125 114.46875 58.9375 113.957031 C 60.386719 110.984375 61.886719 108.035156 63.355469 105.070312 C 63.421875 104.894531 63.535156 104.753906 63.695312 104.652344 C 63.855469 104.550781 64.03125 104.511719 64.222656 104.527344 C 70.339844 104.546875 76.457031 104.546875 82.578125 104.527344 C 82.765625 104.507812 82.941406 104.542969 83.105469 104.644531 C 83.269531 104.742188 83.382812 104.878906 83.453125 105.058594 C 84.910156 108 86.40625 110.921875 87.839844 113.878906 C 88.179688 114.636719 88.589844 115.359375 89.066406 116.042969 C 89.539062 116.726562 90.074219 117.359375 90.667969 117.945312 C 91.257812 118.53125 91.898438 119.058594 92.589844 119.527344 C 93.277344 119.996094 94.003906 120.398438 94.765625 120.734375 C 95.527344 121.066406 96.316406 121.332031 97.128906 121.519531 C 97.9375 121.710938 98.761719 121.824219 99.59375 121.863281 C 100.425781 121.902344 101.253906 121.867188 102.078125 121.753906 C 102.902344 121.640625 103.710938 121.453125 104.503906 121.191406 C 105.238281 120.960938 105.949219 120.664062 106.632812 120.3125 C 107.316406 119.957031 107.964844 119.546875 108.578125 119.078125 C 109.191406 118.613281 109.761719 118.097656 110.285156 117.53125 C 110.8125 116.96875 111.285156 116.363281 111.703125 115.714844 C 112.125 115.070312 112.488281 114.394531 112.792969 113.683594 C 113.09375 112.976562 113.335938 112.246094 113.515625 111.496094 C 113.691406 110.746094 113.804688 109.988281 113.851562 109.21875 C 113.898438 108.449219 113.878906 107.679688 113.796875 106.914062 Z M 64.707031 87.171875 L 58.945312 87.171875 L 58.945312 92.914062 L 53.226562 92.914062 L 53.226562 87.203125 L 47.398438 87.203125 C 47.398438 85.308594 47.386719 83.539062 47.425781 81.765625 C 47.425781 81.640625 47.800781 81.421875 48.007812 81.417969 C 49.4375 81.390625 50.867188 81.40625 52.296875 81.40625 L 53.167969 81.40625 L 53.167969 75.699219 L 58.917969 75.699219 L 58.917969 81.40625 C 60.675781 81.40625 62.300781 81.433594 63.925781 81.394531 C 64.554688 81.375 64.746094 81.558594 64.726562 82.195312 C 64.675781 83.820312 64.707031 85.449219 64.707031 87.171875 Z M 90.785156 72.757812 C 91.292969 72.761719 91.785156 72.863281 92.253906 73.0625 C 92.722656 73.261719 93.136719 73.539062 93.492188 73.902344 C 93.847656 74.265625 94.125 74.683594 94.3125 75.15625 C 94.503906 75.628906 94.597656 76.121094 94.59375 76.628906 C 94.585938 77.140625 94.484375 77.628906 94.285156 78.097656 C 94.085938 78.566406 93.804688 78.976562 93.4375 79.335938 C 93.074219 79.691406 92.65625 79.964844 92.183594 80.152344 C 91.710938 80.339844 91.21875 80.433594 90.710938 80.425781 C 90.199219 80.421875 89.710938 80.316406 89.242188 80.113281 C 88.777344 79.914062 88.363281 79.628906 88.007812 79.265625 C 87.652344 78.898438 87.382812 78.480469 87.195312 78.007812 C 87.007812 77.535156 86.917969 77.042969 86.925781 76.53125 C 86.929688 76.027344 87.03125 75.542969 87.230469 75.078125 C 87.429688 74.613281 87.710938 74.203125 88.070312 73.851562 C 88.433594 73.5 88.847656 73.226562 89.316406 73.039062 C 89.785156 72.851562 90.273438 72.757812 90.777344 72.765625 Z M 83.0625 88.136719 C 82.554688 88.136719 82.066406 88.042969 81.59375 87.847656 C 81.121094 87.65625 80.707031 87.378906 80.34375 87.023438 C 79.984375 86.664062 79.703125 86.25 79.507812 85.777344 C 79.308594 85.308594 79.210938 84.820312 79.210938 84.3125 C 79.207031 83.800781 79.304688 83.3125 79.496094 82.839844 C 79.6875 82.371094 79.964844 81.953125 80.324219 81.589844 C 80.683594 81.230469 81.097656 80.953125 81.566406 80.753906 C 82.035156 80.558594 82.527344 80.460938 83.035156 80.457031 C 83.542969 80.457031 84.035156 80.550781 84.503906 80.746094 C 84.976562 80.9375 85.390625 81.214844 85.753906 81.574219 C 86.113281 81.933594 86.394531 82.347656 86.589844 82.816406 C 86.785156 83.285156 86.886719 83.777344 86.886719 84.285156 C 86.882812 84.792969 86.785156 85.28125 86.589844 85.75 C 86.394531 86.21875 86.121094 86.632812 85.761719 86.992188 C 85.40625 87.351562 84.992188 87.628906 84.527344 87.828125 C 84.058594 88.027344 83.570312 88.128906 83.0625 88.136719 Z M 90.785156 95.835938 C 90.277344 95.839844 89.785156 95.746094 89.3125 95.554688 C 88.84375 95.363281 88.425781 95.085938 88.0625 94.730469 C 87.699219 94.371094 87.421875 93.957031 87.222656 93.488281 C 87.023438 93.019531 86.925781 92.53125 86.921875 92.023438 C 86.917969 91.511719 87.011719 91.023438 87.203125 90.550781 C 87.394531 90.078125 87.667969 89.664062 88.027344 89.300781 C 88.382812 88.9375 88.796875 88.660156 89.265625 88.460938 C 89.734375 88.261719 90.226562 88.160156 90.734375 88.160156 C 91.242188 88.15625 91.734375 88.25 92.203125 88.441406 C 92.675781 88.632812 93.09375 88.90625 93.457031 89.265625 C 93.816406 89.621094 94.097656 90.035156 94.296875 90.503906 C 94.496094 90.972656 94.59375 91.460938 94.597656 91.972656 C 94.601562 92.480469 94.507812 92.972656 94.316406 93.441406 C 94.125 93.914062 93.847656 94.332031 93.492188 94.695312 C 93.132812 95.054688 92.722656 95.335938 92.253906 95.535156 C 91.78125 95.730469 91.292969 95.832031 90.785156 95.835938 Z M 98.425781 88.136719 C 97.917969 88.128906 97.429688 88.03125 96.960938 87.832031 C 96.496094 87.636719 96.082031 87.355469 95.726562 86.996094 C 95.371094 86.632812 95.09375 86.21875 94.902344 85.75 C 94.710938 85.277344 94.617188 84.789062 94.617188 84.28125 C 94.621094 83.777344 94.71875 83.289062 94.914062 82.820312 C 95.109375 82.351562 95.386719 81.9375 95.746094 81.578125 C 96.105469 81.21875 96.519531 80.945312 96.988281 80.75 C 97.457031 80.554688 97.945312 80.457031 98.453125 80.457031 C 98.960938 80.457031 99.449219 80.554688 99.917969 80.746094 C 100.386719 80.9375 100.800781 81.214844 101.160156 81.570312 C 101.519531 81.929688 101.800781 82.34375 101.996094 82.808594 C 102.191406 83.277344 102.292969 83.765625 102.296875 84.273438 C 102.296875 84.527344 102.273438 84.78125 102.226562 85.027344 C 102.175781 85.277344 102.105469 85.519531 102.007812 85.757812 C 101.910156 85.992188 101.792969 86.214844 101.652344 86.425781 C 101.511719 86.640625 101.351562 86.835938 101.171875 87.015625 C 100.992188 87.195312 100.792969 87.355469 100.582031 87.496094 C 100.371094 87.636719 100.148438 87.753906 99.910156 87.851562 C 99.675781 87.945312 99.433594 88.019531 99.183594 88.066406 C 98.933594 88.113281 98.683594 88.136719 98.425781 88.136719 Z M 98.425781 88.136719 " fill-opacity="1" fill-rule="nonzero"/></g><path fill="#a6a6a6" d="M 664.375 91.117188 L 670.890625 91.117188 C 671.792969 91.117188 672.527344 90.386719 672.527344 89.480469 L 672.527344 82.96875 C 672.527344 82.0625 671.792969 81.332031 670.890625 81.332031 L 664.375 81.332031 C 663.472656 81.332031 662.738281 82.0625 662.738281 82.96875 L 662.738281 89.480469 C 662.738281 90.386719 663.472656 91.117188 664.375 91.117188 Z M 664.375 91.117188 " fill-opacity="1" fill-rule="nonzero"/><path fill="#a6a6a6" d="M 664.375 104.585938 L 670.890625 104.585938 C 671.792969 104.585938 672.527344 103.855469 672.527344 102.953125 L 672.527344 96.4375 C 672.527344 95.53125 671.792969 94.800781 670.890625 94.800781 L 664.375 94.800781 C 663.472656 94.800781 662.738281 95.53125 662.738281 96.4375 L 662.738281 102.953125 C 662.738281 103.855469 663.472656 104.585938 664.375 104.585938 Z M 664.375 104.585938 " fill-opacity="1" fill-rule="nonzero"/><path fill="#a6a6a6" d="M 664.375 118.054688 L 670.890625 118.054688 C 671.792969 118.054688 672.527344 117.324219 672.527344 116.421875 L 672.527344 109.90625 C 672.527344 109.003906 671.792969 108.269531 670.890625 108.269531 L 664.375 108.269531 C 663.472656 108.269531 662.738281 109 662.738281 109.90625 L 662.738281 116.421875 C 662.738281 117.324219 663.472656 118.054688 664.375 118.054688 Z M 664.375 118.054688 " fill-opacity="1" fill-rule="nonzero"/><path fill="#a6a6a6" d="M 680.804688 91.117188 L 687.320312 91.117188 C 688.222656 91.117188 688.953125 90.386719 688.953125 89.480469 L 688.953125 82.96875 C 688.953125 82.0625 688.222656 81.332031 687.320312 81.332031 L 680.804688 81.332031 C 679.898438 81.332031 679.167969 82.0625 679.167969 82.96875 L 679.167969 89.480469 C 679.167969 90.386719 679.902344 91.117188 680.804688 91.117188 Z M 680.804688 91.117188 " fill-opacity="1" fill-rule="nonzero"/><path fill="#a6a6a6" d="M 680.804688 104.585938 L 687.320312 104.585938 C 688.222656 104.585938 688.953125 103.855469 688.953125 102.953125 L 688.953125 96.4375 C 688.953125 95.53125 688.222656 94.800781 687.320312 94.800781 L 680.804688 94.800781 C 679.898438 94.800781 679.167969 95.53125 679.167969 96.4375 L 679.167969 102.953125 C 679.167969 103.855469 679.902344 104.585938 680.804688 104.585938 Z M 680.804688 104.585938 " fill-opacity="1" fill-rule="nonzero"/><path fill="#a6a6a6" d="M 680.804688 118.054688 L 687.320312 118.054688 C 688.222656 118.054688 688.953125 117.324219 688.953125 116.421875 L 688.953125 109.90625 C 688.953125 109.003906 688.222656 108.269531 687.320312 108.269531 L 680.804688 108.269531 C 679.898438 108.269531 679.167969 109 679.167969 109.90625 L 679.167969 116.421875 C 679.167969 117.324219 679.902344 118.054688 680.804688 118.054688 Z M 680.804688 118.054688 " fill-opacity="1" fill-rule="nonzero"/><path fill="#a6a6a6" d="M 697.234375 91.117188 L 703.75 91.117188 C 704.652344 91.117188 705.382812 90.386719 705.382812 89.480469 L 705.382812 82.96875 C 705.382812 82.0625 704.652344 81.332031 703.75 81.332031 L 697.234375 81.332031 C 696.328125 81.332031 695.597656 82.0625 695.597656 82.96875 L 695.597656 89.480469 C 695.597656 90.386719 696.328125 91.117188 697.234375 91.117188 Z M 697.234375 91.117188 " fill-opacity="1" fill-rule="nonzero"/><path fill="#a6a6a6" d="M 703.75 108.269531 L 697.234375 108.269531 C 696.328125 108.269531 695.597656 109 695.597656 109.90625 L 695.597656 116.421875 C 695.597656 117.324219 696.328125 118.054688 697.234375 118.054688 L 703.75 118.054688 C 704.652344 118.054688 705.382812 117.324219 705.382812 116.421875 L 705.382812 109.90625 C 705.382812 109 704.652344 108.269531 703.75 108.269531 Z M 703.75 108.269531 " fill-opacity="1" fill-rule="nonzero"/><path fill="#a6a6a6" d="M 713.664062 91.117188 L 720.175781 91.117188 C 721.082031 91.117188 721.8125 90.386719 721.8125 89.480469 L 721.8125 82.96875 C 721.8125 82.0625 721.082031 81.332031 720.175781 81.332031 L 713.664062 81.332031 C 712.757812 81.332031 712.027344 82.0625 712.027344 82.96875 L 712.027344 89.480469 C 712.027344 90.386719 712.757812 91.117188 713.664062 91.117188 Z M 713.664062 91.117188 " fill-opacity="1" fill-rule="nonzero"/><path fill="#a6a6a6" d="M 713.664062 104.585938 L 720.175781 104.585938 C 721.082031 104.585938 721.8125 103.855469 721.8125 102.953125 L 721.8125 96.4375 C 721.8125 95.53125 721.082031 94.800781 720.175781 94.800781 L 713.664062 94.800781 C 712.757812 94.800781 712.027344 95.53125 712.027344 96.4375 L 712.027344 102.953125 C 712.027344 103.855469 712.757812 104.585938 713.664062 104.585938 Z M 713.664062 104.585938 " fill-opacity="1" fill-rule="nonzero"/><g clip-path="url(#8dc5de7e3d)"><path fill="#a6a6a6" d="M 714.023438 43.386719 C 712.488281 43.386719 711.242188 44.632812 711.242188 46.164062 L 711.242188 51.75 L 673.453125 51.75 L 673.453125 46.164062 C 673.453125 44.632812 672.207031 43.386719 670.671875 43.386719 C 669.136719 43.386719 667.894531 44.632812 667.894531 46.164062 L 667.894531 51.75 L 659.136719 51.75 C 654.824219 51.75 651.3125 55.257812 651.3125 59.574219 L 651.3125 118.015625 C 651.3125 122.332031 654.824219 125.839844 659.136719 125.839844 L 725.414062 125.839844 C 729.730469 125.839844 733.238281 122.332031 733.238281 118.015625 L 733.238281 59.574219 C 733.238281 55.257812 729.730469 51.75 725.414062 51.75 L 716.800781 51.75 L 716.800781 46.164062 C 716.800781 44.632812 715.558594 43.386719 714.023438 43.386719 Z M 667.894531 55.734375 L 667.894531 59.183594 C 667.894531 60.71875 669.136719 61.960938 670.671875 61.960938 C 672.207031 61.960938 673.453125 60.71875 673.453125 59.183594 L 673.453125 55.734375 C 674.457031 56.546875 675.101562 57.789062 675.101562 59.183594 C 675.101562 61.628906 673.121094 63.613281 670.671875 63.613281 C 668.226562 63.613281 666.242188 61.628906 666.242188 59.183594 C 666.242188 57.789062 666.886719 56.546875 667.894531 55.734375 Z M 729.382812 118.015625 C 729.382812 120.203125 727.605469 121.984375 725.414062 121.984375 L 659.136719 121.984375 C 656.949219 121.984375 655.167969 120.203125 655.167969 118.015625 L 655.167969 77.402344 L 729.382812 77.402344 Z M 718.453125 59.183594 C 718.453125 61.628906 716.46875 63.613281 714.023438 63.613281 C 711.574219 63.613281 709.59375 61.628906 709.59375 59.183594 C 709.59375 57.789062 710.238281 56.546875 711.242188 55.734375 L 711.242188 59.183594 C 711.242188 60.71875 712.488281 61.960938 714.023438 61.960938 C 715.554688 61.960938 716.800781 60.71875 716.800781 59.183594 L 716.800781 55.734375 C 717.808594 56.546875 718.453125 57.789062 718.453125 59.183594 Z M 718.453125 59.183594 " fill-opacity="1" fill-rule="nonzero"/></g><path fill="#a6a6a6" d="M 699.976562 105.449219 L 707.738281 97.6875 C 708.492188 96.933594 708.492188 95.714844 707.738281 94.960938 C 706.984375 94.207031 705.765625 94.207031 705.011719 94.960938 L 699.976562 100 L 697.953125 97.976562 C 697.199219 97.222656 695.980469 97.222656 695.226562 97.976562 C 694.472656 98.730469 694.472656 99.949219 695.226562 100.703125 Z M 699.976562 105.449219 " fill-opacity="1" fill-rule="nonzero"/><g clip-path="url(#45203c9ac9)"><path fill="#a6a6a6" d="M 510.328125 50.820312 C 510.328125 39.582031 501.1875 30.441406 489.949219 30.441406 C 478.714844 30.441406 469.570312 39.582031 469.570312 50.820312 C 469.570312 62.023438 478.714844 71.167969 489.949219 71.167969 C 501.1875 71.167969 510.328125 62.023438 510.328125 50.820312 Z M 510.328125 50.820312 " fill-opacity="1" fill-rule="nonzero"/></g><g clip-path="url(#886ad32a95)"><path fill="#a6a6a6" d="M 454.546875 108.941406 L 454.546875 115.097656 C 454.546875 121.039062 459.378906 125.871094 465.320312 125.871094 L 514.578125 125.871094 C 520.519531 125.871094 525.351562 121.039062 525.351562 115.097656 L 525.351562 108.941406 C 525.351562 89.421875 509.46875 73.539062 489.949219 73.539062 C 470.433594 73.539062 454.546875 89.421875 454.546875 108.941406 Z M 454.546875 108.941406 " fill-opacity="1" fill-rule="nonzero"/></g><path stroke-linecap="butt" transform="matrix(0.75, 0, 0, 0.75, 0.00000613636, 130.499995)" fill="none" stroke-linejoin="miter" d="M -0.00000818182 2.000007 L 1080.000053 2.000007 " stroke="#000000" stroke-width="4" stroke-opacity="1" stroke-miterlimit="4"/></svg>