<svg xmlns="http://www.w3.org/2000/svg" xmlns:xlink="http://www.w3.org/1999/xlink" width="1080" zoomAndPan="magnify" viewBox="0 0 810 131.999998" height="176" preserveAspectRatio="xMidYMid meet" version="1.0"><defs><clipPath id="8fca699aa8"><path d="M 244.257812 25.730469 L 324.507812 25.730469 L 324.507812 105.980469 L 244.257812 105.980469 Z M 244.257812 25.730469 " clip-rule="nonzero"/></clipPath><clipPath id="2f509e2c5a"><path d="M 32.476562 28 L 114 28 L 114 107 L 32.476562 107 Z M 32.476562 28 " clip-rule="nonzero"/></clipPath><clipPath id="3dac849704"><path d="M 651.3125 25.730469 L 733.0625 25.730469 L 733.0625 108.230469 L 651.3125 108.230469 Z M 651.3125 25.730469 " clip-rule="nonzero"/></clipPath><clipPath id="d7ef45b405"><path d="M 469 18.273438 L 511 18.273438 L 511 60 L 469 60 Z M 469 18.273438 " clip-rule="nonzero"/></clipPath><clipPath id="8cf18dd05f"><path d="M 454.546875 61 L 525.046875 61 L 525.046875 113.523438 L 454.546875 113.523438 Z M 454.546875 61 " clip-rule="nonzero"/></clipPath></defs><g clip-path="url(#8fca699aa8)"><path fill="#a6a6a6" d="M 324.238281 59.355469 L 285.492188 26.144531 C 284.9375 25.730469 284.246094 25.730469 283.695312 26.144531 L 244.949219 59.355469 C 244.398438 59.90625 244.257812 60.738281 244.8125 61.292969 C 245.367188 61.84375 246.195312 61.984375 246.75 61.429688 L 251.316406 57.417969 L 251.316406 104.878906 C 251.316406 105.707031 251.867188 106.261719 252.699219 106.261719 L 316.347656 106.261719 C 317.179688 106.261719 317.734375 105.707031 317.734375 104.878906 L 317.734375 57.417969 L 322.300781 61.429688 C 322.574219 61.707031 322.851562 61.707031 323.269531 61.707031 C 323.683594 61.707031 324.097656 61.570312 324.375 61.292969 C 324.789062 60.738281 324.789062 59.769531 324.238281 59.355469 Z M 324.238281 59.355469 " fill-opacity="1" fill-rule="nonzero"/></g><g clip-path="url(#2f509e2c5a)"><path fill="#a6a6a6" d="M 113.796875 91.285156 C 113.007812 84.464844 111.902344 77.675781 110.910156 70.878906 C 110.800781 70.105469 110.65625 69.339844 110.480469 68.578125 C 110.300781 67.820312 110.089844 67.070312 109.84375 66.328125 C 109.601562 65.585938 109.324219 64.855469 109.011719 64.140625 C 108.703125 63.425781 108.359375 62.722656 107.988281 62.035156 C 107.613281 61.351562 107.210938 60.683594 106.777344 60.035156 C 106.34375 59.382812 105.882812 58.753906 105.394531 58.148438 C 104.902344 57.539062 104.386719 56.953125 103.84375 56.394531 C 103.304688 55.832031 102.738281 55.292969 102.144531 54.785156 C 101.554688 54.273438 100.945312 53.789062 100.308594 53.332031 C 99.675781 52.878906 99.023438 52.449219 98.351562 52.054688 C 97.679688 51.65625 96.992188 51.289062 96.285156 50.953125 C 95.582031 50.617188 94.863281 50.316406 94.128906 50.042969 C 93.398438 49.773438 92.65625 49.535156 91.902344 49.332031 C 91.148438 49.128906 90.386719 48.957031 89.617188 48.820312 C 88.847656 48.683594 88.074219 48.582031 87.296875 48.515625 C 86.519531 48.449219 85.738281 48.417969 84.960938 48.421875 C 81.550781 48.421875 78.144531 48.421875 74.738281 48.421875 C 74.746094 48.242188 74.769531 48.0625 74.800781 47.882812 C 75.042969 46.800781 75.574219 45.890625 76.390625 45.144531 C 76.785156 44.796875 77.226562 44.515625 77.710938 44.304688 C 77.890625 44.214844 77.898438 44.214844 77.726562 44.304688 C 77.914062 44.234375 78.105469 44.171875 78.300781 44.121094 C 78.589844 44.039062 78.882812 43.972656 79.1875 43.914062 C 79.285156 43.90625 79.382812 43.890625 79.476562 43.863281 C 79.582031 43.851562 79.683594 43.839844 79.789062 43.832031 C 80.148438 43.796875 80.515625 43.769531 80.871094 43.746094 C 81.542969 43.707031 82.214844 43.683594 82.890625 43.636719 C 85.96875 43.441406 89.109375 42.792969 91.15625 40.269531 C 92.160156 38.863281 92.8125 37.3125 93.113281 35.613281 C 93.414062 33.914062 93.335938 32.234375 92.878906 30.570312 C 92.773438 30.199219 92.601562 29.863281 92.363281 29.558594 C 92.125 29.253906 91.839844 29.007812 91.503906 28.816406 C 91.167969 28.625 90.808594 28.507812 90.425781 28.457031 C 90.046875 28.40625 89.667969 28.429688 89.292969 28.53125 C 88.925781 28.636719 88.589844 28.8125 88.289062 29.050781 C 87.988281 29.289062 87.742188 29.578125 87.550781 29.910156 C 87.363281 30.246094 87.242188 30.601562 87.191406 30.984375 C 87.136719 31.363281 87.160156 31.742188 87.253906 32.113281 C 87.457031 33.257812 87.4375 34.398438 87.203125 35.535156 C 87.105469 35.929688 86.917969 36.28125 86.652344 36.589844 C 86.382812 36.898438 86.0625 37.128906 85.683594 37.285156 C 85.65625 37.273438 85.015625 37.503906 84.925781 37.527344 C 84.683594 37.589844 84.441406 37.632812 84.199219 37.675781 C 84.207031 37.664062 83.585938 37.75 83.492188 37.757812 C 83.136719 37.789062 82.777344 37.808594 82.421875 37.832031 C 80.867188 37.882812 79.324219 38.023438 77.789062 38.261719 C 76.183594 38.546875 74.714844 39.164062 73.390625 40.113281 C 72.0625 41.058594 71.003906 42.246094 70.210938 43.671875 C 69.417969 45.148438 69 46.730469 68.957031 48.40625 C 66.589844 48.40625 64.226562 48.398438 61.859375 48.4375 C 60.179688 48.453125 58.507812 48.605469 56.851562 48.894531 C 55.554688 49.136719 54.285156 49.476562 53.042969 49.914062 C 51.796875 50.351562 50.59375 50.878906 49.429688 51.5 C 48.265625 52.121094 47.15625 52.824219 46.097656 53.613281 C 45.042969 54.402344 44.050781 55.269531 43.125 56.207031 C 42.203125 57.148438 41.351562 58.152344 40.582031 59.222656 C 39.808594 60.292969 39.121094 61.414062 38.519531 62.585938 C 37.921875 63.761719 37.410156 64.972656 36.996094 66.222656 C 36.578125 67.476562 36.257812 68.75 36.035156 70.050781 C 34.945312 76.960938 34.003906 83.890625 33.0625 90.824219 C 32.910156 91.800781 32.871094 92.785156 32.945312 93.773438 C 33.015625 94.761719 33.199219 95.726562 33.492188 96.671875 C 33.789062 97.617188 34.183594 98.519531 34.683594 99.375 C 35.179688 100.230469 35.769531 101.015625 36.449219 101.738281 C 36.824219 102.15625 37.222656 102.550781 37.648438 102.917969 C 38.070312 103.285156 38.515625 103.628906 38.984375 103.941406 C 39.449219 104.253906 39.933594 104.539062 40.433594 104.789062 C 40.9375 105.042969 41.449219 105.265625 41.980469 105.453125 C 42.507812 105.644531 43.046875 105.800781 43.59375 105.921875 C 44.144531 106.046875 44.695312 106.136719 45.257812 106.191406 C 45.816406 106.242188 46.375 106.261719 46.9375 106.25 C 47.5 106.234375 48.058594 106.183594 48.613281 106.101562 C 49.167969 106.015625 49.714844 105.898438 50.257812 105.746094 C 50.796875 105.59375 51.328125 105.40625 51.84375 105.191406 C 52.363281 104.972656 52.867188 104.722656 53.351562 104.445312 C 53.839844 104.164062 54.308594 103.855469 54.757812 103.515625 C 55.207031 103.179688 55.632812 102.816406 56.035156 102.425781 C 56.4375 102.035156 56.816406 101.621094 57.167969 101.183594 C 57.523438 100.746094 57.847656 100.289062 58.140625 99.808594 C 58.4375 99.332031 58.703125 98.839844 58.9375 98.328125 C 60.386719 95.351562 61.886719 92.40625 63.355469 89.441406 C 63.421875 89.261719 63.535156 89.125 63.695312 89.023438 C 63.855469 88.921875 64.03125 88.882812 64.222656 88.898438 C 70.339844 88.914062 76.457031 88.914062 82.578125 88.898438 C 82.765625 88.878906 82.941406 88.914062 83.105469 89.015625 C 83.269531 89.113281 83.382812 89.25 83.453125 89.429688 C 84.910156 92.371094 86.40625 95.292969 87.839844 98.246094 C 88.179688 99.007812 88.589844 99.730469 89.066406 100.414062 C 89.539062 101.097656 90.074219 101.730469 90.667969 102.316406 C 91.257812 102.902344 91.898438 103.429688 92.589844 103.898438 C 93.277344 104.367188 94.003906 104.769531 94.765625 105.105469 C 95.527344 105.4375 96.316406 105.699219 97.128906 105.890625 C 97.9375 106.082031 98.761719 106.195312 99.59375 106.234375 C 100.425781 106.273438 101.253906 106.238281 102.078125 106.125 C 102.902344 106.011719 103.710938 105.824219 104.503906 105.5625 C 105.238281 105.328125 105.949219 105.035156 106.632812 104.683594 C 107.316406 104.328125 107.964844 103.917969 108.578125 103.449219 C 109.191406 102.984375 109.761719 102.46875 110.285156 101.902344 C 110.8125 101.339844 111.285156 100.734375 111.703125 100.085938 C 112.125 99.441406 112.488281 98.761719 112.792969 98.054688 C 113.09375 97.347656 113.335938 96.617188 113.515625 95.867188 C 113.691406 95.117188 113.804688 94.355469 113.851562 93.585938 C 113.898438 92.816406 113.878906 92.050781 113.796875 91.285156 Z M 64.707031 71.542969 L 58.945312 71.542969 L 58.945312 77.285156 L 53.226562 77.285156 L 53.226562 71.574219 L 47.398438 71.574219 C 47.398438 69.679688 47.386719 67.90625 47.425781 66.136719 C 47.425781 66.011719 47.800781 65.792969 48.007812 65.789062 C 49.4375 65.761719 50.867188 65.773438 52.296875 65.777344 L 53.167969 65.777344 L 53.167969 60.070312 L 58.917969 60.070312 L 58.917969 65.777344 C 60.675781 65.777344 62.300781 65.804688 63.925781 65.761719 C 64.554688 65.746094 64.746094 65.929688 64.726562 66.566406 C 64.675781 68.191406 64.707031 69.820312 64.707031 71.542969 Z M 90.785156 57.128906 C 91.292969 57.132812 91.785156 57.234375 92.253906 57.433594 C 92.722656 57.628906 93.136719 57.910156 93.492188 58.273438 C 93.847656 58.636719 94.125 59.054688 94.3125 59.527344 C 94.503906 60 94.597656 60.492188 94.59375 61 C 94.585938 61.511719 94.484375 62 94.285156 62.46875 C 94.085938 62.9375 93.804688 63.347656 93.4375 63.703125 C 93.074219 64.0625 92.65625 64.332031 92.183594 64.523438 C 91.710938 64.710938 91.21875 64.804688 90.710938 64.796875 C 90.199219 64.789062 89.710938 64.6875 89.242188 64.484375 C 88.777344 64.285156 88.363281 64 88.007812 63.636719 C 87.652344 63.269531 87.382812 62.851562 87.195312 62.378906 C 87.007812 61.902344 86.917969 61.414062 86.925781 60.902344 C 86.929688 60.398438 87.03125 59.914062 87.230469 59.449219 C 87.429688 58.984375 87.710938 58.574219 88.070312 58.222656 C 88.433594 57.867188 88.847656 57.597656 89.316406 57.410156 C 89.785156 57.222656 90.273438 57.128906 90.777344 57.132812 Z M 83.0625 72.503906 C 82.554688 72.507812 82.066406 72.414062 81.59375 72.21875 C 81.121094 72.027344 80.707031 71.75 80.34375 71.390625 C 79.984375 71.035156 79.703125 70.621094 79.507812 70.148438 C 79.308594 69.679688 79.210938 69.191406 79.210938 68.679688 C 79.207031 68.171875 79.304688 67.683594 79.496094 67.210938 C 79.6875 66.738281 79.964844 66.324219 80.324219 65.960938 C 80.683594 65.601562 81.097656 65.320312 81.566406 65.125 C 82.035156 64.929688 82.527344 64.828125 83.035156 64.828125 C 83.542969 64.828125 84.035156 64.921875 84.503906 65.117188 C 84.976562 65.308594 85.390625 65.585938 85.753906 65.945312 C 86.113281 66.300781 86.394531 66.71875 86.589844 67.1875 C 86.785156 67.65625 86.886719 68.144531 86.886719 68.65625 C 86.882812 69.164062 86.785156 69.652344 86.589844 70.117188 C 86.394531 70.585938 86.121094 71 85.761719 71.363281 C 85.40625 71.722656 84.992188 72 84.527344 72.199219 C 84.058594 72.398438 83.570312 72.5 83.0625 72.503906 Z M 90.785156 80.207031 C 90.277344 80.210938 89.785156 80.117188 89.3125 79.925781 C 88.84375 79.730469 88.425781 79.457031 88.0625 79.101562 C 87.699219 78.742188 87.421875 78.328125 87.222656 77.859375 C 87.023438 77.390625 86.925781 76.902344 86.921875 76.394531 C 86.917969 75.882812 87.011719 75.394531 87.203125 74.921875 C 87.394531 74.449219 87.667969 74.035156 88.027344 73.671875 C 88.382812 73.308594 88.796875 73.027344 89.265625 72.832031 C 89.734375 72.632812 90.226562 72.53125 90.734375 72.527344 C 91.242188 72.527344 91.734375 72.621094 92.203125 72.8125 C 92.675781 73.003906 93.09375 73.277344 93.457031 73.636719 C 93.816406 73.992188 94.097656 74.40625 94.296875 74.875 C 94.496094 75.34375 94.59375 75.832031 94.597656 76.34375 C 94.601562 76.851562 94.507812 77.339844 94.316406 77.8125 C 94.125 78.285156 93.847656 78.703125 93.492188 79.0625 C 93.132812 79.425781 92.722656 79.707031 92.253906 79.90625 C 91.78125 80.101562 91.292969 80.203125 90.785156 80.207031 Z M 98.425781 72.503906 C 97.917969 72.5 97.429688 72.402344 96.960938 72.203125 C 96.496094 72.003906 96.082031 71.726562 95.726562 71.363281 C 95.371094 71.003906 95.09375 70.589844 94.902344 70.121094 C 94.710938 69.648438 94.617188 69.160156 94.617188 68.652344 C 94.621094 68.144531 94.71875 67.65625 94.914062 67.191406 C 95.109375 66.722656 95.386719 66.308594 95.746094 65.949219 C 96.105469 65.589844 96.519531 65.316406 96.988281 65.121094 C 97.457031 64.925781 97.945312 64.828125 98.453125 64.828125 C 98.960938 64.828125 99.449219 64.921875 99.917969 65.117188 C 100.386719 65.308594 100.800781 65.585938 101.160156 65.941406 C 101.519531 66.300781 101.800781 66.710938 101.996094 67.179688 C 102.191406 67.648438 102.292969 68.136719 102.296875 68.644531 C 102.296875 68.898438 102.273438 69.148438 102.226562 69.398438 C 102.175781 69.648438 102.105469 69.890625 102.007812 70.128906 C 101.910156 70.363281 101.792969 70.585938 101.652344 70.796875 C 101.511719 71.007812 101.351562 71.203125 101.171875 71.382812 C 100.992188 71.566406 100.792969 71.726562 100.582031 71.867188 C 100.371094 72.007812 100.148438 72.125 99.910156 72.222656 C 99.675781 72.316406 99.433594 72.390625 99.183594 72.4375 C 98.933594 72.484375 98.683594 72.507812 98.425781 72.503906 Z M 98.425781 72.503906 " fill-opacity="1" fill-rule="nonzero"/></g><path fill="#a6a6a6" d="M 664.375 73.496094 L 670.890625 73.496094 C 671.792969 73.496094 672.527344 72.765625 672.527344 71.859375 L 672.527344 65.347656 C 672.527344 64.441406 671.792969 63.710938 670.890625 63.710938 L 664.375 63.710938 C 663.472656 63.710938 662.738281 64.441406 662.738281 65.347656 L 662.738281 71.859375 C 662.738281 72.765625 663.472656 73.496094 664.375 73.496094 Z M 664.375 73.496094 " fill-opacity="1" fill-rule="nonzero"/><path fill="#a6a6a6" d="M 664.375 86.964844 L 670.890625 86.964844 C 671.792969 86.964844 672.527344 86.234375 672.527344 85.328125 L 672.527344 78.816406 C 672.527344 77.910156 671.792969 77.179688 670.890625 77.179688 L 664.375 77.179688 C 663.472656 77.179688 662.738281 77.910156 662.738281 78.816406 L 662.738281 85.328125 C 662.738281 86.234375 663.472656 86.964844 664.375 86.964844 Z M 664.375 86.964844 " fill-opacity="1" fill-rule="nonzero"/><path fill="#a6a6a6" d="M 664.375 100.433594 L 670.890625 100.433594 C 671.792969 100.433594 672.527344 99.703125 672.527344 98.800781 L 672.527344 92.285156 C 672.527344 91.382812 671.792969 90.648438 670.890625 90.648438 L 664.375 90.648438 C 663.472656 90.648438 662.738281 91.378906 662.738281 92.285156 L 662.738281 98.800781 C 662.738281 99.703125 663.472656 100.433594 664.375 100.433594 Z M 664.375 100.433594 " fill-opacity="1" fill-rule="nonzero"/><path fill="#a6a6a6" d="M 680.804688 73.496094 L 687.320312 73.496094 C 688.222656 73.496094 688.953125 72.765625 688.953125 71.859375 L 688.953125 65.347656 C 688.953125 64.441406 688.222656 63.710938 687.320312 63.710938 L 680.804688 63.710938 C 679.898438 63.710938 679.167969 64.441406 679.167969 65.347656 L 679.167969 71.859375 C 679.167969 72.765625 679.902344 73.496094 680.804688 73.496094 Z M 680.804688 73.496094 " fill-opacity="1" fill-rule="nonzero"/><path fill="#a6a6a6" d="M 680.804688 86.964844 L 687.320312 86.964844 C 688.222656 86.964844 688.953125 86.234375 688.953125 85.328125 L 688.953125 78.816406 C 688.953125 77.910156 688.222656 77.179688 687.320312 77.179688 L 680.804688 77.179688 C 679.898438 77.179688 679.167969 77.910156 679.167969 78.816406 L 679.167969 85.328125 C 679.167969 86.234375 679.902344 86.964844 680.804688 86.964844 Z M 680.804688 86.964844 " fill-opacity="1" fill-rule="nonzero"/><path fill="#a6a6a6" d="M 680.804688 100.433594 L 687.320312 100.433594 C 688.222656 100.433594 688.953125 99.703125 688.953125 98.800781 L 688.953125 92.285156 C 688.953125 91.382812 688.222656 90.648438 687.320312 90.648438 L 680.804688 90.648438 C 679.898438 90.648438 679.167969 91.378906 679.167969 92.285156 L 679.167969 98.800781 C 679.167969 99.703125 679.902344 100.433594 680.804688 100.433594 Z M 680.804688 100.433594 " fill-opacity="1" fill-rule="nonzero"/><path fill="#a6a6a6" d="M 697.234375 73.496094 L 703.75 73.496094 C 704.652344 73.496094 705.382812 72.765625 705.382812 71.859375 L 705.382812 65.347656 C 705.382812 64.441406 704.652344 63.710938 703.75 63.710938 L 697.234375 63.710938 C 696.328125 63.710938 695.597656 64.441406 695.597656 65.347656 L 695.597656 71.859375 C 695.597656 72.765625 696.328125 73.496094 697.234375 73.496094 Z M 697.234375 73.496094 " fill-opacity="1" fill-rule="nonzero"/><path fill="#a6a6a6" d="M 703.75 90.648438 L 697.234375 90.648438 C 696.328125 90.648438 695.597656 91.378906 695.597656 92.285156 L 695.597656 98.800781 C 695.597656 99.703125 696.328125 100.433594 697.234375 100.433594 L 703.75 100.433594 C 704.652344 100.433594 705.382812 99.703125 705.382812 98.800781 L 705.382812 92.285156 C 705.382812 91.378906 704.652344 90.648438 703.75 90.648438 Z M 703.75 90.648438 " fill-opacity="1" fill-rule="nonzero"/><path fill="#a6a6a6" d="M 713.664062 73.496094 L 720.175781 73.496094 C 721.082031 73.496094 721.8125 72.765625 721.8125 71.859375 L 721.8125 65.347656 C 721.8125 64.441406 721.082031 63.710938 720.175781 63.710938 L 713.664062 63.710938 C 712.757812 63.710938 712.027344 64.441406 712.027344 65.347656 L 712.027344 71.859375 C 712.027344 72.765625 712.757812 73.496094 713.664062 73.496094 Z M 713.664062 73.496094 " fill-opacity="1" fill-rule="nonzero"/><path fill="#a6a6a6" d="M 713.664062 86.964844 L 720.175781 86.964844 C 721.082031 86.964844 721.8125 86.234375 721.8125 85.328125 L 721.8125 78.816406 C 721.8125 77.910156 721.082031 77.179688 720.175781 77.179688 L 713.664062 77.179688 C 712.757812 77.179688 712.027344 77.910156 712.027344 78.816406 L 712.027344 85.328125 C 712.027344 86.234375 712.757812 86.964844 713.664062 86.964844 Z M 713.664062 86.964844 " fill-opacity="1" fill-rule="nonzero"/><g clip-path="url(#3dac849704)"><path fill="#a6a6a6" d="M 714.023438 25.765625 C 712.488281 25.765625 711.242188 27.007812 711.242188 28.542969 L 711.242188 34.128906 L 673.453125 34.128906 L 673.453125 28.542969 C 673.453125 27.007812 672.207031 25.765625 670.671875 25.765625 C 669.136719 25.765625 667.894531 27.007812 667.894531 28.542969 L 667.894531 34.128906 L 659.136719 34.128906 C 654.824219 34.128906 651.3125 37.636719 651.3125 41.953125 L 651.3125 100.394531 C 651.3125 104.710938 654.824219 108.21875 659.136719 108.21875 L 725.414062 108.21875 C 729.730469 108.21875 733.238281 104.710938 733.238281 100.394531 L 733.238281 41.953125 C 733.238281 37.636719 729.730469 34.128906 725.414062 34.128906 L 716.800781 34.128906 L 716.800781 28.542969 C 716.800781 27.007812 715.558594 25.765625 714.023438 25.765625 Z M 667.894531 38.113281 L 667.894531 41.5625 C 667.894531 43.097656 669.136719 44.339844 670.671875 44.339844 C 672.207031 44.339844 673.453125 43.097656 673.453125 41.5625 L 673.453125 38.113281 C 674.457031 38.925781 675.101562 40.167969 675.101562 41.5625 C 675.101562 44.007812 673.121094 45.992188 670.671875 45.992188 C 668.226562 45.992188 666.242188 44.007812 666.242188 41.5625 C 666.242188 40.167969 666.886719 38.925781 667.894531 38.113281 Z M 729.382812 100.394531 C 729.382812 102.582031 727.605469 104.363281 725.414062 104.363281 L 659.136719 104.363281 C 656.949219 104.363281 655.167969 102.582031 655.167969 100.394531 L 655.167969 59.78125 L 729.382812 59.78125 Z M 718.453125 41.5625 C 718.453125 44.007812 716.46875 45.992188 714.023438 45.992188 C 711.574219 45.992188 709.59375 44.007812 709.59375 41.5625 C 709.59375 40.167969 710.238281 38.925781 711.242188 38.113281 L 711.242188 41.5625 C 711.242188 43.097656 712.488281 44.339844 714.023438 44.339844 C 715.554688 44.339844 716.800781 43.097656 716.800781 41.5625 L 716.800781 38.113281 C 717.808594 38.925781 718.453125 40.167969 718.453125 41.5625 Z M 718.453125 41.5625 " fill-opacity="1" fill-rule="nonzero"/></g><path fill="#a6a6a6" d="M 699.976562 87.828125 L 707.738281 80.066406 C 708.492188 79.3125 708.492188 78.09375 707.738281 77.339844 C 706.984375 76.585938 705.765625 76.585938 705.011719 77.339844 L 699.976562 82.378906 L 697.953125 80.355469 C 697.199219 79.601562 695.980469 79.601562 695.226562 80.355469 C 694.472656 81.109375 694.472656 82.328125 695.226562 83.082031 Z M 699.976562 87.828125 " fill-opacity="1" fill-rule="nonzero"/><g clip-path="url(#d7ef45b405)"><path fill="#a6a6a6" d="M 510.328125 38.664062 C 510.328125 27.425781 501.1875 18.28125 489.949219 18.28125 C 478.714844 18.28125 469.570312 27.425781 469.570312 38.664062 C 469.570312 49.867188 478.714844 59.011719 489.949219 59.011719 C 501.1875 59.011719 510.328125 49.867188 510.328125 38.664062 Z M 510.328125 38.664062 " fill-opacity="1" fill-rule="nonzero"/></g><g clip-path="url(#8cf18dd05f)"><path fill="#a6a6a6" d="M 454.546875 96.785156 L 454.546875 102.941406 C 454.546875 108.882812 459.378906 113.714844 465.320312 113.714844 L 514.578125 113.714844 C 520.519531 113.714844 525.351562 108.882812 525.351562 102.941406 L 525.351562 96.785156 C 525.351562 77.265625 509.46875 61.382812 489.949219 61.382812 C 470.433594 61.382812 454.546875 77.265625 454.546875 96.785156 Z M 454.546875 96.785156 " fill-opacity="1" fill-rule="nonzero"/></g><path stroke-linecap="butt" transform="matrix(0.75, 0, 0, 0.75, 0.00000613636, 130.499995)" fill="none" stroke-linejoin="miter" d="M -0.00000818182 2.000007 L 1080.000053 2.000007 " stroke="#000000" stroke-width="4" stroke-opacity="1" stroke-miterlimit="4"/></svg>